SplineFontDB: 3.2
FontName: OCR-Bitcoin
FullName: OCR-Bitcoin
FamilyName: OCR-Bitcoin
Weight: Book
Copyright: Copyright (c) 2025 Orange Manufacturing Group & Kurtis Stirling.\n\nInspired by Matthew Skala (2011, 2021) and Norbert Schwarz (1986, 2011). \nLicensed under the MIT License.\n
Version: 1
ItalicAngle: 0
UnderlinePosition: 0
UnderlineWidth: 0
Ascent: 800
Descent: 200
InvalidEm: 0
sfntRevision: 0x00020000
LayerCount: 2
Layer: 0 1 "Back" 1
Layer: 1 1 "Fore" 0
XUID: [1021 1018 1000726266 31404]
StyleMap: 0x0040
FSType: 0
OS2Version: 4
OS2_WeightWidthSlopeOnly: 0
OS2_UseTypoMetrics: 0
CreationTime: 1616956968
ModificationTime: 1754871921
PfmFamily: 17
TTFWeight: 400
TTFWidth: 5
LineGap: 90
VLineGap: 0
Panose: 2 0 5 9 0 0 0 0 0 0
OS2TypoAscent: 800
OS2TypoAOffset: 0
OS2TypoDescent: -200
OS2TypoDOffset: 0
OS2TypoLinegap: 90
OS2WinAscent: 938
OS2WinAOffset: 0
OS2WinDescent: 336
OS2WinDOffset: 0
HheadAscent: 938
HheadAOffset: 0
HheadDescent: -336
HheadDOffset: 0
OS2SubXSize: 650
OS2SubYSize: 700
OS2SubXOff: 0
OS2SubYOff: 140
OS2SupXSize: 650
OS2SupYSize: 700
OS2SupXOff: 0
OS2SupYOff: 480
OS2StrikeYSize: 49
OS2StrikeYPos: 258
OS2CapHeight: 701
OS2XHeight: 524
OS2Vendor: 'BTC_'
OS2CodePages: 00000001.00000000
OS2UnicodeRanges: 800000af.00000068.00000000.00000000
Lookup: 3 0 0 "'aalt' Access All Alternates in Latin lookup 0" { "'aalt' Access All Alternates in Latin lookup 0 subtable"  } ['aalt' ('DFLT' <'dflt' > 'latn' <'dflt' > ) ]
Lookup: 1 0 0 "'ss01' Style Set 1 in Latin lookup 1" { "'ss01' Style Set 1 in Latin lookup 1 subtable"  } ['ss01' ('DFLT' <'dflt' > 'latn' <'dflt' > ) ]
Lookup: 1 0 0 "'ss02' Style Set 2 in Latin lookup 2" { "'ss02' Style Set 2 in Latin lookup 2 subtable"  } ['ss02' ('DFLT' <'dflt' > 'latn' <'dflt' > ) ]
Lookup: 1 0 0 "'ss03' Style Set 3 in Latin lookup 3" { "'ss03' Style Set 3 in Latin lookup 3 subtable"  } ['ss03' ('DFLT' <'dflt' > 'latn' <'dflt' > ) ]

StartChar: .notdef
Encoding: 1114112 -1 0
Width: 723
GlyphClass: 1
Flags: W
LayerCount: 2
Fore
SplineSet
33 0 m 1,0,-1
 33 666 l 1,1,-1
 298 666 l 1,2,-1
 298 0 l 1,3,-1
 33 0 l 1,0,-1
66 33 m 1,4,-1
 265 33 l 1,5,-1
 265 633 l 1,6,-1
 66 633 l 1,7,-1
 66 33 l 1,4,-1
EndSplineSet
Validated: 1
EndChar

StartChar: exclam
Encoding: 33 33 4
Width: 723
GlyphClass: 2
Flags: W
LayerCount: 2
Fore
SplineSet
363 279 m 128,-1,1
 342 279 342 279 327.5 293.5 c 128,-1,2
 313 308 313 308 313 329 c 2,3,-1
 313 720 l 2,4,5
 313 741 313 741 328 755.5 c 128,-1,6
 343 770 343 770 363 770 c 128,-1,7
 383 770 383 770 398 755 c 128,-1,8
 413 740 413 740 413 720 c 2,9,-1
 413 329 l 2,10,11
 413 309 413 309 398.5 294 c 128,-1,0
 384 279 384 279 363 279 c 128,-1,1
290 23 m 2,12,13
 290 60 290 60 296.5 66.5 c 128,-1,14
 303 73 303 73 340 73 c 2,15,-1
 386 73 l 2,16,17
 423 73 423 73 429.5 66.5 c 128,-1,18
 436 60 436 60 436 23 c 2,19,-1
 436 -23 l 2,20,21
 436 -60 436 -60 429.5 -66.5 c 128,-1,22
 423 -73 423 -73 386 -73 c 2,23,-1
 340 -73 l 2,24,25
 303 -73 303 -73 296.5 -66.5 c 128,-1,26
 290 -60 290 -60 290 -23 c 2,27,-1
 290 23 l 2,12,13
EndSplineSet
Validated: 1
EndChar

StartChar: quotedbl
Encoding: 34 34 5
Width: 723
GlyphClass: 2
Flags: W
LayerCount: 2
Fore
SplineSet
240 770 m 2,0,1
 260 770 260 770 275.5 756 c 128,-1,2
 291 742 291 742 291 725 c 0,3,4
 291 724 291 724 290.5 722.5 c 128,-1,5
 290 721 290 721 290 720 c 2,6,-1
 261 493 l 2,7,8
 259 476 259 476 245 463 c 128,-1,9
 231 450 231 450 211.5 450 c 128,-1,10
 192 450 192 450 176.5 465 c 128,-1,11
 161 480 161 480 161 500 c 2,12,-1
 161 720 l 2,13,14
 161 740 161 740 176 755 c 128,-1,15
 191 770 191 770 211 770 c 2,16,-1
 240 770 l 2,0,1
526 770 m 2,17,18
 545 770 545 770 560.5 756 c 128,-1,19
 576 742 576 742 576 724 c 2,20,-1
 576 720 l 1,21,-1
 551 490 l 2,22,23
 547 473 547 473 534.5 461.5 c 128,-1,24
 522 450 522 450 503 450 c 0,25,26
 483 450 483 450 468 465 c 128,-1,27
 453 480 453 480 453 500 c 2,28,-1
 453 720 l 2,29,30
 453 741 453 741 468 755.5 c 128,-1,31
 483 770 483 770 503 770 c 2,32,-1
 526 770 l 2,17,18
EndSplineSet
Validated: 1
Substitution2: "'ss02' Style Set 2 in Latin lookup 2 subtable" quotedbl.alt
AlternateSubs2: "'aalt' Access All Alternates in Latin lookup 0 subtable" quotedbl quotedbl.alt
EndChar

StartChar: numbersign
Encoding: 35 35 6
Width: 723
GlyphClass: 2
Flags: W
LayerCount: 2
Fore
SplineSet
563 461 m 2,0,-1
 547 461 l 1,1,-1
 512 304 l 1,2,-1
 543 304 l 2,3,4
 564 304 564 304 578.5 289 c 128,-1,5
 593 274 593 274 593 254 c 128,-1,6
 593 234 593 234 578 219 c 128,-1,7
 563 204 563 204 543 204 c 2,8,-1
 489 204 l 1,9,-1
 449 26 l 2,10,11
 445 10 445 10 431 -1.5 c 128,-1,12
 417 -13 417 -13 400 -13 c 0,13,14
 380 -13 380 -13 365 2 c 128,-1,15
 350 17 350 17 350 37 c 2,16,-1
 350 48 l 1,17,-1
 385 204 l 1,18,-1
 260 204 l 1,19,-1
 220 26 l 2,20,21
 216 9 216 9 202.5 -2 c 128,-1,22
 189 -13 189 -13 171 -13 c 0,23,24
 151 -13 151 -13 136 2 c 128,-1,25
 121 17 121 17 121 37 c 1,26,-1
 158 204 l 1,27,28
 139 206 139 206 126 220.5 c 128,-1,29
 113 235 113 235 113 254 c 0,30,31
 113 275 113 275 127.5 289.5 c 128,-1,32
 142 304 142 304 163 304 c 2,33,-1
 180 304 l 1,34,-1
 216 461 l 1,35,-1
 183 461 l 2,36,37
 163 461 163 461 148 475.5 c 128,-1,38
 133 490 133 490 133 511 c 128,-1,39
 133 532 133 532 147.5 546.5 c 128,-1,40
 162 561 162 561 183 561 c 2,41,-1
 238 561 l 1,42,-1
 277 734 l 2,43,44
 281 750 281 750 294.5 761.5 c 128,-1,45
 308 773 308 773 326 773 c 0,46,47
 345 773 345 773 360.5 757.5 c 128,-1,48
 376 742 376 742 376 723 c 1,49,-1
 340 561 l 1,50,-1
 466 561 l 1,51,-1
 505 734 l 1,52,53
 519 773 519 773 554 773 c 0,54,55
 574 773 574 773 589 758.5 c 128,-1,56
 604 744 604 744 604 723 c 2,57,-1
 604 712 l 1,58,-1
 570 561 l 1,59,60
 588 558 588 558 600.5 544 c 128,-1,61
 613 530 613 530 613 511 c 0,62,63
 613 491 613 491 598 476 c 128,-1,64
 583 461 583 461 563 461 c 2,0,-1
408 304 m 1,65,-1
 443 461 l 1,66,-1
 318 461 l 1,67,-1
 282 304 l 1,68,-1
 408 304 l 1,65,-1
EndSplineSet
Validated: 1
EndChar

StartChar: dollar
Encoding: 36 36 7
Width: 723
GlyphClass: 2
Flags: W
LayerCount: 2
Fore
SplineSet
413 426 m 1,0,1
 459 412 459 412 488.5 399.5 c 128,-1,2
 518 387 518 387 550 365 c 128,-1,3
 582 343 582 343 597.5 310.5 c 128,-1,4
 613 278 613 278 613 234 c 0,5,6
 613 155 613 155 556.5 105 c 128,-1,7
 500 55 500 55 413 42 c 1,8,-1
 413 40 l 2,9,10
 413 20 413 20 398 5 c 128,-1,11
 383 -10 383 -10 363 -10 c 128,-1,12
 343 -10 343 -10 328 4.5 c 128,-1,13
 313 19 313 19 313 40 c 2,14,-1
 313 42 l 1,15,16
 157 55 157 55 116 158 c 0,17,18
 113 164 113 164 113 177 c 0,19,20
 113 198 113 198 128 212.5 c 128,-1,21
 143 227 143 227 163 227 c 0,22,23
 188 227 188 227 210 195.5 c 128,-1,24
 232 164 232 164 243 158 c 0,25,26
 267 146 267 146 313 142 c 1,27,-1
 313 353 l 1,28,29
 278 363 278 363 254 371.5 c 128,-1,30
 230 380 230 380 202 395.5 c 128,-1,31
 174 411 174 411 156.5 429.5 c 128,-1,32
 139 448 139 448 127.5 476 c 128,-1,33
 116 504 116 504 116 539 c 0,34,35
 116 617 116 617 171.5 661 c 128,-1,36
 227 705 227 705 313 715 c 1,37,-1
 313 720 l 2,38,39
 313 741 313 741 328 755.5 c 128,-1,40
 343 770 343 770 363 770 c 128,-1,41
 383 770 383 770 398 755 c 128,-1,42
 413 740 413 740 413 720 c 2,43,-1
 413 715 l 1,44,45
 523 701 523 701 580 617 c 0,46,47
 590 604 590 604 590 588 c 0,48,49
 590 568 590 568 575 553.5 c 128,-1,50
 560 539 560 539 540 539 c 128,-1,51
 520 539 520 539 499 560 c 1,52,53
 469 603 469 603 413 613 c 1,54,-1
 413 426 l 1,0,1
313 456 m 1,55,-1
 313 613 l 1,56,57
 215 600 215 600 215 535 c 0,58,59
 215 525 215 525 218 516 c 128,-1,60
 221 507 221 507 228.5 500 c 128,-1,61
 236 493 236 493 241.5 488 c 128,-1,62
 247 483 247 483 259 477.5 c 128,-1,63
 271 472 271 472 276.5 469.5 c 128,-1,64
 282 467 282 467 296 462 c 128,-1,65
 310 457 310 457 313 456 c 1,55,-1
413 145 m 1,66,67
 513 164 513 164 513 234 c 0,68,69
 513 290 513 290 413 325 c 1,70,-1
 413 145 l 1,66,67
EndSplineSet
Validated: 1
EndChar

StartChar: percent
Encoding: 37 37 8
Width: 723
GlyphClass: 2
Flags: W
LayerCount: 2
Fore
SplineSet
613 717 m 0,0,1
 613 704 613 704 606 692 c 2,2,-1
 207 17 l 2,3,4
 200 7 200 7 187.5 -0.5 c 128,-1,5
 175 -8 175 -8 163 -8 c 0,6,7
 143 -8 143 -8 128 7 c 128,-1,8
 113 22 113 22 113 43 c 0,9,10
 113 58 113 58 120 68 c 2,11,-1
 526 753 l 1,12,13
 540 767 540 767 563 767 c 0,14,15
 583 767 583 767 598 752 c 128,-1,16
 613 737 613 737 613 717 c 0,0,1
202 498 m 2,17,18
 166 498 166 498 139.5 524.5 c 128,-1,19
 113 551 113 551 113 588 c 2,20,-1
 113 669 l 2,21,22
 113 705 113 705 139.5 732 c 128,-1,23
 166 759 166 759 202 759 c 2,24,-1
 284 759 l 2,25,26
 320 759 320 759 346.5 732.5 c 128,-1,27
 373 706 373 706 373 669 c 2,28,-1
 373 588 l 2,29,30
 373 552 373 552 346.5 525 c 128,-1,31
 320 498 320 498 284 498 c 2,32,-1
 202 498 l 2,17,18
193 644 m 2,33,-1
 193 613 l 2,34,35
 193 599 193 599 203.5 589 c 128,-1,36
 214 579 214 579 227 579 c 2,37,-1
 259 579 l 2,38,39
 273 579 273 579 283 589 c 128,-1,40
 293 599 293 599 293 613 c 2,41,-1
 293 644 l 2,42,43
 293 658 293 658 282.5 668 c 128,-1,44
 272 678 272 678 259 678 c 2,45,-1
 227 678 l 2,46,47
 213 678 213 678 203 668 c 128,-1,48
 193 658 193 658 193 644 c 2,33,-1
524 262 m 2,49,50
 560 262 560 262 586.5 235.5 c 128,-1,51
 613 209 613 209 613 172 c 2,52,-1
 613 91 l 2,53,54
 613 55 613 55 586.5 28 c 128,-1,55
 560 1 560 1 524 1 c 2,56,-1
 442 1 l 2,57,58
 406 1 406 1 379.5 27.5 c 128,-1,59
 353 54 353 54 353 91 c 2,60,-1
 353 172 l 2,61,62
 353 208 353 208 379.5 235 c 128,-1,63
 406 262 406 262 442 262 c 2,64,-1
 524 262 l 2,49,50
533 116 m 2,65,-1
 533 147 l 2,66,67
 533 161 533 161 522.5 171 c 128,-1,68
 512 181 512 181 499 181 c 2,69,-1
 467 181 l 2,70,71
 453 181 453 181 443 171 c 128,-1,72
 433 161 433 161 433 147 c 2,73,-1
 433 116 l 2,74,75
 433 102 433 102 443.5 92 c 128,-1,76
 454 82 454 82 467 82 c 2,77,-1
 499 82 l 2,78,79
 513 82 513 82 523 92 c 128,-1,80
 533 102 533 102 533 116 c 2,65,-1
EndSplineSet
Validated: 1
EndChar

StartChar: ampersand
Encoding: 38 38 9
Width: 723
GlyphClass: 2
Flags: W
LayerCount: 2
Fore
SplineSet
613 309 m 0,0,1
 613 182 613 182 557 99 c 0,2,3
 559 96 559 96 566 87 c 128,-1,4
 573 78 573 78 576.5 72.5 c 128,-1,5
 580 67 580 67 583.5 58 c 128,-1,6
 587 49 587 49 587 40 c 0,7,8
 587 20 587 20 572 5 c 128,-1,9
 557 -10 557 -10 537 -10 c 0,10,11
 529 -10 529 -10 522 -8 c 128,-1,12
 515 -6 515 -6 509.5 -1 c 128,-1,13
 504 4 504 4 501 6.5 c 128,-1,14
 498 9 498 9 492 18 c 128,-1,15
 486 27 486 27 485 28 c 0,16,17
 420 -13 420 -13 333 -13 c 0,18,19
 233 -11 233 -11 173 47.5 c 128,-1,20
 113 106 113 106 113 205 c 0,21,22
 113 321 113 321 210 407 c 1,23,24
 141 501 141 501 141 588 c 0,25,26
 141 674 141 674 195.5 723.5 c 128,-1,27
 250 773 250 773 340 773 c 0,28,29
 416 773 416 773 470 732.5 c 128,-1,30
 524 692 524 692 524 622 c 0,31,32
 524 593 524 593 514.5 566 c 128,-1,33
 505 539 505 539 495 521 c 128,-1,34
 485 503 485 503 460.5 479 c 128,-1,35
 436 455 436 455 425.5 446 c 128,-1,36
 415 437 415 437 383.5 414 c 128,-1,37
 352 391 352 391 348 388 c 1,38,-1
 491 189 l 1,39,40
 513 239 513 239 513 309 c 0,41,42
 513 330 513 330 528 344.5 c 128,-1,43
 543 359 543 359 563 359 c 128,-1,44
 583 359 583 359 598 344 c 128,-1,45
 613 329 613 329 613 309 c 0,0,1
340 673 m 0,46,47
 241 673 241 673 241 588 c 0,48,49
 241 534 241 534 288 467 c 1,50,51
 364 521 364 521 393 557 c 0,52,53
 424 595 424 595 424 622 c 128,-1,54
 424 649 424 649 398.5 661 c 128,-1,55
 373 673 373 673 340 673 c 0,46,47
335 87 m 0,56,57
 387 87 387 87 424 110 c 1,58,-1
 270 324 l 1,59,60
 268 322 268 322 258.5 311 c 128,-1,61
 249 300 249 300 246 296.5 c 128,-1,62
 243 293 243 293 236 283 c 128,-1,63
 229 273 229 273 226.5 266.5 c 128,-1,64
 224 260 224 260 220 249.5 c 128,-1,65
 216 239 216 239 214.5 228.5 c 128,-1,66
 213 218 213 218 213 205 c 0,67,68
 213 92 213 92 335 87 c 0,56,57
EndSplineSet
Validated: 1
EndChar

StartChar: quotesingle
Encoding: 39 39 10
Width: 723
GlyphClass: 2
Flags: W
LayerCount: 2
Fore
SplineSet
407 770 m 2,0,1
 425 768 425 768 438 754 c 128,-1,2
 451 740 451 740 451 723 c 1,3,4
 451 723 451 723 450.5 721.5 c 128,-1,5
 450 720 450 720 450 720 c 1,6,-1
 429 428 l 2,7,8
 425 410 425 410 412 398.5 c 128,-1,9
 399 387 399 387 380 387 c 2,10,-1
 346 387 l 2,11,12
 326 387 326 387 311.5 399 c 128,-1,13
 297 411 297 411 296 430 c 2,14,-1
 276 720 l 2,15,16
 276 741 276 741 291 755.5 c 128,-1,17
 306 770 306 770 326 770 c 2,18,-1
 407 770 l 2,0,1
EndSplineSet
Validated: 1
Substitution2: "'ss03' Style Set 3 in Latin lookup 3 subtable" quotesingle.alt
AlternateSubs2: "'aalt' Access All Alternates in Latin lookup 0 subtable" quotesingle quotesingle.alt
EndChar

StartChar: parenleft
Encoding: 40 40 11
Width: 723
GlyphClass: 2
Flags: W
LayerCount: 2
Fore
SplineSet
523 79 m 0,0,1
 532 73 532 73 538.5 61 c 128,-1,2
 545 49 545 49 545 37 c 0,3,4
 545 17 545 17 530 2 c 128,-1,5
 515 -13 515 -13 495 -13 c 0,6,7
 480 -13 480 -13 467 -5 c 0,8,9
 256 138 256 138 256 377 c 0,10,11
 256 619 256 619 467 764 c 0,12,13
 479 773 479 773 495 773 c 0,14,15
 515 773 515 773 530 758 c 128,-1,16
 545 743 545 743 545 723 c 0,17,18
 545 712 545 712 538.5 698.5 c 128,-1,19
 532 685 532 685 523 682 c 0,20,21
 356 568 356 568 356 377 c 0,22,23
 356 188 356 188 523 79 c 0,0,1
EndSplineSet
Validated: 1
EndChar

StartChar: parenright
Encoding: 41 41 12
Width: 723
GlyphClass: 2
Flags: W
LayerCount: 2
Fore
SplineSet
278 681 m 0,0,1
 269 687 269 687 262.5 699 c 128,-1,2
 256 711 256 711 256 723 c 0,3,4
 256 743 256 743 271 758 c 128,-1,5
 286 773 286 773 306 773 c 0,6,7
 321 773 321 773 334 765 c 0,8,9
 545 622 545 622 545 383 c 0,10,11
 545 141 545 141 334 -4 c 0,12,13
 322 -13 322 -13 306 -13 c 0,14,15
 286 -13 286 -13 271 2 c 128,-1,16
 256 17 256 17 256 37 c 0,17,18
 256 48 256 48 262.5 61.5 c 128,-1,19
 269 75 269 75 278 78 c 0,20,21
 445 192 445 192 445 383 c 0,22,23
 445 572 445 572 278 681 c 0,0,1
EndSplineSet
Validated: 1
EndChar

StartChar: asterisk
Encoding: 42 42 13
Width: 723
GlyphClass: 2
Flags: W
LayerCount: 2
Fore
SplineSet
562 498 m 1,0,1
 582 498 582 498 597.5 482 c 128,-1,2
 613 466 613 466 613 446 c 0,3,4
 613 412 613 412 579 398 c 2,5,-1
 445 354 l 1,6,-1
 535 233 l 2,7,8
 545 218 545 218 545 203 c 0,9,10
 545 183 545 183 530.5 168 c 128,-1,11
 516 153 516 153 495 153 c 0,12,13
 473 153 473 153 459 166 c 2,14,-1
 363 295 l 1,15,-1
 267 166 l 2,16,17
 253 153 253 153 231 153 c 0,18,19
 210 153 210 153 195.5 168 c 128,-1,20
 181 183 181 183 181 203 c 0,21,22
 181 218 181 218 191 233 c 2,23,-1
 281 354 l 1,24,-1
 147 398 l 2,25,26
 113 412 113 412 113 446 c 0,27,28
 113 466 113 466 128.5 482 c 128,-1,29
 144 498 144 498 164 498 c 1,30,-1
 313 449 l 1,31,-1
 313 600 l 2,32,33
 313 621 313 621 328 635.5 c 128,-1,34
 343 650 343 650 363 650 c 128,-1,35
 383 650 383 650 398 635.5 c 128,-1,36
 413 621 413 621 413 600 c 2,37,-1
 413 449 l 1,38,-1
 562 498 l 1,0,1
EndSplineSet
Validated: 1
EndChar

StartChar: plus
Encoding: 43 43 14
Width: 723
GlyphClass: 2
Flags: W
LayerCount: 2
Fore
SplineSet
563 430 m 2,0,1
 583 430 583 430 598 415 c 128,-1,2
 613 400 613 400 613 380 c 128,-1,3
 613 360 613 360 598 345 c 128,-1,4
 583 330 583 330 563 330 c 2,5,-1
 413 330 l 1,6,-1
 413 151 l 2,7,8
 413 131 413 131 398 116 c 128,-1,9
 383 101 383 101 363 101 c 128,-1,10
 343 101 343 101 328 115.5 c 128,-1,11
 313 130 313 130 313 151 c 2,12,-1
 313 330 l 1,13,-1
 163 330 l 2,14,15
 143 330 143 330 128 344.5 c 128,-1,16
 113 359 113 359 113 380 c 128,-1,17
 113 401 113 401 128 415.5 c 128,-1,18
 143 430 143 430 163 430 c 2,19,-1
 313 430 l 1,20,-1
 313 608 l 2,21,22
 313 629 313 629 327.5 643.5 c 128,-1,23
 342 658 342 658 363 658 c 128,-1,24
 384 658 384 658 398.5 643 c 128,-1,25
 413 628 413 628 413 608 c 2,26,-1
 413 430 l 1,27,-1
 563 430 l 2,0,1
EndSplineSet
Validated: 1
EndChar

StartChar: comma
Encoding: 44 44 15
Width: 723
GlyphClass: 2
Flags: W
LayerCount: 2
Fore
SplineSet
491 207 m 2,0,1
 511 207 511 207 526 192.5 c 128,-1,2
 541 178 541 178 541 157 c 2,3,-1
 541 126 l 2,4,5
 541 105 541 105 527 91 c 2,6,-1
 272 -170 l 2,7,8
 258 -184 258 -184 237 -184 c 2,9,-1
 209 -184 l 2,10,11
 188 -184 188 -184 173.5 -169.5 c 128,-1,12
 159 -155 159 -155 159 -134 c 0,13,14
 159 -121 159 -121 165 -109 c 2,15,-1
 343 193 l 1,16,17
 356 207 356 207 380 207 c 2,18,-1
 491 207 l 2,0,1
EndSplineSet
Validated: 1
EndChar

StartChar: hyphen
Encoding: 45 45 16
Width: 723
GlyphClass: 2
Flags: W
LayerCount: 2
Fore
SplineSet
563 444 m 2,0,1
 584 444 584 444 598.5 429 c 128,-1,2
 613 414 613 414 613 394 c 2,3,-1
 613 366 l 2,4,5
 613 346 613 346 598.5 331 c 128,-1,6
 584 316 584 316 563 316 c 2,7,-1
 163 316 l 2,8,9
 142 316 142 316 127.5 330.5 c 128,-1,10
 113 345 113 345 113 366 c 2,11,-1
 113 394 l 2,12,13
 113 415 113 415 127.5 429.5 c 128,-1,14
 142 444 142 444 163 444 c 2,15,-1
 563 444 l 2,0,1
EndSplineSet
Validated: 1
EndChar

StartChar: period
Encoding: 46 46 17
Width: 723
GlyphClass: 2
Flags: W
LayerCount: 2
Fore
SplineSet
434 187 m 2,0,1
 454 187 454 187 469 172.5 c 128,-1,2
 484 158 484 158 484 137 c 2,3,-1
 484 40 l 2,4,5
 484 19 484 19 469 4.5 c 128,-1,6
 454 -10 454 -10 434 -10 c 2,7,-1
 291 -10 l 2,8,9
 271 -10 271 -10 256 5 c 128,-1,10
 241 20 241 20 241 40 c 2,11,-1
 241 137 l 2,12,13
 241 157 241 157 256 172 c 128,-1,14
 271 187 271 187 291 187 c 2,15,-1
 434 187 l 2,0,1
EndSplineSet
Validated: 1
EndChar

StartChar: slash
Encoding: 47 47 18
Width: 723
GlyphClass: 2
Flags: W
LayerCount: 2
Fore
SplineSet
503 773 m 0,0,1
 523 773 523 773 538 758 c 128,-1,2
 553 743 553 743 553 723 c 0,3,4
 553 712 553 712 549 704 c 2,5,-1
 269 18 l 2,6,7
 264 5 264 5 251 -4 c 128,-1,8
 238 -13 238 -13 223 -13 c 0,9,10
 203 -13 203 -13 188 1.5 c 128,-1,11
 173 16 173 16 173 37 c 0,12,13
 173 48 173 48 177 56 c 2,14,-1
 457 742 l 2,15,16
 462 755 462 755 475 764 c 128,-1,17
 488 773 488 773 503 773 c 0,0,1
EndSplineSet
Validated: 1
EndChar

StartChar: zero
Encoding: 48 48 19
AltUni2: 00e8e0.ffffffff.0 00e9d0.ffffffff.0 00e8e0.ffffffff.0 00e9d0.ffffffff.0
Width: 723
GlyphClass: 2
Flags: W
LayerCount: 2
Fore
SplineSet
363 773 m 128,-1,1
 409 773 409 773 445.5 762 c 128,-1,2
 482 751 482 751 508 733 c 128,-1,3
 534 715 534 715 552.5 685.5 c 128,-1,4
 571 656 571 656 582.5 625 c 128,-1,5
 594 594 594 594 600.5 551 c 128,-1,6
 607 508 607 508 609.5 469 c 128,-1,7
 612 430 612 430 613 380 c 0,8,9
 612 329 612 329 609.5 290 c 128,-1,10
 607 251 607 251 600.5 208 c 128,-1,11
 594 165 594 165 582.5 134 c 128,-1,12
 571 103 571 103 552.5 73.5 c 128,-1,13
 534 44 534 44 508 26 c 128,-1,14
 482 8 482 8 445.5 -3 c 128,-1,15
 409 -14 409 -14 363 -14 c 128,-1,16
 317 -14 317 -14 280 -3 c 128,-1,17
 243 8 243 8 217.5 26 c 128,-1,18
 192 44 192 44 173 73.5 c 128,-1,19
 154 103 154 103 143 134 c 128,-1,20
 132 165 132 165 125 208 c 128,-1,21
 118 251 118 251 116 290 c 0,22,23
 114 330 114 330 113 380 c 0,24,25
 114 431 114 431 116 469.5 c 128,-1,26
 118 508 118 508 125 551 c 128,-1,27
 132 594 132 594 143 625 c 128,-1,28
 154 656 154 656 173 685.5 c 128,-1,29
 192 715 192 715 217.5 733 c 128,-1,30
 243 751 243 751 280 762 c 128,-1,0
 317 773 317 773 363 773 c 128,-1,1
498 190 m 0,31,32
 512 250 512 250 513 380 c 0,33,34
 512 510 512 510 498 569 c 0,35,36
 485 623 485 623 454.5 648 c 128,-1,37
 424 673 424 673 362.5 673 c 128,-1,38
 301 673 301 673 271 648 c 128,-1,39
 241 623 241 623 228 569 c 0,40,41
 214 510 214 510 213 380 c 0,42,43
 214 250 214 250 228 190 c 0,44,45
 241 136 241 136 271 111 c 128,-1,46
 301 86 301 86 362.5 86 c 128,-1,47
 424 86 424 86 454.5 111 c 128,-1,48
 485 136 485 136 498 190 c 0,31,32
EndSplineSet
Validated: 1
EndChar

StartChar: one
Encoding: 49 49 20
AltUni2: 00e8e1.ffffffff.0 00e9d1.ffffffff.0 00e8e1.ffffffff.0 00e9d1.ffffffff.0
Width: 723
GlyphClass: 2
Flags: W
LayerCount: 2
Fore
SplineSet
406 770 m 2,0,1
 426 770 426 770 441 755 c 128,-1,2
 456 740 456 740 456 720 c 2,3,-1
 456 40 l 2,4,5
 456 20 456 20 441 5 c 128,-1,6
 426 -10 426 -10 406 -10 c 128,-1,7
 386 -10 386 -10 371 4.5 c 128,-1,8
 356 19 356 19 356 40 c 2,9,-1
 356 638 l 1,10,-1
 227 528 l 2,11,12
 214 516 214 516 194 516 c 0,13,14
 173 516 173 516 158.5 531 c 128,-1,15
 144 546 144 546 144 566 c 0,16,17
 144 589 144 589 159 601 c 2,18,-1
 342 758 l 2,19,20
 356 770 356 770 374 770 c 2,21,-1
 406 770 l 2,0,1
EndSplineSet
Validated: 1
EndChar

StartChar: two
Encoding: 50 50 21
AltUni2: 00e8e2.ffffffff.0 00e9d2.ffffffff.0 00e8e2.ffffffff.0 00e9d2.ffffffff.0
Width: 723
GlyphClass: 2
Flags: W
LayerCount: 2
Fore
SplineSet
543 101 m 2,0,1
 564 101 564 101 578.5 86 c 128,-1,2
 593 71 593 71 593 51 c 128,-1,3
 593 31 593 31 578 16 c 128,-1,4
 563 1 563 1 543 1 c 2,5,-1
 191 1 l 2,6,7
 171 1 171 1 156 16 c 128,-1,8
 141 31 141 31 141 51 c 2,9,-1
 141 72 l 2,10,11
 141 151 141 151 151 185 c 0,12,13
 169 247 169 247 216.5 295 c 128,-1,14
 264 343 264 343 336 389 c 0,15,16
 368 410 368 410 384 420.5 c 128,-1,17
 400 431 400 431 423.5 450.5 c 128,-1,18
 447 470 447 470 460 487 c 0,19,20
 487 522 487 522 487 560 c 0,21,22
 487 611 487 611 451.5 642 c 128,-1,23
 416 673 416 673 363 673 c 0,24,25
 267 673 267 673 209 630 c 0,26,27
 193 621 193 621 180 621 c 0,28,29
 160 621 160 621 145 636 c 128,-1,30
 130 651 130 651 130 670 c 0,31,32
 130 682 130 682 136 694.5 c 128,-1,33
 142 707 142 707 151 712 c 0,34,35
 197 745 197 745 246 759 c 128,-1,36
 295 773 295 773 363 773 c 0,37,38
 460 773 460 773 523.5 714 c 128,-1,39
 587 655 587 655 587 560 c 0,40,41
 587 533 587 533 580 507 c 128,-1,42
 573 481 573 481 563.5 461.5 c 128,-1,43
 554 442 554 442 535.5 421 c 128,-1,44
 517 400 517 400 504 387 c 128,-1,45
 491 374 491 374 465.5 355.5 c 128,-1,46
 440 337 440 337 428.5 329.5 c 128,-1,47
 417 322 417 322 390 305 c 0,48,49
 358 285 358 285 344 275.5 c 128,-1,50
 330 266 330 266 306.5 245.5 c 128,-1,51
 283 225 283 225 273 207.5 c 128,-1,52
 263 190 263 190 253.5 162.5 c 128,-1,53
 244 135 244 135 242 101 c 1,54,-1
 543 101 l 2,0,1
EndSplineSet
Validated: 1
EndChar

StartChar: three
Encoding: 51 51 22
AltUni2: 00e8e3.ffffffff.0 00e9d3.ffffffff.0 00e8e3.ffffffff.0 00e9d3.ffffffff.0
Width: 723
GlyphClass: 2
Flags: W
LayerCount: 2
Fore
SplineSet
404 472 m 1,0,1
 494 449 494 449 549 390 c 128,-1,2
 604 331 604 331 604 242 c 2,3,-1
 604 226 l 1,4,5
 600 116 600 116 518 51.5 c 128,-1,6
 436 -13 436 -13 317 -13 c 0,7,8
 288 -13 288 -13 258.5 -10 c 128,-1,9
 229 -7 229 -7 193.5 0.5 c 128,-1,10
 158 8 158 8 135.5 25.5 c 128,-1,11
 113 43 113 43 113 69 c 0,12,13
 113 90 113 90 128 104.5 c 128,-1,14
 143 119 143 119 163 119 c 0,15,16
 170 119 170 119 182 115 c 0,17,18
 245 87 245 87 317 87 c 0,19,20
 395 87 395 87 447.5 123.5 c 128,-1,21
 500 160 500 160 504 231 c 1,22,-1
 504 240 l 2,23,24
 504 289 504 289 473.5 323 c 128,-1,25
 443 357 443 357 398.5 370.5 c 128,-1,26
 354 384 354 384 300 384 c 0,27,28
 280 384 280 384 265 399 c 128,-1,29
 250 414 250 414 250 434 c 128,-1,30
 250 454 250 454 261 465 c 2,31,-1
 445 658 l 1,32,-1
 166 658 l 2,33,34
 146 658 146 658 131 673 c 128,-1,35
 116 688 116 688 116 708 c 0,36,37
 116 729 116 729 130.5 743.5 c 128,-1,38
 145 758 145 758 166 758 c 2,39,-1
 529 758 l 2,40,41
 549 758 549 758 564 743 c 128,-1,42
 579 728 579 728 579 708 c 2,43,-1
 579 673 l 2,44,45
 579 655 579 655 564 640 c 2,46,-1
 404 472 l 1,0,1
EndSplineSet
Validated: 1
EndChar

StartChar: four
Encoding: 52 52 23
AltUni2: 00e8e4.ffffffff.0 00e9d4.ffffffff.0 00e8e4.ffffffff.0 00e9d4.ffffffff.0
Width: 723
GlyphClass: 2
Flags: W
LayerCount: 2
Fore
SplineSet
563 264 m 2,0,1
 584 264 584 264 598.5 249 c 128,-1,2
 613 234 613 234 613 214 c 128,-1,3
 613 194 613 194 598 179 c 128,-1,4
 583 164 583 164 563 164 c 2,5,-1
 510 164 l 1,6,-1
 510 40 l 2,7,8
 510 20 510 20 495 5 c 128,-1,9
 480 -10 480 -10 460 -10 c 128,-1,10
 440 -10 440 -10 425 5 c 128,-1,11
 410 20 410 20 410 40 c 2,12,-1
 410 164 l 1,13,-1
 163 164 l 2,14,15
 143 164 143 164 128 178.5 c 128,-1,16
 113 193 113 193 113 214 c 2,17,-1
 113 257 l 2,18,19
 113 271 113 271 118 278 c 2,20,-1
 335 741 l 2,21,22
 340 753 340 753 353 761.5 c 128,-1,23
 366 770 366 770 380 770 c 0,24,25
 400 770 400 770 415 755 c 128,-1,26
 430 740 430 740 430 720 c 0,27,28
 430 709 430 709 425 699 c 2,29,-1
 221 264 l 1,30,-1
 410 264 l 1,31,-1
 410 380 l 2,32,33
 410 400 410 400 425 415 c 128,-1,34
 440 430 440 430 460 430 c 128,-1,35
 480 430 480 430 495 415 c 128,-1,36
 510 400 510 400 510 380 c 2,37,-1
 510 264 l 1,38,-1
 563 264 l 2,0,1
EndSplineSet
Validated: 1
EndChar

StartChar: five
Encoding: 53 53 24
AltUni2: 00e8e5.ffffffff.0 00e9d5.ffffffff.0 00e8e5.ffffffff.0 00e9d5.ffffffff.0
Width: 723
GlyphClass: 2
Flags: W
LayerCount: 2
Fore
SplineSet
277 513 m 2,0,1
 413 513 413 513 493 448 c 128,-1,2
 573 383 573 383 573 257 c 0,3,4
 573 204 573 204 549 157 c 128,-1,5
 525 110 525 110 488 77 c 0,6,7
 387 -13 387 -13 189 -13 c 0,8,9
 169 -13 169 -13 154 1.5 c 128,-1,10
 139 16 139 16 139 37 c 128,-1,11
 139 58 139 58 154 72.5 c 128,-1,12
 169 87 169 87 189 87 c 0,13,14
 395 87 395 87 456 195 c 0,15,16
 473 227 473 227 473 257 c 0,17,18
 473 327 473 327 440 363 c 0,19,20
 396 413 396 413 277 413 c 0,21,22
 244 413 244 413 213 410 c 2,23,-1
 209 410 l 2,24,25
 189 410 189 410 174 424 c 128,-1,26
 159 438 159 438 159 457 c 2,27,-1
 159 460 l 1,28,-1
 173 711 l 2,29,30
 175 731 175 731 189 744.5 c 128,-1,31
 203 758 203 758 223 758 c 2,32,-1
 517 758 l 2,33,34
 538 758 538 758 552.5 743 c 128,-1,35
 567 728 567 728 567 708 c 128,-1,36
 567 688 567 688 552 673 c 128,-1,37
 537 658 537 658 517 658 c 2,38,-1
 270 658 l 1,39,-1
 262 513 l 1,40,-1
 277 513 l 2,0,1
EndSplineSet
Validated: 1
EndChar

StartChar: six
Encoding: 54 54 25
AltUni2: 00e8e6.ffffffff.0 00e9d6.ffffffff.0 00e8e6.ffffffff.0 00e9d6.ffffffff.0
Width: 723
GlyphClass: 2
Flags: W
LayerCount: 2
Fore
SplineSet
363 487 m 0,0,1
 479 487 479 487 546 417 c 128,-1,2
 613 347 613 347 613 229 c 0,3,4
 613 122 613 122 543 54.5 c 128,-1,5
 473 -13 473 -13 363 -13 c 128,-1,6
 253 -13 253 -13 184 53.5 c 128,-1,7
 115 120 115 120 113 229 c 2,8,-1
 113 240 l 2,9,10
 113 363 113 363 183 483 c 0,11,12
 211 530 211 530 252 582.5 c 128,-1,13
 293 635 293 635 321 666.5 c 128,-1,14
 349 698 349 698 401 755 c 0,15,16
 415 770 415 770 437 770 c 0,17,18
 457 770 457 770 472 755 c 128,-1,19
 487 740 487 740 487 720 c 0,20,21
 487 701 487 701 474 686 c 0,22,23
 429 637 429 637 410.5 617 c 128,-1,24
 392 597 392 597 358.5 556 c 128,-1,25
 325 515 325 515 301 480 c 1,26,27
 328 487 328 487 363 487 c 0,0,1
363 87 m 0,28,29
 430 87 430 87 471.5 125.5 c 128,-1,30
 513 164 513 164 513 229 c 0,31,32
 513 305 513 305 475 346 c 128,-1,33
 437 387 437 387 363 387 c 0,34,35
 291 387 291 387 252 345 c 128,-1,36
 213 303 213 303 213 229 c 0,37,38
 213 163 213 163 254 125 c 128,-1,39
 295 87 295 87 363 87 c 0,28,29
EndSplineSet
Validated: 1
EndChar

StartChar: seven
Encoding: 55 55 26
AltUni2: 00e8e7.ffffffff.0 00e9d7.ffffffff.0 00e8e7.ffffffff.0 00e9d7.ffffffff.0
Width: 723
GlyphClass: 2
Flags: W
LayerCount: 2
Fore
SplineSet
563 758 m 2,0,1
 584 758 584 758 598.5 743 c 128,-1,2
 613 728 613 728 613 708 c 0,3,4
 613 634 613 634 553 543 c 0,5,6
 536 518 536 518 482.5 452.5 c 128,-1,7
 429 387 429 387 406 347 c 0,8,9
 339 229 339 229 339 40 c 0,10,11
 339 20 339 20 324 5 c 128,-1,12
 309 -10 309 -10 289 -10 c 128,-1,13
 269 -10 269 -10 254 4.5 c 128,-1,14
 239 19 239 19 239 40 c 0,15,16
 239 256 239 256 319 396 c 0,17,18
 343 438 343 438 398 506.5 c 128,-1,19
 453 575 453 575 470 600 c 0,20,21
 495 638 495 638 503 658 c 1,22,-1
 163 658 l 2,23,24
 143 658 143 658 128 673 c 128,-1,25
 113 688 113 688 113 708 c 0,26,27
 113 729 113 729 127.5 743.5 c 128,-1,28
 142 758 142 758 163 758 c 2,29,-1
 563 758 l 2,0,1
EndSplineSet
Validated: 1
EndChar

StartChar: eight
Encoding: 56 56 27
AltUni2: 00e8e8.ffffffff.0 00e9d8.ffffffff.0 00e8e8.ffffffff.0 00e9d8.ffffffff.0
Width: 723
GlyphClass: 2
Flags: W
LayerCount: 2
Fore
SplineSet
467 423 m 1,0,1
 613 324 613 324 614 199 c 0,2,3
 614 104 614 104 543 45 c 128,-1,4
 472 -14 472 -14 363 -14 c 128,-1,5
 254 -14 254 -14 183.5 45.5 c 128,-1,6
 113 105 113 105 113 199 c 0,7,8
 113 324 113 324 259 423 c 1,9,10
 147 490 147 490 147 600 c 0,11,12
 147 676 147 676 213 724.5 c 128,-1,13
 279 773 279 773 363.5 773 c 128,-1,14
 448 773 448 773 514 724.5 c 128,-1,15
 580 676 580 676 580 600 c 0,16,17
 579 490 579 490 467 423 c 1,0,1
247 600 m 0,18,19
 247 576 247 576 256 557 c 128,-1,20
 265 538 265 538 285 523.5 c 128,-1,21
 305 509 305 509 320 501 c 128,-1,22
 335 493 335 493 363 481 c 1,23,24
 391 493 391 493 406.5 501 c 128,-1,25
 422 509 422 509 441.5 523.5 c 128,-1,26
 461 538 461 538 470 557 c 128,-1,27
 479 576 479 576 479 600 c 0,28,29
 479 635 479 635 442 654 c 128,-1,30
 405 673 405 673 363.5 673 c 128,-1,31
 322 673 322 673 284.5 654 c 128,-1,32
 247 635 247 635 247 600 c 0,18,19
363.5 86 m 128,-1,34
 428 86 428 86 471.5 116 c 128,-1,35
 515 146 515 146 515 199 c 0,36,37
 515 290 515 290 363 367 c 1,38,39
 212 290 212 290 212 199 c 0,40,41
 212 146 212 146 255.5 116 c 128,-1,33
 299 86 299 86 363.5 86 c 128,-1,34
EndSplineSet
Validated: 1
EndChar

StartChar: nine
Encoding: 57 57 28
AltUni2: 00e8ea.ffffffff.0 00e9da.ffffffff.0 00e8ea.ffffffff.0 00e9da.ffffffff.0
Width: 723
GlyphClass: 2
Flags: W
LayerCount: 2
Fore
SplineSet
363 773 m 0,0,1
 470 773 470 773 541.5 701.5 c 128,-1,2
 613 630 613 630 613 514 c 0,3,4
 613 443 613 443 592 385.5 c 128,-1,5
 571 328 571 328 532 260 c 0,6,7
 444 112 444 112 322 3 c 0,8,9
 307 -10 307 -10 289 -10 c 0,10,11
 269 -10 269 -10 254 4.5 c 128,-1,12
 239 19 239 19 239 40 c 128,-1,13
 239 61 239 61 255 77 c 0,14,15
 354 167 354 167 424 277 c 1,16,17
 397 273 397 273 363 273 c 0,18,19
 251 273 251 273 182 342 c 128,-1,20
 113 411 113 411 113 514 c 0,21,22
 113 620 113 620 186 696.5 c 128,-1,23
 259 773 259 773 363 773 c 0,0,1
503 442 m 0,24,25
 513 480 513 480 513 514 c 0,26,27
 513 587 513 587 472 630 c 128,-1,28
 431 673 431 673 363 673 c 0,29,30
 300 673 300 673 256.5 626 c 128,-1,31
 213 579 213 579 213 514 c 0,32,33
 213 451 213 451 253.5 412 c 128,-1,34
 294 373 294 373 363 373 c 0,35,36
 482 373 482 373 503 442 c 0,24,25
EndSplineSet
Validated: 1
EndChar

StartChar: colon
Encoding: 58 58 29
Width: 723
GlyphClass: 2
Flags: W
LayerCount: 2
Fore
SplineSet
417 170 m 2,0,1
 437 170 437 170 452 155 c 128,-1,2
 467 140 467 140 467 120 c 2,3,-1
 467 40 l 2,4,5
 467 20 467 20 452 5 c 128,-1,6
 437 -10 437 -10 417 -10 c 2,7,-1
 309 -10 l 2,8,9
 289 -10 289 -10 274 4.5 c 128,-1,10
 259 19 259 19 259 40 c 2,11,-1
 259 120 l 2,12,13
 259 141 259 141 274 155.5 c 128,-1,14
 289 170 289 170 309 170 c 2,15,-1
 417 170 l 2,0,1
417 533 m 2,16,17
 437 533 437 533 452 518 c 128,-1,18
 467 503 467 503 467 483 c 2,19,-1
 467 403 l 2,20,21
 467 383 467 383 452.5 368 c 128,-1,22
 438 353 438 353 417 353 c 2,23,-1
 309 353 l 2,24,25
 288 353 288 353 273.5 367.5 c 128,-1,26
 259 382 259 382 259 403 c 2,27,-1
 259 483 l 2,28,29
 259 504 259 504 274 518.5 c 128,-1,30
 289 533 289 533 309 533 c 2,31,-1
 417 533 l 2,16,17
EndSplineSet
Validated: 1
EndChar

StartChar: semicolon
Encoding: 59 59 30
Width: 723
GlyphClass: 2
Flags: W
LayerCount: 2
Fore
SplineSet
329 353 m 2,0,1
 308 353 308 353 293.5 367.5 c 128,-1,2
 279 382 279 382 279 403 c 2,3,-1
 279 483 l 2,4,5
 279 504 279 504 294 518.5 c 128,-1,6
 309 533 309 533 329 533 c 2,7,-1
 437 533 l 2,8,9
 457 533 457 533 472 518 c 128,-1,10
 487 503 487 503 487 483 c 2,11,-1
 487 403 l 2,12,13
 487 383 487 383 472.5 368 c 128,-1,14
 458 353 458 353 437 353 c 2,15,-1
 329 353 l 2,0,1
490 123 m 0,16,17
 490 121 490 121 490.5 117 c 128,-1,18
 491 113 491 113 491 111 c 0,19,20
 491 106 491 106 488 103 c 2,21,-1
 284 -164 l 2,22,23
 269 -179 269 -179 249 -179 c 2,24,-1
 206 -179 l 2,25,26
 186 -179 186 -179 171 -164.5 c 128,-1,27
 156 -150 156 -150 156 -129 c 0,28,29
 156 -116 156 -116 160 -108 c 2,30,-1
 284 145 l 2,31,32
 289 157 289 157 301 165 c 128,-1,33
 313 173 313 173 329 173 c 2,34,-1
 440 173 l 2,35,36
 460 173 460 173 475 158 c 128,-1,37
 490 143 490 143 490 123 c 0,16,17
EndSplineSet
Validated: 1
EndChar

StartChar: less
Encoding: 60 60 31
Width: 723
GlyphClass: 2
Flags: W
LayerCount: 2
Fore
SplineSet
253 380 m 1,0,-1
 598 150 l 1,1,2
 613 135 613 135 613 114 c 0,3,4
 613 94 613 94 598 79 c 128,-1,5
 583 64 583 64 563 64 c 0,6,7
 547 64 547 64 535 73 c 2,8,-1
 126 344 l 2,9,10
 113 357 113 357 113 380 c 128,-1,11
 113 403 113 403 126 416 c 2,12,-1
 535 687 l 2,13,14
 547 696 547 696 563 696 c 0,15,16
 583 696 583 696 598 681 c 128,-1,17
 613 666 613 666 613 646 c 0,18,19
 613 625 613 625 598 610 c 1,20,-1
 253 380 l 1,0,-1
EndSplineSet
Validated: 1
EndChar

StartChar: equal
Encoding: 61 61 32
Width: 723
GlyphClass: 2
Flags: W
LayerCount: 2
Fore
SplineSet
563 316 m 2,0,1
 583 316 583 316 598 301 c 128,-1,2
 613 286 613 286 613 266 c 128,-1,3
 613 246 613 246 598.5 231 c 128,-1,4
 584 216 584 216 563 216 c 2,5,-1
 163 216 l 2,6,7
 142 216 142 216 127.5 230.5 c 128,-1,8
 113 245 113 245 113 266 c 128,-1,9
 113 287 113 287 128 301.5 c 128,-1,10
 143 316 143 316 163 316 c 2,11,-1
 563 316 l 2,0,1
163 444 m 2,12,13
 143 444 143 444 128 458.5 c 128,-1,14
 113 473 113 473 113 494 c 128,-1,15
 113 515 113 515 127.5 529.5 c 128,-1,16
 142 544 142 544 163 544 c 2,17,-1
 563 544 l 2,18,19
 584 544 584 544 598.5 529 c 128,-1,20
 613 514 613 514 613 494 c 128,-1,21
 613 474 613 474 598 459 c 128,-1,22
 583 444 583 444 563 444 c 2,23,-1
 163 444 l 2,12,13
EndSplineSet
Validated: 1
EndChar

StartChar: greater
Encoding: 62 62 33
Width: 723
GlyphClass: 2
Flags: W
LayerCount: 2
Fore
SplineSet
473 380 m 1,0,-1
 128 610 l 1,1,2
 113 625 113 625 113 646 c 0,3,4
 113 666 113 666 128 681 c 128,-1,5
 143 696 143 696 163 696 c 0,6,7
 179 696 179 696 191 687 c 2,8,-1
 600 416 l 2,9,10
 613 403 613 403 613 380 c 128,-1,11
 613 357 613 357 600 344 c 2,12,-1
 191 73 l 2,13,14
 179 64 179 64 163 64 c 0,15,16
 143 64 143 64 128 79 c 128,-1,17
 113 94 113 94 113 114 c 0,18,19
 113 135 113 135 128 150 c 1,20,-1
 473 380 l 1,0,-1
EndSplineSet
Validated: 1
EndChar

StartChar: question
Encoding: 63 63 34
Width: 723
GlyphClass: 2
Flags: W
LayerCount: 2
Fore
SplineSet
290 29 m 2,0,1
 290 67 290 67 296 73 c 128,-1,2
 302 79 302 79 340 79 c 2,3,-1
 386 79 l 2,4,5
 424 79 424 79 430 72.5 c 128,-1,6
 436 66 436 66 436 29 c 2,7,-1
 436 -17 l 2,8,9
 436 -55 436 -55 430 -61 c 128,-1,10
 424 -67 424 -67 386 -67 c 2,11,-1
 340 -67 l 2,12,13
 302 -67 302 -67 296 -60.5 c 128,-1,14
 290 -54 290 -54 290 -17 c 2,15,-1
 290 29 l 2,0,1
356 714 m 0,16,17
 438 714 438 714 497 668 c 128,-1,18
 556 622 556 622 556 537 c 0,19,20
 555 492 555 492 532 445 c 128,-1,21
 509 398 509 398 479 366 c 0,22,23
 472 358 472 358 451 340 c 128,-1,24
 430 322 430 322 421 310 c 0,25,26
 413 300 413 300 413 291 c 0,27,28
 413 271 413 271 398 256 c 128,-1,29
 383 241 383 241 363 241 c 128,-1,30
 343 241 343 241 328 255.5 c 128,-1,31
 313 270 313 270 313 291 c 0,32,33
 313 317 313 317 323.5 339.5 c 128,-1,34
 334 362 334 362 345.5 374.5 c 128,-1,35
 357 387 357 387 377.5 406 c 128,-1,36
 398 425 398 425 406 434 c 0,37,38
 424 452 424 452 440 483 c 128,-1,39
 456 514 456 514 456 537 c 0,40,41
 456 595 456 595 377 613 c 0,42,43
 373 613 373 613 362.5 614.5 c 128,-1,44
 352 616 352 616 347 616 c 0,45,46
 241 600 241 600 241 531 c 2,47,-1
 241 523 l 2,48,49
 241 502 241 502 226.5 487.5 c 128,-1,50
 212 473 212 473 191 473 c 0,51,52
 171 473 171 473 157 487 c 128,-1,53
 143 501 143 501 141 520 c 2,54,-1
 141 529 l 2,55,56
 141 587 141 587 173 630.5 c 128,-1,57
 205 674 205 674 253 694 c 128,-1,58
 301 714 301 714 356 714 c 0,16,17
EndSplineSet
Validated: 1
EndChar

StartChar: at
Encoding: 64 64 35
Width: 723
GlyphClass: 2
Flags: W
LayerCount: 2
Fore
SplineSet
361 718 m 0,0,1
 362 718 362 718 363 718 c 0,2,3
 424 718 424 718 469 697 c 0,4,5
 515 676 515 676 541 639.5 c 128,-1,6
 567 603 567 603 584.5 554 c 128,-1,7
 602 505 602 505 606.5 450.5 c 128,-1,8
 611 396 611 396 614 339 c 0,9,10
 615 314 615 314 615 290 c 0,11,12
 615 259 615 259 613 229 c 0,13,14
 613 226 613 226 613 211.5 c 128,-1,15
 613 197 613 197 613 193.5 c 128,-1,16
 613 190 613 190 612.5 177 c 128,-1,17
 612 164 612 164 611.5 159 c 128,-1,18
 611 154 611 154 610 143 c 128,-1,19
 609 132 609 132 608 126 c 128,-1,20
 607 120 607 120 605 110.5 c 128,-1,21
 603 101 603 101 601 93.5 c 128,-1,22
 599 86 599 86 596 78 c 0,23,24
 580 33 580 33 537 5 c 0,25,26
 501 -18 501 -18 460 -18 c 0,27,28
 453 -18 453 -18 446 -18 c 0,29,30
 399 -14 399 -14 374 19 c 0,31,32
 374 20 374 20 372 19 c 0,33,34
 336 -17 336 -17 269 -19 c 0,35,36
 267 -19 267 -19 264 -19 c 0,37,38
 201 -19 201 -19 167 16 c 0,39,40
 114 67 114 67 113 195 c 0,41,42
 113 198 113 198 113 201 c 0,43,44
 113 230 113 230 116 256 c 0,45,46
 119 285 119 285 128 316.5 c 128,-1,47
 137 348 137 348 152 370.5 c 128,-1,48
 167 393 167 393 193 407 c 0,49,50
 218 421 218 421 251 421 c 0,51,52
 252 421 252 421 254 421 c 0,53,54
 257 421 257 421 259 421 c 0,55,56
 297 421 297 421 343 394 c 1,57,58
 356 415 356 415 378 418 c 0,59,60
 382 419 382 419 386 419 c 0,61,62
 403 419 403 419 418 407 c 0,63,64
 435 393 435 393 436 370 c 0,65,66
 436 369 436 369 436 330 c 0,67,68
 436 300 436 300 436 248 c 0,69,70
 436 180 436 180 436 149 c 0,71,72
 436 126 436 126 436 126 c 129,-1,73
 436 126 436 126 436 125 c 128,-1,74
 436 124 436 124 436 123 c 0,75,76
 436 115 436 115 438 108 c 0,77,78
 440 95 440 95 447.5 87 c 128,-1,79
 455 79 455 79 467 82 c 0,80,81
 493 86 493 86 504 116 c 0,82,83
 507 123 507 123 508.5 132.5 c 128,-1,84
 510 142 510 142 511 149.5 c 128,-1,85
 512 157 512 157 512.5 170 c 128,-1,86
 513 183 513 183 513 189 c 128,-1,87
 513 195 513 195 513 210 c 128,-1,88
 513 225 513 225 513 228 c 0,89,90
 513 238 513 238 513 254 c 0,91,92
 513 268 513 268 513 286 c 0,93,94
 513 312 513 312 513.5 329 c 128,-1,95
 514 346 514 346 513 354 c 0,96,97
 513 380 513 380 511 417 c 0,98,99
 508 455 508 455 503 481.5 c 128,-1,100
 498 508 498 508 486 537 c 128,-1,101
 474 566 474 566 457.5 583 c 128,-1,102
 441 600 441 600 414 610 c 0,103,104
 392 618 392 618 364 618 c 0,105,106
 358 618 358 618 353 618 c 0,107,108
 351 618 351 618 350 618 c 0,109,110
 285 618 285 618 249 592 c 0,111,112
 222 573 222 573 216 541 c 0,113,114
 214 515 214 515 195 502 c 0,115,116
 183 493 183 493 167.5 492.5 c 128,-1,117
 152 492 152 492 139 500 c 0,118,119
 116 513 116 513 116 541 c 2,120,121
 116 541 116 541 116 551 c 0,122,123
 124 608 124 608 163 647 c 128,-1,124
 202 686 202 686 253 703 c 0,125,126
 300 718 300 718 353 718 c 0,127,128
 357 718 357 718 361 718 c 0,0,1
336 135 m 0,129,130
 336 137 336 137 336 162 c 0,131,132
 336 186 336 186 336 212 c 0,133,134
 336 224 336 224 336 234 c 0,135,136
 336 247 336 247 336 257 c 0,137,138
 336 259 336 259 336 261 c 128,-1,139
 336 263 336 263 336 263 c 1,140,141
 330 274 330 274 323 284 c 0,142,143
 293 321 293 321 255 321 c 0,144,145
 241 321 241 321 231.5 311.5 c 128,-1,146
 222 302 222 302 218.5 283 c 128,-1,147
 215 264 215 264 214 251.5 c 128,-1,148
 213 239 213 239 213 220 c 0,149,150
 213 214 213 214 213 212 c 0,151,152
 214 199 214 199 213 182 c 0,153,154
 213 176 213 176 213 170 c 0,155,156
 213 159 213 159 214 148 c 0,157,158
 216 131 216 131 220 116.5 c 128,-1,159
 224 102 224 102 234.5 92 c 128,-1,160
 245 82 245 82 262 81 c 0,161,162
 265 81 265 81 267 81 c 0,163,164
 268 81 268 81 269 81 c 0,165,166
 312 81 312 81 336 135 c 0,129,130
EndSplineSet
Validated: 1
EndChar

StartChar: A
Encoding: 65 65 36
Width: 723
GlyphClass: 2
Flags: W
LayerCount: 2
Fore
SplineSet
443 676 m 2,0,-1
 608 40 l 1,1,2
 608 20 608 20 592.5 5 c 128,-1,3
 577 -10 577 -10 557 -10 c 0,4,5
 540 -10 540 -10 526.5 1 c 128,-1,6
 513 12 513 12 509 27 c 2,7,-1
 464 199 l 1,8,-1
 263 199 l 1,9,-1
 218 27 l 2,10,11
 214 12 214 12 200.5 1 c 128,-1,12
 187 -10 187 -10 170 -10 c 0,13,14
 150 -10 150 -10 134.5 5 c 128,-1,15
 119 20 119 20 119 40 c 1,16,-1
 284 676 l 2,17,18
 288 689 288 689 301 698 c 128,-1,19
 314 707 314 707 330 707 c 2,20,-1
 397 707 l 2,21,22
 413 707 413 707 426 698 c 128,-1,23
 439 689 439 689 443 676 c 2,0,-1
288 299 m 1,24,-1
 439 299 l 1,25,-1
 364 589 l 1,26,-1
 288 299 l 1,24,-1
EndSplineSet
Validated: 1
EndChar

StartChar: B
Encoding: 66 66 37
Width: 723
GlyphClass: 2
Flags: W
LayerCount: 2
Fore
SplineSet
538 366 m 1,0,1
 611 308 611 308 613 211 c 0,2,3
 613 164 613 164 593 121.5 c 128,-1,4
 573 79 573 79 536 51 c 0,5,6
 498 21 498 21 448.5 11 c 128,-1,7
 399 1 399 1 334 1 c 2,8,-1
 163 1 l 2,9,10
 143 1 143 1 128 15.5 c 128,-1,11
 113 30 113 30 113 51 c 2,12,-1
 113 651 l 2,13,14
 113 672 113 672 127.5 686.5 c 128,-1,15
 142 701 142 701 163 701 c 2,16,-1
 334 701 l 2,17,18
 371 701 371 701 393.5 700 c 128,-1,19
 416 699 416 699 447 692 c 128,-1,20
 478 685 478 685 502 672 c 0,21,22
 547 646 547 646 572.5 600 c 128,-1,23
 598 554 598 554 598 502 c 0,24,25
 598 419 598 419 538 366 c 1,0,1
213 601 m 1,26,-1
 213 416 l 1,27,-1
 363 416 l 2,28,29
 499 416 499 416 499 504 c 2,30,-1
 499 511 l 2,31,32
 496 540 496 540 482.5 558.5 c 128,-1,33
 469 577 469 577 445 586 c 128,-1,34
 421 595 421 595 396 598 c 128,-1,35
 371 601 371 601 334 601 c 2,36,-1
 213 601 l 1,26,-1
334 101 m 2,37,38
 513 101 513 101 513 211 c 0,39,40
 512 265 512 265 470.5 290.5 c 128,-1,41
 429 316 429 316 363 316 c 2,42,-1
 213 316 l 1,43,-1
 213 101 l 1,44,-1
 334 101 l 2,37,38
EndSplineSet
Validated: 1
EndChar

StartChar: C
Encoding: 67 67 38
Width: 723
GlyphClass: 2
Flags: W
LayerCount: 2
Fore
SplineSet
261 344 m 2,0,1
 262 311 262 311 264 285 c 128,-1,2
 266 259 266 259 270.5 227 c 128,-1,3
 275 195 275 195 284.5 172 c 128,-1,4
 294 149 294 149 308.5 128.5 c 128,-1,5
 323 108 323 108 345.5 97.5 c 128,-1,6
 368 87 368 87 397 87 c 0,7,8
 425 87 425 87 444.5 99.5 c 128,-1,9
 464 112 464 112 468 135 c 0,10,11
 471 152 471 152 485 164 c 128,-1,12
 499 176 499 176 517 176 c 0,13,14
 542 176 542 176 556 156 c 0,15,16
 566 141 566 141 566 123 c 0,17,18
 566 117 566 117 565 111 c 0,19,20
 555 55 555 55 505.5 21 c 128,-1,21
 456 -13 456 -13 397 -13 c 0,22,23
 343 -13 343 -13 301.5 7 c 128,-1,24
 260 27 260 27 234.5 60 c 128,-1,25
 209 93 209 93 192 140 c 128,-1,26
 175 187 175 187 168.5 236 c 128,-1,27
 162 285 162 285 161 342 c 2,28,-1
 161 361 l 2,29,30
 162 418 162 418 168.5 467 c 128,-1,31
 175 516 175 516 192 563 c 128,-1,32
 209 610 209 610 234.5 643 c 128,-1,33
 260 676 260 676 301.5 696 c 128,-1,34
 343 716 343 716 397 716 c 0,35,36
 456 716 456 716 505 682.5 c 128,-1,37
 554 649 554 649 565 592 c 0,38,39
 566 586 566 586 566 580 c 0,40,41
 566 562 566 562 556 547 c 0,42,43
 542 527 542 527 517 527 c 0,44,45
 499 527 499 527 485 539 c 128,-1,46
 471 551 471 551 468 568 c 0,47,48
 464 591 464 591 444.5 603.5 c 128,-1,49
 425 616 425 616 397 616 c 0,50,51
 368 616 368 616 345.5 605.5 c 128,-1,52
 323 595 323 595 308.5 574.5 c 128,-1,53
 294 554 294 554 284.5 531 c 128,-1,54
 275 508 275 508 270.5 476 c 128,-1,55
 266 444 266 444 264 418 c 128,-1,56
 262 392 262 392 261 359 c 2,57,-1
 261 344 l 2,0,1
EndSplineSet
Validated: 1
EndChar

StartChar: D
Encoding: 68 68 39
Width: 723
GlyphClass: 2
Flags: W
LayerCount: 2
Fore
SplineSet
517 549 m 0,0,1
 587 455 587 455 587 331 c 0,2,3
 587 203 587 203 514 116 c 128,-1,4
 441 29 441 29 326 8 c 0,5,6
 289 1 289 1 214 1 c 0,7,8
 194 1 194 1 179 16 c 128,-1,9
 164 31 164 31 164 51 c 2,10,-1
 164 651 l 2,11,12
 164 671 164 671 178.5 686 c 128,-1,13
 193 701 193 701 214 701 c 0,14,15
 319 701 319 701 391 661 c 128,-1,16
 463 621 463 621 517 549 c 0,0,1
264 103 m 1,17,18
 368 112 368 112 427.5 169.5 c 128,-1,19
 487 227 487 227 487 331 c 0,20,21
 487 405 487 405 454 463 c 128,-1,22
 421 521 421 521 368 559 c 0,23,24
 324 591 324 591 264 598 c 1,25,-1
 264 103 l 1,17,18
EndSplineSet
Validated: 1
EndChar

StartChar: E
Encoding: 69 69 40
Width: 723
GlyphClass: 2
Flags: W
LayerCount: 2
Fore
SplineSet
551 101 m 2,0,1
 572 101 572 101 586.5 86.5 c 128,-1,2
 601 72 601 72 601 51 c 128,-1,3
 601 30 601 30 586 15.5 c 128,-1,4
 571 1 571 1 551 1 c 2,5,-1
 209 1 l 2,6,7
 189 1 189 1 174 15.5 c 128,-1,8
 159 30 159 30 159 51 c 2,9,-1
 159 651 l 2,10,11
 159 672 159 672 173.5 686.5 c 128,-1,12
 188 701 188 701 209 701 c 2,13,-1
 551 701 l 2,14,15
 572 701 572 701 586.5 686.5 c 128,-1,16
 601 672 601 672 601 651 c 128,-1,17
 601 630 601 630 586 615.5 c 128,-1,18
 571 601 571 601 551 601 c 2,19,-1
 259 601 l 1,20,-1
 259 416 l 1,21,-1
 503 416 l 2,22,23
 523 416 523 416 538 401 c 128,-1,24
 553 386 553 386 553 366 c 128,-1,25
 553 346 553 346 538.5 331 c 128,-1,26
 524 316 524 316 503 316 c 2,27,-1
 259 316 l 1,28,-1
 259 101 l 1,29,-1
 551 101 l 2,0,1
EndSplineSet
Validated: 1
EndChar

StartChar: F
Encoding: 70 70 41
Width: 723
GlyphClass: 2
Flags: W
LayerCount: 2
Fore
SplineSet
534 601 m 2,0,-1
 310 601 l 1,1,-1
 310 416 l 1,2,-1
 489 416 l 2,3,4
 509 416 509 416 524 401 c 128,-1,5
 539 386 539 386 539 366 c 128,-1,6
 539 346 539 346 524 331 c 128,-1,7
 509 316 509 316 489 316 c 2,8,-1
 310 316 l 1,9,-1
 310 40 l 2,10,11
 310 20 310 20 295 5 c 128,-1,12
 280 -10 280 -10 260 -10 c 128,-1,13
 240 -10 240 -10 225 5 c 128,-1,14
 210 20 210 20 210 40 c 2,15,-1
 210 651 l 2,16,17
 210 671 210 671 224.5 686 c 128,-1,18
 239 701 239 701 260 701 c 2,19,-1
 534 701 l 2,20,21
 555 701 555 701 569.5 686.5 c 128,-1,22
 584 672 584 672 584 651 c 128,-1,23
 584 630 584 630 569 615.5 c 128,-1,24
 554 601 554 601 534 601 c 2,0,-1
EndSplineSet
Validated: 1
EndChar

StartChar: G
Encoding: 71 71 42
Width: 723
GlyphClass: 2
Flags: W
LayerCount: 2
Fore
SplineSet
546 379 m 2,0,1
 566 379 566 379 581 364 c 128,-1,2
 596 349 596 349 596 329 c 2,3,-1
 596 74 l 2,4,5
 596 24 596 24 491 -2 c 0,6,7
 441 -16 441 -16 398 -16 c 0,8,9
 343 -16 343 -16 294 3 c 128,-1,10
 245 22 245 22 212 57 c 0,11,12
 168 102 168 102 144.5 182 c 128,-1,13
 121 262 121 262 121 353 c 0,14,15
 121 442 121 442 144.5 519.5 c 128,-1,16
 168 597 168 597 212 641 c 0,17,18
 285 716 285 716 385 716 c 0,19,20
 408 716 408 716 427 712 c 0,21,22
 517 700 517 700 575 629 c 0,23,24
 587 615 587 615 587 597 c 0,25,26
 587 577 587 577 572 562 c 128,-1,27
 557 547 557 547 537 547 c 0,28,29
 515 547 515 547 499 565 c 0,30,31
 457 613 457 613 388 613 c 0,32,33
 326 613 326 613 284 570 c 0,34,35
 222 508 222 508 222 363 c 0,36,37
 222 266 222 266 250 188 c 0,38,39
 268 138 268 138 306.5 112.5 c 128,-1,40
 345 87 345 87 399 87 c 0,41,42
 445 87 445 87 496 105 c 1,43,-1
 496 279 l 1,44,-1
 383 279 l 2,45,46
 362 279 362 279 347.5 293.5 c 128,-1,47
 333 308 333 308 333 329 c 128,-1,48
 333 350 333 350 348 364.5 c 128,-1,49
 363 379 363 379 383 379 c 2,50,-1
 546 379 l 2,0,1
EndSplineSet
Validated: 1
EndChar

StartChar: H
Encoding: 72 72 43
Width: 723
GlyphClass: 2
Flags: W
LayerCount: 2
Fore
SplineSet
534 713 m 128,-1,1
 554 713 554 713 569 698.5 c 128,-1,2
 584 684 584 684 584 663 c 2,3,-1
 584 40 l 2,4,5
 584 19 584 19 569 4.5 c 128,-1,6
 554 -10 554 -10 534 -10 c 128,-1,7
 514 -10 514 -10 499 5 c 128,-1,8
 484 20 484 20 484 40 c 2,9,-1
 484 310 l 1,10,-1
 241 310 l 1,11,-1
 241 40 l 2,12,13
 241 19 241 19 226 4.5 c 128,-1,14
 211 -10 211 -10 191 -10 c 128,-1,15
 171 -10 171 -10 156 5 c 128,-1,16
 141 20 141 20 141 40 c 2,17,-1
 141 663 l 2,18,19
 141 683 141 683 156 698 c 128,-1,20
 171 713 171 713 191 713 c 128,-1,21
 211 713 211 713 226 698.5 c 128,-1,22
 241 684 241 684 241 663 c 2,23,-1
 241 410 l 1,24,-1
 484 410 l 1,25,-1
 484 663 l 2,26,27
 484 683 484 683 499 698 c 128,-1,0
 514 713 514 713 534 713 c 128,-1,1
EndSplineSet
Validated: 1
EndChar

StartChar: I
Encoding: 73 73 44
Width: 723
GlyphClass: 2
Flags: W
LayerCount: 2
Fore
SplineSet
506 101 m 2,0,1
 527 101 527 101 541.5 86 c 128,-1,2
 556 71 556 71 556 51 c 128,-1,3
 556 31 556 31 541 16 c 128,-1,4
 526 1 526 1 506 1 c 2,5,-1
 220 1 l 2,6,7
 200 1 200 1 185 16 c 128,-1,8
 170 31 170 31 170 51 c 128,-1,9
 170 71 170 71 184.5 86 c 128,-1,10
 199 101 199 101 220 101 c 2,11,-1
 313 101 l 1,12,-1
 313 601 l 1,13,-1
 240 601 l 2,14,15
 220 601 220 601 205 616 c 128,-1,16
 190 631 190 631 190 651 c 128,-1,17
 190 671 190 671 204.5 686 c 128,-1,18
 219 701 219 701 240 701 c 2,19,-1
 486 701 l 2,20,21
 507 701 507 701 521.5 686 c 128,-1,22
 536 671 536 671 536 651 c 128,-1,23
 536 631 536 631 521 616 c 128,-1,24
 506 601 506 601 486 601 c 2,25,-1
 413 601 l 1,26,-1
 413 101 l 1,27,-1
 506 101 l 2,0,1
EndSplineSet
Validated: 1
EndChar

StartChar: J
Encoding: 74 74 45
Width: 723
GlyphClass: 2
Flags: W
LayerCount: 2
Fore
SplineSet
440 713 m 128,-1,1
 460 713 460 713 475 698 c 128,-1,2
 490 683 490 683 490 663 c 2,3,-1
 490 146 l 2,4,5
 490 143 490 143 490 140 c 0,6,7
 482 76 482 76 430.5 30 c 128,-1,8
 379 -16 379 -16 313 -16 c 0,9,10
 268 -16 268 -16 225 7 c 0,11,12
 184 30 184 30 157 71.5 c 128,-1,13
 130 113 130 113 130 165 c 0,14,15
 130 184 130 184 134 201 c 0,16,17
 138 219 138 219 151 230 c 128,-1,18
 164 241 164 241 183 241 c 0,19,20
 204 241 204 241 218 226.5 c 128,-1,21
 232 212 232 212 232 191 c 2,22,-1
 232 186 l 2,23,24
 232 182 232 182 231 178 c 0,25,26
 230 170 230 170 230 166 c 0,27,28
 230 130 230 130 256.5 108 c 128,-1,29
 283 86 283 86 317 86 c 0,30,31
 347 86 347 86 368.5 106.5 c 128,-1,32
 390 127 390 127 390 166 c 2,33,-1
 390 663 l 2,34,35
 390 683 390 683 405 698 c 128,-1,0
 420 713 420 713 440 713 c 128,-1,1
EndSplineSet
Validated: 1
EndChar

StartChar: K
Encoding: 75 75 46
Width: 723
GlyphClass: 2
Flags: W
LayerCount: 2
Fore
SplineSet
598 75 m 2,0,1
 613 58 613 58 613 40 c 0,2,3
 613 20 613 20 598 5 c 128,-1,4
 583 -10 583 -10 563 -10 c 0,5,6
 542 -10 542 -10 527 5 c 2,7,-1
 227 315 l 1,8,-1
 227 40 l 2,9,10
 227 20 227 20 212 5 c 128,-1,11
 197 -10 197 -10 177 -10 c 128,-1,12
 157 -10 157 -10 142 5 c 128,-1,13
 127 20 127 20 127 40 c 2,14,-1
 127 663 l 2,15,16
 127 683 127 683 142 698 c 128,-1,17
 157 713 157 713 177 713 c 128,-1,18
 197 713 197 713 212 698 c 128,-1,19
 227 683 227 683 227 663 c 2,20,-1
 227 416 l 1,21,-1
 504 698 l 2,22,23
 519 713 519 713 540 713 c 0,24,25
 560 713 560 713 575 698 c 128,-1,26
 590 683 590 683 590 663 c 128,-1,27
 590 643 590 643 575 628 c 2,28,-1
 318 365 l 1,29,-1
 598 75 l 2,0,1
EndSplineSet
Validated: 1
EndChar

StartChar: L
Encoding: 76 76 47
Width: 723
GlyphClass: 2
Flags: W
LayerCount: 2
Fore
SplineSet
563 101 m 2,0,1
 584 101 584 101 598.5 86 c 128,-1,2
 613 71 613 71 613 51 c 128,-1,3
 613 31 613 31 598 16 c 128,-1,4
 583 1 583 1 563 1 c 2,5,-1
 191 1 l 2,6,7
 171 1 171 1 156 16 c 128,-1,8
 141 31 141 31 141 51 c 2,9,-1
 141 663 l 2,10,11
 141 683 141 683 156 698 c 128,-1,12
 171 713 171 713 191 713 c 128,-1,13
 211 713 211 713 226 698.5 c 128,-1,14
 241 684 241 684 241 663 c 2,15,-1
 241 101 l 1,16,-1
 563 101 l 2,0,1
EndSplineSet
Validated: 1
EndChar

StartChar: M
Encoding: 77 77 48
Width: 723
GlyphClass: 2
Flags: W
LayerCount: 2
Fore
SplineSet
563 713 m 2,0,1
 583 713 583 713 598 698 c 128,-1,2
 613 683 613 683 613 663 c 2,3,-1
 613 40 l 2,4,5
 613 20 613 20 598 5 c 128,-1,6
 583 -10 583 -10 563 -10 c 128,-1,7
 543 -10 543 -10 528 4.5 c 128,-1,8
 513 19 513 19 513 40 c 2,9,-1
 513 579 l 1,10,-1
 411 243 l 2,11,12
 405 228 405 228 392.5 217.5 c 128,-1,13
 380 207 380 207 363 207 c 0,14,15
 347 207 347 207 333.5 217.5 c 128,-1,16
 320 228 320 228 315 243 c 2,17,-1
 213 579 l 1,18,-1
 213 40 l 2,19,20
 213 20 213 20 198 5 c 128,-1,21
 183 -10 183 -10 163 -10 c 128,-1,22
 143 -10 143 -10 128 4.5 c 128,-1,23
 113 19 113 19 113 40 c 2,24,-1
 113 663 l 2,25,26
 113 684 113 684 128 698.5 c 128,-1,27
 143 713 143 713 163 713 c 2,28,-1
 240 713 l 2,29,30
 257 713 257 713 270 702.5 c 128,-1,31
 283 692 283 692 288 677 c 2,32,-1
 363 430 l 1,33,-1
 438 677 l 2,34,35
 442 692 442 692 455.5 702.5 c 128,-1,36
 469 713 469 713 486 713 c 2,37,-1
 563 713 l 2,0,1
EndSplineSet
Validated: 1
EndChar

StartChar: N
Encoding: 78 78 49
Width: 723
GlyphClass: 2
Flags: W
LayerCount: 2
Fore
SplineSet
549 713 m 128,-1,1
 569 713 569 713 584 698 c 128,-1,2
 599 683 599 683 599 663 c 2,3,-1
 599 40 l 2,4,5
 599 20 599 20 584 5 c 128,-1,6
 569 -10 569 -10 549 -10 c 2,7,-1
 511 -10 l 2,8,9
 480 -10 480 -10 466 18 c 2,10,-1
 227 520 l 1,11,-1
 227 40 l 2,12,13
 227 20 227 20 212 5 c 128,-1,14
 197 -10 197 -10 177 -10 c 128,-1,15
 157 -10 157 -10 142 5 c 128,-1,16
 127 20 127 20 127 40 c 2,17,-1
 127 663 l 2,18,19
 127 683 127 683 142 698 c 128,-1,20
 157 713 157 713 177 713 c 2,21,-1
 214 713 l 2,22,23
 245 713 245 713 259 684 c 2,24,-1
 499 182 l 1,25,-1
 499 663 l 2,26,27
 499 684 499 684 514 698.5 c 128,-1,0
 529 713 529 713 549 713 c 128,-1,1
EndSplineSet
Validated: 1
EndChar

StartChar: O
Encoding: 79 79 50
Width: 723
GlyphClass: 2
Flags: W
LayerCount: 2
Fore
SplineSet
363 721 m 128,-1,1
 421 721 421 721 469 689 c 128,-1,2
 517 657 517 657 547 604.5 c 128,-1,3
 577 552 577 552 593.5 487 c 128,-1,4
 610 422 610 422 610 354 c 128,-1,5
 610 286 610 286 593.5 221 c 128,-1,6
 577 156 577 156 547 103.5 c 128,-1,7
 517 51 517 51 469 19 c 128,-1,8
 421 -13 421 -13 363 -13 c 128,-1,9
 305 -13 305 -13 257 19 c 128,-1,10
 209 51 209 51 179 103.5 c 128,-1,11
 149 156 149 156 132.5 221 c 128,-1,12
 116 286 116 286 116 354 c 128,-1,13
 116 422 116 422 132.5 487 c 128,-1,14
 149 552 149 552 179 604.5 c 128,-1,15
 209 657 209 657 257 689 c 128,-1,0
 305 721 305 721 363 721 c 128,-1,1
363 87 m 128,-1,17
 400 87 400 87 429.5 112.5 c 128,-1,18
 459 138 459 138 476 179 c 128,-1,19
 493 220 493 220 501.5 265 c 128,-1,20
 510 310 510 310 510 354 c 128,-1,21
 510 398 510 398 501.5 443 c 128,-1,22
 493 488 493 488 476 529 c 128,-1,23
 459 570 459 570 429.5 595.5 c 128,-1,24
 400 621 400 621 363 621 c 128,-1,25
 326 621 326 621 296.5 595.5 c 128,-1,26
 267 570 267 570 250 529 c 128,-1,27
 233 488 233 488 224.5 443 c 128,-1,28
 216 398 216 398 216 354 c 128,-1,29
 216 310 216 310 224.5 265 c 128,-1,30
 233 220 233 220 250 179 c 128,-1,31
 267 138 267 138 296.5 112.5 c 128,-1,16
 326 87 326 87 363 87 c 128,-1,17
EndSplineSet
Validated: 1
EndChar

StartChar: P
Encoding: 80 80 51
Width: 723
GlyphClass: 2
Flags: W
LayerCount: 2
Fore
SplineSet
363 701 m 2,0,1
 474 701 474 701 543.5 648 c 128,-1,2
 613 595 613 595 613 495 c 2,3,-1
 613 484 l 2,4,5
 610 416 610 416 574 370 c 0,6,7
 512 287 512 287 363 287 c 2,8,-1
 241 287 l 1,9,-1
 241 40 l 2,10,11
 241 19 241 19 226 4.5 c 128,-1,12
 211 -10 211 -10 191 -10 c 128,-1,13
 171 -10 171 -10 156 5 c 128,-1,14
 141 20 141 20 141 40 c 2,15,-1
 141 651 l 2,16,17
 141 671 141 671 155.5 686 c 128,-1,18
 170 701 170 701 191 701 c 2,19,-1
 363 701 l 2,0,1
513 488 m 1,20,-1
 513 494 l 2,21,22
 513 527 513 527 498 552 c 128,-1,23
 483 577 483 577 457 589 c 0,24,25
 428 601 428 601 363 601 c 2,26,-1
 241 601 l 1,27,-1
 241 387 l 1,28,-1
 363 387 l 2,29,30
 508 387 508 387 513 488 c 1,20,-1
EndSplineSet
Validated: 1
EndChar

StartChar: Q
Encoding: 81 81 52
Width: 723
GlyphClass: 2
Flags: W
LayerCount: 2
Fore
SplineSet
602 71 m 2,0,1
 613 57 613 57 613 40 c 0,2,3
 613 20 613 20 597.5 5 c 128,-1,4
 582 -10 582 -10 562 -10 c 0,5,6
 537 -10 537 -10 526 5 c 2,7,-1
 472 75 l 1,8,9
 459 64 459 64 444 56 c 0,10,11
 402 32 402 32 355 32 c 2,12,-1
 344 32 l 2,13,14
 297 32 297 32 255 56 c 0,15,16
 188 92 188 92 151.5 180.5 c 128,-1,17
 115 269 115 269 114 374 c 0,18,19
 115 479 115 479 151.5 567.5 c 128,-1,20
 188 656 188 656 255 692 c 0,21,22
 297 716 297 716 344 716 c 2,23,-1
 355 716 l 2,24,25
 402 716 402 716 444 692 c 0,26,27
 511 656 511 656 547.5 567.5 c 128,-1,28
 584 479 584 479 585 374 c 0,29,30
 584 249 584 249 536 156 c 1,31,-1
 537 155 l 1,32,-1
 602 71 l 2,0,1
349 132 m 0,33,34
 383 132 383 132 412 154 c 1,35,-1
 315 278 l 2,36,37
 304 292 304 292 304 309 c 0,38,39
 304 329 304 329 319 344 c 128,-1,40
 334 359 334 359 354 359 c 0,41,42
 379 359 379 359 391 344 c 2,43,-1
 469 243 l 1,44,45
 489 302 489 302 490 374 c 0,46,47
 490 437 490 437 474.5 490.5 c 128,-1,48
 459 544 459 544 426.5 580 c 128,-1,49
 394 616 394 616 349 616 c 128,-1,50
 304 616 304 616 272 580 c 128,-1,51
 240 544 240 544 224.5 490.5 c 128,-1,52
 209 437 209 437 209 374 c 128,-1,53
 209 311 209 311 224.5 257.5 c 128,-1,54
 240 204 240 204 272 168 c 128,-1,55
 304 132 304 132 349 132 c 0,33,34
EndSplineSet
Validated: 1
EndChar

StartChar: R
Encoding: 82 82 53
Width: 723
GlyphClass: 2
Flags: W
LayerCount: 2
Fore
SplineSet
584 65 m 2,0,1
 590 55 590 55 590 40 c 0,2,3
 590 20 590 20 575 5 c 128,-1,4
 560 -10 560 -10 540 -10 c 0,5,6
 516 -10 516 -10 503 4 c 1,7,-1
 339 287 l 1,8,-1
 253 287 l 1,9,-1
 253 40 l 2,10,11
 253 20 253 20 238 5 c 128,-1,12
 223 -10 223 -10 203 -10 c 128,-1,13
 183 -10 183 -10 168 4.5 c 128,-1,14
 153 19 153 19 153 40 c 2,15,-1
 153 651 l 2,16,17
 153 672 153 672 167.5 686.5 c 128,-1,18
 182 701 182 701 203 701 c 2,19,-1
 367 701 l 1,20,21
 418 697 418 697 465.5 679 c 128,-1,22
 513 661 513 661 548.5 625 c 128,-1,23
 584 589 584 589 584 543 c 0,24,25
 584 454 584 454 551 389.5 c 128,-1,26
 518 325 518 325 448 299 c 1,27,-1
 584 65 l 2,0,1
363 387 m 2,28,29
 418 387 418 387 445 410 c 0,30,31
 470 431 470 431 477 463 c 128,-1,32
 484 495 484 495 484 543 c 0,33,34
 484 557 484 557 453 573 c 0,35,36
 409 598 409 598 361 601 c 2,37,-1
 253 601 l 1,38,-1
 253 387 l 1,39,-1
 363 387 l 2,28,29
EndSplineSet
Validated: 1
EndChar

StartChar: S
Encoding: 83 83 54
Width: 723
GlyphClass: 2
Flags: W
LayerCount: 2
Fore
SplineSet
329 438 m 0,0,1
 345 430 345 430 376 416 c 128,-1,2
 407 402 407 402 426 392.5 c 128,-1,3
 445 383 445 383 471.5 367.5 c 128,-1,4
 498 352 498 352 514.5 336 c 128,-1,5
 531 320 531 320 547.5 298.5 c 128,-1,6
 564 277 564 277 571.5 249.5 c 128,-1,7
 579 222 579 222 579 189 c 0,8,9
 579 109 579 109 527 54 c 128,-1,10
 475 -1 475 -1 394 -12 c 0,11,12
 374 -15 374 -15 354 -15 c 0,13,14
 297 -15 297 -15 249 10.5 c 128,-1,15
 201 36 201 36 173 79 c 0,16,17
 147 121 147 121 147 160 c 0,18,19
 147 180 147 180 162 195 c 128,-1,20
 177 210 177 210 197 210 c 0,21,22
 216 210 216 210 229.5 197.5 c 128,-1,23
 243 185 243 185 247 167 c 0,24,25
 252 128 252 128 283.5 107 c 128,-1,26
 315 86 315 86 357 86 c 0,27,28
 409 86 409 86 445 113 c 0,29,30
 479 141 479 141 479 189 c 0,31,32
 479 211 479 211 473 227.5 c 128,-1,33
 467 244 467 244 453 256.5 c 128,-1,34
 439 269 439 269 428 276 c 128,-1,35
 417 283 417 283 397 293 c 0,36,37
 382 301 382 301 351.5 314.5 c 128,-1,38
 321 328 321 328 303 337.5 c 128,-1,39
 285 347 285 347 258.5 362.5 c 128,-1,40
 232 378 232 378 216 393.5 c 128,-1,41
 200 409 200 409 184 430 c 128,-1,42
 168 451 168 451 160.5 478 c 128,-1,43
 153 505 153 505 153 537 c 0,44,45
 153 590 153 590 184 632 c 0,46,47
 213 672 213 672 262 694 c 128,-1,48
 311 716 311 716 368 716 c 0,49,50
 445 716 445 716 498 679 c 128,-1,51
 551 642 551 642 568 579 c 0,52,53
 570 572 570 572 570 566 c 0,54,55
 570 550 570 550 559 536 c 0,56,57
 544 516 544 516 520 516 c 0,58,59
 499 516 499 516 486.5 529.5 c 128,-1,60
 474 543 474 543 464.5 564 c 128,-1,61
 455 585 455 585 445 593 c 0,62,63
 418 616 418 616 364 616 c 0,64,65
 320 613 320 613 286.5 592.5 c 128,-1,66
 253 572 253 572 253 537 c 0,67,68
 253 517 253 517 259 501.5 c 128,-1,69
 265 486 265 486 278.5 473.5 c 128,-1,70
 292 461 292 461 301 455 c 128,-1,71
 310 449 310 449 329 438 c 0,0,1
EndSplineSet
Validated: 1
EndChar

StartChar: T
Encoding: 84 84 55
Width: 723
GlyphClass: 2
Flags: W
LayerCount: 2
Fore
SplineSet
563 701 m 2,0,1
 584 701 584 701 598.5 686 c 128,-1,2
 613 671 613 671 613 651 c 128,-1,3
 613 631 613 631 598 616 c 128,-1,4
 583 601 583 601 563 601 c 2,5,-1
 413 601 l 1,6,-1
 413 40 l 2,7,8
 413 20 413 20 398 5 c 128,-1,9
 383 -10 383 -10 363 -10 c 128,-1,10
 343 -10 343 -10 328 4.5 c 128,-1,11
 313 19 313 19 313 40 c 2,12,-1
 313 601 l 1,13,-1
 163 601 l 2,14,15
 143 601 143 601 128 615.5 c 128,-1,16
 113 630 113 630 113 651 c 128,-1,17
 113 672 113 672 127.5 686.5 c 128,-1,18
 142 701 142 701 163 701 c 2,19,-1
 563 701 l 2,0,1
EndSplineSet
Validated: 1
EndChar

StartChar: U
Encoding: 85 85 56
Width: 723
GlyphClass: 2
Flags: W
LayerCount: 2
Fore
SplineSet
549 713 m 128,-1,1
 569 713 569 713 584 698 c 128,-1,2
 599 683 599 683 599 663 c 2,3,-1
 599 211 l 2,4,5
 599 154 599 154 574.5 104 c 128,-1,6
 550 54 550 54 505 24 c 0,7,8
 449 -13 449 -13 363 -13 c 128,-1,9
 277 -13 277 -13 221 24 c 0,10,11
 176 54 176 54 151.5 104 c 128,-1,12
 127 154 127 154 127 211 c 2,13,-1
 127 663 l 2,14,15
 127 683 127 683 142 698 c 128,-1,16
 157 713 157 713 177 713 c 128,-1,17
 197 713 197 713 212 698 c 128,-1,18
 227 683 227 683 227 663 c 2,19,-1
 227 211 l 2,20,21
 227 140 227 140 276 107 c 0,22,23
 307 87 307 87 363 87 c 0,24,25
 426 87 426 87 462.5 120 c 128,-1,26
 499 153 499 153 499 211 c 2,27,-1
 499 663 l 2,28,29
 499 684 499 684 514 698.5 c 128,-1,0
 529 713 529 713 549 713 c 128,-1,1
EndSplineSet
Validated: 1
EndChar

StartChar: V
Encoding: 86 86 57
Width: 723
GlyphClass: 2
Flags: W
LayerCount: 2
Fore
SplineSet
563 713 m 0,0,1
 583 713 583 713 598.5 698 c 128,-1,2
 614 683 614 683 614 663 c 1,3,-1
 445 27 l 2,4,5
 441 12 441 12 427.5 1 c 128,-1,6
 414 -10 414 -10 397 -10 c 2,7,-1
 329 -10 l 2,8,9
 312 -10 312 -10 297.5 1 c 128,-1,10
 283 12 283 12 279 27 c 2,11,-1
 112 663 l 1,12,13
 112 683 112 683 127.5 698 c 128,-1,14
 143 713 143 713 163 713 c 0,15,16
 180 713 180 713 193.5 702 c 128,-1,17
 207 691 207 691 211 676 c 2,18,-1
 363 105 l 1,19,-1
 514 676 l 2,20,21
 527 713 527 713 563 713 c 0,0,1
EndSplineSet
Validated: 1
EndChar

StartChar: W
Encoding: 87 87 58
Width: 723
GlyphClass: 2
Flags: W
LayerCount: 2
Fore
SplineSet
563 713 m 128,-1,1
 583 713 583 713 598 699 c 128,-1,2
 613 685 613 685 613 665 c 2,3,-1
 613 663 l 1,4,5
 606 461 606 461 592.5 312 c 128,-1,6
 579 163 579 163 550 29 c 0,7,8
 546 13 546 13 532.5 1.5 c 128,-1,9
 519 -10 519 -10 500 -10 c 2,10,-1
 472 -10 l 2,11,12
 435 -10 435 -10 424 26 c 2,13,-1
 363 237 l 1,14,-1
 302 26 l 2,15,16
 291 -10 291 -10 254 -10 c 2,17,-1
 226 -10 l 2,18,19
 207 -10 207 -10 193.5 1.5 c 128,-1,20
 180 13 180 13 176 29 c 0,21,22
 147 163 147 163 133.5 312 c 128,-1,23
 120 461 120 461 113 663 c 1,24,-1
 113 665 l 2,25,26
 113 685 113 685 128 699 c 128,-1,27
 143 713 143 713 163 713 c 128,-1,28
 183 713 183 713 197.5 698 c 128,-1,29
 212 683 212 683 213 663 c 0,30,31
 224 367 224 367 248 199 c 1,32,-1
 307 403 l 2,33,34
 320 436 320 436 354 436 c 2,35,-1
 372 436 l 2,36,37
 406 436 406 436 419 403 c 2,38,-1
 478 199 l 1,39,40
 502 367 502 367 513 663 c 0,41,42
 514 683 514 683 528.5 698 c 128,-1,0
 543 713 543 713 563 713 c 128,-1,1
EndSplineSet
Validated: 1
EndChar

StartChar: X
Encoding: 88 88 59
Width: 723
GlyphClass: 2
Flags: W
LayerCount: 2
Fore
SplineSet
587 64 m 2,0,1
 593 54 593 54 593 40 c 0,2,3
 593 20 593 20 578 5 c 128,-1,4
 563 -10 563 -10 543 -10 c 0,5,6
 519 -10 519 -10 505 4 c 1,7,-1
 363 266 l 1,8,-1
 227 16 l 1,9,10
 208 -10 208 -10 183 -10 c 0,11,12
 163 -10 163 -10 148 4.5 c 128,-1,13
 133 19 133 19 133 40 c 0,14,15
 133 54 133 54 139 64 c 2,16,-1
 300 360 l 1,17,-1
 145 638 l 2,18,19
 139 650 139 650 139 663 c 0,20,21
 139 684 139 684 154 698.5 c 128,-1,22
 169 713 169 713 189 713 c 0,23,24
 211 713 211 713 225 699 c 1,25,-1
 363 452 l 1,26,-1
 493 687 l 1,27,28
 513 713 513 713 537 713 c 0,29,30
 557 713 557 713 572 698 c 128,-1,31
 587 683 587 683 587 663 c 0,32,33
 587 650 587 650 581 638 c 2,34,-1
 426 360 l 1,35,-1
 587 64 l 2,0,1
EndSplineSet
Validated: 1
EndChar

StartChar: Y
Encoding: 89 89 60
Width: 723
GlyphClass: 2
Flags: W
LayerCount: 2
Fore
SplineSet
540 713 m 0,0,1
 560 713 560 713 575 698 c 128,-1,2
 590 683 590 683 590 663 c 0,3,4
 590 649 590 649 584 639 c 2,5,-1
 413 319 l 1,6,-1
 413 40 l 2,7,8
 413 20 413 20 398 5 c 128,-1,9
 383 -10 383 -10 363 -10 c 128,-1,10
 343 -10 343 -10 328 4.5 c 128,-1,11
 313 19 313 19 313 40 c 2,12,-1
 313 319 l 1,13,-1
 142 639 l 2,14,15
 136 649 136 649 136 663 c 0,16,17
 136 684 136 684 151 698.5 c 128,-1,18
 166 713 166 713 186 713 c 0,19,20
 214 713 214 713 230 686 c 2,21,-1
 363 437 l 1,22,-1
 496 686 l 2,23,24
 500 697 500 697 513 705 c 128,-1,25
 526 713 526 713 540 713 c 0,0,1
EndSplineSet
Validated: 1
EndChar

StartChar: Z
Encoding: 90 90 61
Width: 723
GlyphClass: 2
Flags: W
LayerCount: 2
Fore
SplineSet
534 101 m 2,0,1
 555 101 555 101 569.5 86.5 c 128,-1,2
 584 72 584 72 584 51 c 128,-1,3
 584 30 584 30 569 15.5 c 128,-1,4
 554 1 554 1 534 1 c 2,5,-1
 191 1 l 2,6,7
 171 1 171 1 156 16 c 128,-1,8
 141 31 141 31 141 51 c 0,9,10
 141 63 141 63 147 74 c 2,11,-1
 418 601 l 1,12,-1
 194 601 l 2,13,14
 174 601 174 601 159 616 c 128,-1,15
 144 631 144 631 144 651 c 128,-1,16
 144 671 144 671 158.5 686 c 128,-1,17
 173 701 173 701 194 701 c 2,18,-1
 500 701 l 2,19,20
 520 701 520 701 535 686 c 128,-1,21
 550 671 550 671 550 651 c 0,22,23
 550 639 550 639 544 628 c 2,24,-1
 273 101 l 1,25,-1
 534 101 l 2,0,1
EndSplineSet
Validated: 1
EndChar

StartChar: bracketleft
Encoding: 91 91 62
Width: 723
GlyphClass: 2
Flags: W
LayerCount: 2
Fore
SplineSet
546 87 m 2,0,1
 566 87 566 87 581 72 c 128,-1,2
 596 57 596 57 596 37 c 128,-1,3
 596 17 596 17 581 2 c 128,-1,4
 566 -13 566 -13 546 -13 c 2,5,-1
 260 -13 l 2,6,7
 240 -13 240 -13 225 2 c 128,-1,8
 210 17 210 17 210 37 c 2,9,-1
 210 723 l 2,10,11
 210 743 210 743 225 758 c 128,-1,12
 240 773 240 773 260 773 c 2,13,-1
 546 773 l 2,14,15
 566 773 566 773 581 758 c 128,-1,16
 596 743 596 743 596 723 c 128,-1,17
 596 703 596 703 581.5 688 c 128,-1,18
 567 673 567 673 546 673 c 2,19,-1
 310 673 l 1,20,-1
 310 87 l 1,21,-1
 546 87 l 2,0,1
EndSplineSet
Validated: 1
EndChar

StartChar: backslash
Encoding: 92 92 63
Width: 723
GlyphClass: 2
Flags: W
LayerCount: 2
Fore
SplineSet
549 56 m 2,0,1
 553 48 553 48 553 37 c 0,2,3
 553 17 553 17 538 2 c 128,-1,4
 523 -13 523 -13 503 -13 c 0,5,6
 470 -13 470 -13 457 18 c 2,7,-1
 177 704 l 2,8,9
 173 712 173 712 173 723 c 0,10,11
 173 744 173 744 188 758.5 c 128,-1,12
 203 773 203 773 223 773 c 0,13,14
 237 773 237 773 250.5 764 c 128,-1,15
 264 755 264 755 269 742 c 2,16,-1
 549 56 l 2,0,1
EndSplineSet
Validated: 1
EndChar

StartChar: bracketright
Encoding: 93 93 64
Width: 723
GlyphClass: 2
Flags: W
LayerCount: 2
Fore
SplineSet
260 673 m 2,0,1
 240 673 240 673 225 688 c 128,-1,2
 210 703 210 703 210 723 c 128,-1,3
 210 743 210 743 225 758 c 128,-1,4
 240 773 240 773 260 773 c 2,5,-1
 546 773 l 2,6,7
 566 773 566 773 581 758 c 128,-1,8
 596 743 596 743 596 723 c 2,9,-1
 596 37 l 2,10,11
 596 17 596 17 581 2 c 128,-1,12
 566 -13 566 -13 546 -13 c 2,13,-1
 260 -13 l 2,14,15
 240 -13 240 -13 225 2 c 128,-1,16
 210 17 210 17 210 37 c 128,-1,17
 210 57 210 57 224.5 72 c 128,-1,18
 239 87 239 87 260 87 c 2,19,-1
 496 87 l 1,20,-1
 496 673 l 1,21,-1
 260 673 l 2,0,1
EndSplineSet
Validated: 1
EndChar

StartChar: asciicircum
Encoding: 94 94 65
Width: 723
GlyphClass: 2
Flags: W
LayerCount: 2
Fore
SplineSet
604 445 m 2,0,1
 613 433 613 433 613 417 c 0,2,3
 613 397 613 397 598 382 c 128,-1,4
 583 367 583 367 563 367 c 0,5,6
 542 367 542 367 527 382 c 2,7,-1
 363 555 l 1,8,-1
 199 382 l 2,9,10
 184 367 184 367 163 367 c 0,11,12
 143 367 143 367 128 382 c 128,-1,13
 113 397 113 397 113 417 c 0,14,15
 113 433 113 433 122 445 c 2,16,-1
 327 753 l 2,17,18
 337 767 337 767 363 767 c 128,-1,19
 389 767 389 767 399 753 c 2,20,-1
 604 445 l 2,0,1
EndSplineSet
Validated: 1
EndChar

StartChar: underscore
Encoding: 95 95 66
Width: 723
GlyphClass: 2
Flags: W
LayerCount: 2
Fore
SplineSet
563 -71 m 2,0,1
 583 -71 583 -71 598 -86 c 128,-1,2
 613 -101 613 -101 613 -121 c 2,3,-1
 613 -150 l 2,4,5
 613 -170 613 -170 598 -185 c 128,-1,6
 583 -200 583 -200 563 -200 c 2,7,-1
 163 -200 l 2,8,9
 143 -200 143 -200 128 -185.5 c 128,-1,10
 113 -171 113 -171 113 -150 c 2,11,-1
 113 -121 l 2,12,13
 113 -100 113 -100 128 -85.5 c 128,-1,14
 143 -71 143 -71 163 -71 c 2,15,-1
 563 -71 l 2,0,1
EndSplineSet
Validated: 1
EndChar

StartChar: grave
Encoding: 96 96 67
Width: 723
GlyphClass: 2
Flags: W
LayerCount: 2
Fore
SplineSet
405 661 m 2,0,1
 413 648 413 648 413 634 c 0,2,3
 413 614 413 614 398 599 c 128,-1,4
 383 584 383 584 363 584 c 0,5,6
 341 584 341 584 326 599 c 1,7,-1
 266 693 l 2,8,9
 259 704 259 704 259 720 c 0,10,11
 259 741 259 741 274 755.5 c 128,-1,12
 289 770 289 770 309 770 c 0,13,14
 336 770 336 770 345 756 c 2,15,-1
 405 661 l 2,0,1
EndSplineSet
Validated: 1
Substitution2: "'ss01' Style Set 1 in Latin lookup 1 subtable" grave.alt
AlternateSubs2: "'aalt' Access All Alternates in Latin lookup 0 subtable" grave grave.alt
EndChar

StartChar: a
Encoding: 97 97 68
Width: 723
GlyphClass: 2
Flags: W
LayerCount: 2
Fore
SplineSet
514 494 m 0,0,1
 576 435 576 435 576 347 c 2,2,-1
 576 37 l 2,3,4
 576 17 576 17 561 2 c 128,-1,5
 546 -13 546 -13 526 -13 c 128,-1,6
 506 -13 506 -13 491 1.5 c 128,-1,7
 476 16 476 16 476 37 c 2,8,-1
 476 45 l 1,9,10
 401 -16 401 -16 316 -16 c 2,11,-1
 302 -16 l 1,12,13
 234 -10 234 -10 180.5 36.5 c 128,-1,14
 127 83 127 83 127 154 c 0,15,16
 127 190 127 190 137.5 218.5 c 128,-1,17
 148 247 148 247 165 266 c 128,-1,18
 182 285 182 285 210 298.5 c 128,-1,19
 238 312 238 312 265 320 c 128,-1,20
 292 328 292 328 331 332 c 128,-1,21
 370 336 370 336 401 337.5 c 128,-1,22
 432 339 432 339 476 339 c 1,23,24
 470 398 470 398 446 420 c 0,25,26
 421 444 421 444 363 444 c 0,27,28
 301 444 301 444 254 406 c 0,29,30
 241 396 241 396 223 396 c 0,31,32
 202 396 202 396 187.5 410.5 c 128,-1,33
 173 425 173 425 173 446 c 0,34,35
 173 457 173 457 178 469 c 128,-1,36
 183 481 183 481 192 485 c 0,37,38
 268 544 268 544 363 544 c 0,39,40
 460 544 460 544 514 494 c 0,0,1
476 200 m 1,41,-1
 476 240 l 1,42,43
 432 242 432 242 407 242 c 0,44,45
 369 242 369 242 340 238.5 c 128,-1,46
 311 235 311 235 284 226 c 128,-1,47
 257 217 257 217 242 199 c 128,-1,48
 227 181 227 181 227 154 c 0,49,50
 227 124 227 124 253.5 105 c 128,-1,51
 280 86 280 86 309 84 c 2,52,-1
 317 84 l 2,53,54
 405 84 405 84 476 200 c 1,41,-1
EndSplineSet
Validated: 1
EndChar

StartChar: b
Encoding: 98 98 69
Width: 723
GlyphClass: 2
Flags: W
LayerCount: 2
Fore
SplineSet
432 531 m 0,0,1
 515 511 515 511 563 447 c 128,-1,2
 611 383 611 383 613 287 c 0,3,4
 613 202 613 202 589.5 135.5 c 128,-1,5
 566 69 566 69 513.5 26.5 c 128,-1,6
 461 -16 461 -16 385 -16 c 0,7,8
 367 -16 367 -16 358 -15 c 0,9,10
 286 -8 286 -8 224 41 c 1,11,-1
 224 37 l 2,12,13
 224 16 224 16 209 1.5 c 128,-1,14
 194 -13 194 -13 174 -13 c 128,-1,15
 154 -13 154 -13 139 2 c 128,-1,16
 124 17 124 17 124 37 c 2,17,-1
 124 723 l 2,18,19
 124 743 124 743 139 758 c 128,-1,20
 154 773 154 773 174 773 c 128,-1,21
 194 773 194 773 209 758.5 c 128,-1,22
 224 744 224 744 224 723 c 2,23,-1
 224 485 l 1,24,25
 292 539 292 539 371 539 c 0,26,27
 398 539 398 539 432 531 c 0,0,1
450 105 m 0,28,29
 513 149 513 149 513 285 c 0,30,31
 511 346 511 346 474.5 394 c 128,-1,32
 438 442 438 442 383 442 c 0,33,34
 357 442 357 442 326 428 c 0,35,36
 261 399 261 399 224 325 c 1,37,-1
 224 201 l 1,38,39
 244 153 244 153 287 118 c 128,-1,40
 330 83 330 83 379 83 c 0,41,42
 415 83 415 83 450 105 c 0,28,29
EndSplineSet
Validated: 1
EndChar

StartChar: c
Encoding: 99 99 70
Width: 723
GlyphClass: 2
Flags: W
LayerCount: 2
Fore
SplineSet
376 438 m 0,0,1
 271 438 271 438 267 260 c 1,2,3
 271 82 271 82 376 82 c 0,4,5
 408 82 408 82 435 95.5 c 128,-1,6
 462 109 462 109 468 137 c 0,7,8
 474 153 474 153 486.5 164.5 c 128,-1,9
 499 176 499 176 517 176 c 0,10,11
 537 176 537 176 551.5 161 c 128,-1,12
 566 146 566 146 566 126 c 2,13,-1
 566 114 l 1,14,15
 552 57 552 57 500 19.5 c 128,-1,16
 448 -18 448 -18 382 -18 c 0,17,18
 331 -18 331 -18 282 7 c 0,19,20
 171 70 171 70 167 260 c 1,21,22
 171 450 171 450 282 513 c 0,23,24
 331 538 331 538 382 538 c 0,25,26
 448 538 448 538 500 500.5 c 128,-1,27
 552 463 552 463 566 406 c 1,28,-1
 566 394 l 2,29,30
 566 374 566 374 551.5 359 c 128,-1,31
 537 344 537 344 517 344 c 0,32,33
 499 344 499 344 486.5 355.5 c 128,-1,34
 474 367 474 367 468 383 c 0,35,36
 462 411 462 411 435 424.5 c 128,-1,37
 408 438 408 438 376 438 c 0,0,1
EndSplineSet
Validated: 1
EndChar

StartChar: d
Encoding: 100 100 71
Width: 723
GlyphClass: 2
Flags: W
LayerCount: 2
Fore
SplineSet
551 773 m 128,-1,1
 571 773 571 773 586 758.5 c 128,-1,2
 601 744 601 744 601 723 c 2,3,-1
 601 36 l 2,4,5
 601 15 601 15 586.5 1 c 128,-1,6
 572 -13 572 -13 551 -13 c 0,7,8
 531 -13 531 -13 516.5 1.5 c 128,-1,9
 502 16 502 16 501 36 c 1,10,11
 434 -15 434 -15 350 -15 c 0,12,13
 321 -15 321 -15 293 -9 c 0,14,15
 204 12 204 12 158.5 85 c 128,-1,16
 113 158 113 158 113 269 c 0,17,18
 113 371 113 371 160.5 439.5 c 128,-1,19
 208 508 208 508 293 531 c 0,20,21
 318 539 318 539 350 539 c 0,22,23
 430 539 430 539 501 485 c 1,24,-1
 501 723 l 2,25,26
 501 743 501 743 516 758 c 128,-1,0
 531 773 531 773 551 773 c 128,-1,1
501 200 m 1,27,-1
 501 328 l 1,28,29
 479 373 479 373 437.5 406.5 c 128,-1,30
 396 440 396 440 349 440 c 0,31,32
 312 440 312 440 275 415 c 0,33,34
 213 375 213 375 213 269 c 0,35,36
 213 193 213 193 246.5 137 c 128,-1,37
 280 81 280 81 341 81 c 0,38,39
 370 81 370 81 400 94 c 0,40,41
 477 127 477 127 501 200 c 1,27,-1
EndSplineSet
Validated: 1
EndChar

StartChar: e
Encoding: 101 101 72
Width: 723
GlyphClass: 2
Flags: W
LayerCount: 2
Fore
SplineSet
368 544 m 2,0,1
 479 544 479 544 539 472.5 c 128,-1,2
 599 401 599 401 599 286 c 0,3,4
 599 266 599 266 584 251 c 128,-1,5
 569 236 569 236 549 236 c 2,6,-1
 229 236 l 1,7,8
 236 165 236 165 273 124.5 c 128,-1,9
 310 84 310 84 378 84 c 0,10,11
 436 84 436 84 462 110 c 0,12,13
 476 124 476 124 496 124 c 0,14,15
 517 124 517 124 532 109.5 c 128,-1,16
 547 95 547 95 547 74 c 0,17,18
 547 28 547 28 499.5 6.5 c 128,-1,19
 452 -15 452 -15 385 -15 c 0,20,21
 331 -15 331 -15 290 -2 c 0,22,23
 211 25 211 25 169 97.5 c 128,-1,24
 127 170 127 170 127 274 c 0,25,26
 127 389 127 389 190 465.5 c 128,-1,27
 253 542 253 542 362 544 c 2,28,-1
 368 544 l 2,0,1
234 336 m 1,29,-1
 491 336 l 1,30,31
 480 392 480 392 452.5 418 c 128,-1,32
 425 444 425 444 364 444 c 0,33,34
 264 444 264 444 234 336 c 1,29,-1
EndSplineSet
Validated: 1
EndChar

StartChar: f
Encoding: 102 102 73
Width: 723
GlyphClass: 2
Flags: W
LayerCount: 2
Fore
SplineSet
529 533 m 2,0,1
 549 533 549 533 564 518 c 128,-1,2
 579 503 579 503 579 483 c 128,-1,3
 579 463 579 463 564 448 c 128,-1,4
 549 433 549 433 529 433 c 2,5,-1
 407 433 l 1,6,-1
 413 37 l 2,7,8
 413 17 413 17 398 2 c 128,-1,9
 383 -13 383 -13 363 -13 c 128,-1,10
 343 -13 343 -13 328 1.5 c 128,-1,11
 313 16 313 16 313 37 c 2,12,-1
 307 433 l 1,13,-1
 197 433 l 2,14,15
 176 433 176 433 161.5 448 c 128,-1,16
 147 463 147 463 147 483 c 128,-1,17
 147 503 147 503 162 518 c 128,-1,18
 177 533 177 533 197 533 c 2,19,-1
 307 533 l 1,20,-1
 307 543 l 2,21,22
 307 770 307 770 526 770 c 0,23,24
 546 770 546 770 561 755 c 128,-1,25
 576 740 576 740 576 720 c 128,-1,26
 576 700 576 700 561 685 c 128,-1,27
 546 670 546 670 526 670 c 0,28,29
 483 670 483 670 451.5 655 c 128,-1,30
 420 640 420 640 411 609 c 0,31,32
 407 596 407 596 407 543 c 2,33,-1
 407 533 l 1,34,-1
 529 533 l 2,0,1
EndSplineSet
Validated: 1
EndChar

StartChar: g
Encoding: 103 103 74
Width: 723
GlyphClass: 2
Flags: W
LayerCount: 2
Fore
SplineSet
538 536 m 0,0,1
 558 536 558 536 573 521 c 128,-1,2
 588 506 588 506 588 486 c 2,3,-1
 588 1 l 2,4,5
 588 -52 588 -52 561 -95 c 0,6,7
 533 -140 533 -140 482 -165 c 128,-1,8
 431 -190 431 -190 363 -190 c 0,9,10
 281 -190 281 -190 230.5 -170.5 c 128,-1,11
 180 -151 180 -151 158 -100 c 0,12,13
 154 -92 154 -92 154 -80 c 0,14,15
 154 -59 154 -59 169 -44.5 c 128,-1,16
 184 -30 184 -30 204 -30 c 0,17,18
 221 -30 221 -30 231.5 -39.5 c 128,-1,19
 242 -49 242 -49 251 -62 c 128,-1,20
 260 -75 260 -75 270 -80 c 0,21,22
 290 -90 290 -90 349 -90 c 2,23,-1
 363 -90 l 2,24,25
 409 -90 409 -90 437 -78 c 128,-1,26
 465 -66 465 -66 478 -37 c 0,27,28
 488 -15 488 -15 488 27 c 2,29,-1
 488 74 l 1,30,31
 423 19 423 19 335 19 c 0,32,33
 234 19 234 19 175.5 90.5 c 128,-1,34
 117 162 117 162 117 269 c 0,35,36
 117 388 117 388 176 463.5 c 128,-1,37
 235 539 235 539 344 539 c 0,38,39
 360 539 360 539 368 538 c 0,40,41
 436 532 436 532 488 490 c 1,42,43
 490 509 490 509 504.5 522.5 c 128,-1,44
 519 536 519 536 538 536 c 0,0,1
488 234 m 1,45,-1
 488 317 l 1,46,47
 470 366 470 366 438.5 401 c 128,-1,48
 407 436 407 436 360 439 c 2,49,-1
 347 439 l 2,50,51
 280 439 280 439 248.5 392.5 c 128,-1,52
 217 346 217 346 217 269 c 0,53,54
 217 205 217 205 247 162 c 128,-1,55
 277 119 277 119 335 119 c 0,56,57
 364 119 364 119 388 128.5 c 128,-1,58
 412 138 412 138 431 157.5 c 128,-1,59
 450 177 450 177 461 192.5 c 128,-1,60
 472 208 472 208 488 234 c 1,45,-1
EndSplineSet
Validated: 1
EndChar

StartChar: h
Encoding: 104 104 75
Width: 723
GlyphClass: 2
Flags: W
LayerCount: 2
Fore
SplineSet
560 413 m 0,0,1
 570 376 570 376 570 286 c 2,2,-1
 570 37 l 2,3,4
 570 17 570 17 555 2 c 128,-1,5
 540 -13 540 -13 520 -13 c 128,-1,6
 500 -13 500 -13 485 2 c 128,-1,7
 470 17 470 17 470 37 c 2,8,-1
 470 286 l 2,9,10
 470 288 470 288 470 305 c 128,-1,11
 470 322 470 322 470 327 c 128,-1,12
 470 332 470 332 469 348 c 128,-1,13
 468 364 468 364 466 371 c 128,-1,14
 464 378 464 378 461 391 c 128,-1,15
 458 404 458 404 453 410 c 128,-1,16
 448 416 448 416 441 423.5 c 128,-1,17
 434 431 434 431 424.5 434.5 c 128,-1,18
 415 438 415 438 402 439 c 0,19,20
 399 439 399 439 397 439 c 0,21,22
 347 439 347 439 315 409 c 128,-1,23
 283 379 283 379 256 328 c 1,24,-1
 256 37 l 2,25,26
 256 17 256 17 241 2 c 128,-1,27
 226 -13 226 -13 206 -13 c 128,-1,28
 186 -13 186 -13 171 1.5 c 128,-1,29
 156 16 156 16 156 37 c 2,30,-1
 156 723 l 2,31,32
 156 744 156 744 171 758.5 c 128,-1,33
 186 773 186 773 206 773 c 128,-1,34
 226 773 226 773 241 758 c 128,-1,35
 256 743 256 743 256 723 c 2,36,-1
 256 489 l 1,37,38
 316 539 316 539 397 539 c 0,39,40
 458 539 458 539 501 503.5 c 128,-1,41
 544 468 544 468 560 413 c 0,0,1
EndSplineSet
Validated: 1
EndChar

StartChar: i
Encoding: 105 105 76
Width: 723
GlyphClass: 2
Flags: W
LayerCount: 2
Fore
SplineSet
411 524 m 2,0,1
 432 524 432 524 446.5 509.5 c 128,-1,2
 461 495 461 495 461 474 c 2,3,-1
 461 37 l 2,4,5
 461 16 461 16 446 1.5 c 128,-1,6
 431 -13 431 -13 411 -13 c 128,-1,7
 391 -13 391 -13 376 2 c 128,-1,8
 361 17 361 17 361 37 c 2,9,-1
 361 424 l 1,10,-1
 231 424 l 2,11,12
 211 424 211 424 196 439 c 128,-1,13
 181 454 181 454 181 474 c 128,-1,14
 181 494 181 494 195.5 509 c 128,-1,15
 210 524 210 524 231 524 c 2,16,-1
 411 524 l 2,0,1
414 773 m 2,17,18
 434 773 434 773 449 758.5 c 128,-1,19
 464 744 464 744 464 723 c 2,20,-1
 464 677 l 2,21,22
 464 656 464 656 449 641.5 c 128,-1,23
 434 627 434 627 414 627 c 2,24,-1
 369 627 l 2,25,26
 349 627 349 627 334 641.5 c 128,-1,27
 319 656 319 656 319 677 c 2,28,-1
 319 723 l 2,29,30
 319 744 319 744 334 758.5 c 128,-1,31
 349 773 349 773 369 773 c 2,32,-1
 414 773 l 2,17,18
EndSplineSet
Validated: 1
EndChar

StartChar: j
Encoding: 106 106 77
Width: 723
GlyphClass: 2
Flags: W
LayerCount: 2
Fore
SplineSet
406 524 m 2,0,1
 427 524 427 524 441.5 509 c 128,-1,2
 456 494 456 494 456 474 c 2,3,-1
 456 57 l 2,4,5
 456 -38 456 -38 437 -79 c 0,6,7
 419 -116 419 -116 384.5 -145.5 c 128,-1,8
 350 -175 350 -175 311 -178 c 0,9,10
 259 -183 259 -183 242 -183 c 0,11,12
 153 -183 153 -183 153 -129 c 0,13,14
 153 -108 153 -108 167.5 -93.5 c 128,-1,15
 182 -79 182 -79 203 -79 c 2,16,-1
 208 -79 l 2,17,18
 224 -81 224 -81 254 -81 c 2,19,-1
 301 -79 l 2,20,21
 313 -79 313 -79 326.5 -64 c 128,-1,22
 340 -49 340 -49 346 -36 c 0,23,24
 356 -15 356 -15 356 57 c 2,25,-1
 356 424 l 1,26,-1
 260 424 l 2,27,28
 240 424 240 424 225 439 c 128,-1,29
 210 454 210 454 210 474 c 128,-1,30
 210 494 210 494 224.5 509 c 128,-1,31
 239 524 239 524 260 524 c 2,32,-1
 406 524 l 2,0,1
414 773 m 2,33,34
 434 773 434 773 449 758.5 c 128,-1,35
 464 744 464 744 464 723 c 2,36,-1
 464 677 l 2,37,38
 464 656 464 656 449 641.5 c 128,-1,39
 434 627 434 627 414 627 c 2,40,-1
 369 627 l 2,41,42
 349 627 349 627 334 641.5 c 128,-1,43
 319 656 319 656 319 677 c 2,44,-1
 319 723 l 2,45,46
 319 744 319 744 334 758.5 c 128,-1,47
 349 773 349 773 369 773 c 2,48,-1
 414 773 l 2,33,34
EndSplineSet
Validated: 1
EndChar

StartChar: k
Encoding: 107 107 78
Width: 723
GlyphClass: 2
Flags: W
LayerCount: 2
Fore
SplineSet
574 71 m 2,0,1
 587 56 587 56 587 37 c 0,2,3
 587 17 587 17 572 2 c 128,-1,4
 557 -13 557 -13 537 -13 c 0,5,6
 514 -13 514 -13 501 2 c 2,7,-1
 276 244 l 1,8,-1
 273 244 l 1,9,-1
 273 37 l 2,10,11
 273 17 273 17 258 2 c 128,-1,12
 243 -13 243 -13 223 -13 c 128,-1,13
 203 -13 203 -13 188 1.5 c 128,-1,14
 173 16 173 16 173 37 c 2,15,-1
 173 723 l 2,16,17
 173 744 173 744 188 758.5 c 128,-1,18
 203 773 203 773 223 773 c 128,-1,19
 243 773 243 773 258 758 c 128,-1,20
 273 743 273 743 273 723 c 2,21,-1
 273 344 l 1,22,-1
 276 344 l 1,23,-1
 472 521 l 2,24,25
 487 536 487 536 506 536 c 0,26,27
 526 536 526 536 541 521 c 128,-1,28
 556 506 556 506 556 486 c 0,29,30
 556 464 556 464 540 450 c 2,31,-1
 368 292 l 1,32,-1
 574 71 l 2,0,1
EndSplineSet
Validated: 1
EndChar

StartChar: l
Encoding: 108 108 79
Width: 723
GlyphClass: 2
Flags: W
LayerCount: 2
Fore
SplineSet
508 93 m 0,0,1
 528 93 528 93 543.5 78.5 c 128,-1,2
 559 64 559 64 559 44 c 128,-1,3
 559 24 559 24 544.5 8.5 c 128,-1,4
 530 -7 530 -7 509 -7 c 0,5,6
 504 -7 504 -7 500 -7 c 0,7,8
 394 -7 394 -7 349 15 c 0,9,10
 319 30 319 30 297 59 c 0,11,12
 271 89 271 89 262.5 127.5 c 128,-1,13
 254 166 254 166 253 225 c 2,14,-1
 253 721 l 1,15,-1
 253 723 l 2,16,17
 253 744 253 744 268 758.5 c 128,-1,18
 283 773 283 773 303 773 c 128,-1,19
 323 773 323 773 338 758 c 128,-1,20
 353 743 353 743 353 723 c 2,21,-1
 353 200 l 2,22,23
 356 152 356 152 373 125.5 c 128,-1,24
 390 99 390 99 430 94 c 0,25,26
 439 93 439 93 471 93 c 0,27,28
 487 93 487 93 508 93 c 0,0,1
EndSplineSet
Validated: 1
EndChar

StartChar: m
Encoding: 109 109 80
Width: 723
GlyphClass: 2
Flags: W
LayerCount: 2
Fore
SplineSet
483 539 m 0,0,1
 539 539 539 539 576 498.5 c 128,-1,2
 613 458 613 458 613 404 c 2,3,-1
 613 37 l 2,4,5
 613 17 613 17 598 2 c 128,-1,6
 583 -13 583 -13 563 -13 c 128,-1,7
 543 -13 543 -13 528 1.5 c 128,-1,8
 513 16 513 16 513 37 c 2,9,-1
 513 396 l 2,10,11
 511 439 511 439 483 439 c 0,12,13
 454 439 454 439 433.5 395.5 c 128,-1,14
 413 352 413 352 413 315 c 2,15,-1
 413 37 l 2,16,17
 413 17 413 17 398 2 c 128,-1,18
 383 -13 383 -13 363 -13 c 128,-1,19
 343 -13 343 -13 328 1.5 c 128,-1,20
 313 16 313 16 313 37 c 2,21,-1
 313 396 l 2,22,23
 311 439 311 439 283 439 c 0,24,25
 254 439 254 439 235 396.5 c 128,-1,26
 216 354 216 354 213 315 c 2,27,-1
 213 37 l 2,28,29
 213 17 213 17 198 2 c 128,-1,30
 183 -13 183 -13 163 -13 c 128,-1,31
 143 -13 143 -13 128 1.5 c 128,-1,32
 113 16 113 16 113 37 c 2,33,-1
 113 486 l 2,34,35
 113 507 113 507 128 521.5 c 128,-1,36
 143 536 143 536 163 536 c 0,37,38
 189 536 189 536 204 513 c 1,39,40
 240 539 240 539 283 539 c 0,41,42
 343 539 343 539 382 492 c 1,43,44
 426 539 426 539 483 539 c 0,0,1
EndSplineSet
Validated: 1
EndChar

StartChar: n
Encoding: 110 110 81
Width: 723
GlyphClass: 2
Flags: W
LayerCount: 2
Fore
SplineSet
391 539 m 0,0,1
 499 539 499 539 549 471.5 c 128,-1,2
 599 404 599 404 599 286 c 2,3,-1
 599 37 l 2,4,5
 599 17 599 17 584 2 c 128,-1,6
 569 -13 569 -13 549 -13 c 128,-1,7
 529 -13 529 -13 514 1.5 c 128,-1,8
 499 16 499 16 499 37 c 2,9,-1
 499 286 l 2,10,11
 499 362 499 362 476.5 400.5 c 128,-1,12
 454 439 454 439 391 439 c 0,13,14
 333 439 333 439 291 399.5 c 128,-1,15
 249 360 249 360 227 304 c 1,16,-1
 227 37 l 2,17,18
 227 17 227 17 212 2 c 128,-1,19
 197 -13 197 -13 177 -13 c 128,-1,20
 157 -13 157 -13 142 2 c 128,-1,21
 127 17 127 17 127 37 c 2,22,-1
 127 486 l 2,23,24
 127 506 127 506 142 520.5 c 128,-1,25
 157 535 157 535 177 535 c 128,-1,26
 197 535 197 535 212 520.5 c 128,-1,27
 227 506 227 506 227 486 c 2,28,-1
 227 477 l 1,29,30
 297 539 297 539 391 539 c 0,0,1
EndSplineSet
Validated: 1
EndChar

StartChar: o
Encoding: 111 111 82
Width: 723
GlyphClass: 2
Flags: W
LayerCount: 2
Fore
SplineSet
363 544 m 4,0,1
 478 544 478 544 545.5 464.5 c 132,-1,2
 613 385 613 385 613 263 c 4,3,4
 613 142 613 142 546 63 c 132,-1,5
 479 -16 479 -16 363 -16 c 4,6,7
 246 -16 246 -16 179.5 62.5 c 132,-1,8
 113 141 113 141 113 263 c 4,9,10
 113 386 113 386 179 465 c 132,-1,11
 245 544 245 544 363 544 c 4,0,1
363 84 m 132,-1,13
 437 84 437 84 475 134 c 132,-1,14
 513 184 513 184 513 263 c 132,-1,15
 513 342 513 342 474.5 393 c 132,-1,16
 436 444 436 444 363 444 c 132,-1,17
 290 444 290 444 251.5 393 c 132,-1,18
 213 342 213 342 213 263 c 132,-1,19
 213 184 213 184 251 134 c 132,-1,12
 289 84 289 84 363 84 c 132,-1,13
EndSplineSet
Validated: 1
EndChar

StartChar: p
Encoding: 112 112 83
Width: 723
GlyphClass: 2
Flags: W
LayerCount: 2
Fore
SplineSet
431 531 m 0,0,1
 522 510 522 510 567.5 439 c 128,-1,2
 613 368 613 368 613 257 c 0,3,4
 613 138 613 138 551 61 c 128,-1,5
 489 -16 489 -16 377 -16 c 0,6,7
 291 -16 291 -16 224 38 c 1,8,-1
 224 -134 l 2,9,10
 224 -155 224 -155 209.5 -169.5 c 128,-1,11
 195 -184 195 -184 174 -184 c 128,-1,12
 153 -184 153 -184 138.5 -169 c 128,-1,13
 124 -154 124 -154 124 -134 c 2,14,-1
 124 486 l 2,15,16
 124 506 124 506 139 521 c 128,-1,17
 154 536 154 536 174 536 c 128,-1,18
 194 536 194 536 209 521.5 c 128,-1,19
 224 507 224 507 224 486 c 1,20,21
 289 539 289 539 369 539 c 0,22,23
 396 539 396 539 431 531 c 0,0,1
408 89 m 0,24,25
 461 103 461 103 487 147 c 128,-1,26
 513 191 513 191 513 257 c 0,27,28
 513 337 513 337 480.5 388.5 c 128,-1,29
 448 440 448 440 379 440 c 0,30,31
 322 440 322 440 275 396 c 0,32,33
 244 367 244 367 224 324 c 1,34,-1
 224 207 l 1,35,36
 236 183 236 183 248 164.5 c 128,-1,37
 260 146 260 146 278 126 c 128,-1,38
 296 106 296 106 320 95 c 128,-1,39
 344 84 344 84 371 84 c 0,40,41
 386 84 386 84 408 89 c 0,24,25
EndSplineSet
Validated: 1
EndChar

StartChar: q
Encoding: 113 113 84
Width: 723
GlyphClass: 2
Flags: W
LayerCount: 2
Fore
SplineSet
551 536 m 128,-1,1
 571 536 571 536 586 521.5 c 128,-1,2
 601 507 601 507 601 486 c 2,3,-1
 601 -134 l 2,4,5
 601 -155 601 -155 586.5 -169.5 c 128,-1,6
 572 -184 572 -184 551 -184 c 128,-1,7
 530 -184 530 -184 515.5 -169 c 128,-1,8
 501 -154 501 -154 501 -134 c 2,9,-1
 501 38 l 1,10,11
 435 -15 435 -15 351 -15 c 0,12,13
 324 -15 324 -15 294 -9 c 0,14,15
 208 12 208 12 160.5 82 c 128,-1,16
 113 152 113 152 113 257 c 0,17,18
 113 488 113 488 294 531 c 0,19,20
 329 539 329 539 356 539 c 0,21,22
 436 539 436 539 501 486 c 1,23,24
 501 506 501 506 516 521 c 128,-1,0
 531 536 531 536 551 536 c 128,-1,1
501 203 m 1,25,-1
 501 322 l 1,26,27
 479 369 479 369 438 404 c 128,-1,28
 397 439 397 439 348 439 c 0,29,30
 309 439 309 439 275 417 c 0,31,32
 213 381 213 381 213 257 c 0,33,34
 213 185 213 185 248 134 c 128,-1,35
 283 83 283 83 343 83 c 0,36,37
 373 83 373 83 400 94 c 0,38,39
 468 124 468 124 501 203 c 1,25,-1
EndSplineSet
Validated: 1
EndChar

StartChar: r
Encoding: 114 114 85
Width: 723
GlyphClass: 2
Flags: W
LayerCount: 2
Fore
SplineSet
449 539 m 0,0,1
 514 539 514 539 554.5 498.5 c 128,-1,2
 595 458 595 458 596 400 c 0,3,4
 596 380 596 380 581 365 c 128,-1,5
 566 350 566 350 546 350 c 128,-1,6
 526 350 526 350 511 364.5 c 128,-1,7
 496 379 496 379 496 400 c 0,8,9
 495 414 495 414 486 424 c 0,10,11
 477 439 477 439 444 439 c 0,12,13
 433 439 433 439 423 437 c 0,14,15
 420 436 420 436 414 434 c 128,-1,16
 408 432 408 432 407 431 c 0,17,18
 375 420 375 420 350 392 c 0,19,20
 328 366 328 366 316 330 c 0,21,22
 304 296 304 296 304 261 c 2,23,-1
 304 37 l 2,24,25
 304 16 304 16 289 1.5 c 128,-1,26
 274 -13 274 -13 254 -13 c 128,-1,27
 234 -13 234 -13 219 2 c 128,-1,28
 204 17 204 17 204 37 c 2,29,-1
 204 486 l 2,30,31
 204 506 204 506 219 520.5 c 128,-1,32
 234 535 234 535 254 535 c 0,33,34
 275 535 275 535 289.5 521 c 128,-1,35
 304 507 304 507 304 486 c 1,36,37
 363 539 363 539 449 539 c 0,0,1
EndSplineSet
Validated: 1
EndChar

StartChar: s
Encoding: 115 115 86
Width: 723
GlyphClass: 2
Flags: W
LayerCount: 2
Fore
SplineSet
203 147 m 0,0,1
 219 147 219 147 230.5 137.5 c 128,-1,2
 242 128 242 128 252.5 115 c 128,-1,3
 263 102 263 102 272 97 c 0,4,5
 299 84 299 84 363 84 c 0,6,7
 387 85 387 85 403.5 88 c 128,-1,8
 420 91 420 91 439.5 97 c 128,-1,9
 459 103 459 103 469 116.5 c 128,-1,10
 479 130 479 130 479 149 c 0,11,12
 479 160 479 160 473.5 168.5 c 128,-1,13
 468 177 468 177 462.5 182 c 128,-1,14
 457 187 457 187 444.5 192 c 128,-1,15
 432 197 432 197 426.5 198.5 c 128,-1,16
 421 200 421 200 407 204 c 0,17,18
 396 207 396 207 365.5 214.5 c 128,-1,19
 335 222 335 222 321 226 c 128,-1,20
 307 230 307 230 280.5 239 c 128,-1,21
 254 248 254 248 241 255.5 c 128,-1,22
 228 263 228 263 209.5 277 c 128,-1,23
 191 291 191 291 182 306 c 128,-1,24
 173 321 173 321 166 342.5 c 128,-1,25
 159 364 159 364 159 389 c 0,26,27
 159 460 159 460 209 500 c 0,28,29
 254 536 254 536 330 543 c 0,30,31
 346 544 346 544 394 544 c 0,32,33
 452 541 452 541 498 513 c 128,-1,34
 544 485 544 485 557 436 c 0,35,36
 559 426 559 426 559 423 c 0,37,38
 559 403 559 403 544 388 c 128,-1,39
 529 373 529 373 509 373 c 0,40,41
 491 373 491 373 477.5 383.5 c 128,-1,42
 464 394 464 394 460 410 c 0,43,44
 455 429 455 429 436.5 435.5 c 128,-1,45
 418 442 418 442 389 444 c 0,46,47
 334 444 334 444 316 441 c 0,48,49
 280 435 280 435 267 416 c 0,50,51
 259 405 259 405 259 389 c 0,52,53
 259 363 259 363 275.5 350 c 128,-1,54
 292 337 292 337 320 330 c 0,55,56
 335 326 335 326 362.5 319.5 c 128,-1,57
 390 313 390 313 407.5 309 c 128,-1,58
 425 305 425 305 450 297 c 128,-1,59
 475 289 475 289 491 281 c 128,-1,60
 507 273 507 273 525.5 260 c 128,-1,61
 544 247 544 247 554.5 232 c 128,-1,62
 565 217 565 217 572 195.5 c 128,-1,63
 579 174 579 174 579 149 c 0,64,65
 579 96 579 96 551 59 c 0,66,67
 526 25 526 25 480 6 c 0,68,69
 438 -11 438 -11 380 -15 c 0,70,71
 365 -16 365 -16 352 -16 c 0,72,73
 300 -16 300 -16 258 -4 c 0,74,75
 207 11 207 11 176 48 c 0,76,77
 166 59 166 59 159 71 c 0,78,79
 153 81 153 81 153 97 c 0,80,81
 153 118 153 118 168 132.5 c 128,-1,82
 183 147 183 147 203 147 c 0,0,1
EndSplineSet
Validated: 1
EndChar

StartChar: t
Encoding: 116 116 87
Width: 723
GlyphClass: 2
Flags: W
LayerCount: 2
Fore
SplineSet
177 527 m 2,0,-1
 254 527 l 1,1,-1
 256 628 l 2,2,3
 256 650 256 650 270.5 664 c 128,-1,4
 285 678 285 678 306 678 c 128,-1,5
 327 678 327 678 341.5 663 c 128,-1,6
 356 648 356 648 356 628 c 2,7,-1
 354 527 l 1,8,-1
 503 527 l 2,9,10
 523 527 523 527 538 512 c 128,-1,11
 553 497 553 497 553 477 c 128,-1,12
 553 457 553 457 538 442 c 128,-1,13
 523 427 523 427 503 427 c 2,14,-1
 352 427 l 1,15,-1
 349 199 l 2,16,17
 349 173 349 173 349.5 161 c 128,-1,18
 350 149 350 149 353.5 131.5 c 128,-1,19
 357 114 357 114 364 106.5 c 128,-1,20
 371 99 371 99 384.5 93 c 128,-1,21
 398 87 398 87 418 87 c 0,22,23
 453 89 453 89 481 102 c 0,24,25
 493 107 493 107 503 107 c 0,26,27
 523 107 523 107 538 92 c 128,-1,28
 553 77 553 77 553 57 c 0,29,30
 553 22 553 22 515 4.5 c 128,-1,31
 477 -13 477 -13 424 -13 c 0,32,33
 378 -13 378 -13 345 -1 c 0,34,35
 293 19 293 19 271 66 c 128,-1,36
 249 113 249 113 249 189 c 2,37,-1
 249 201 l 1,38,-1
 252 427 l 1,39,-1
 177 427 l 2,40,41
 157 427 157 427 142 442 c 128,-1,42
 127 457 127 457 127 477 c 128,-1,43
 127 497 127 497 142 512 c 128,-1,44
 157 527 157 527 177 527 c 2,0,-1
EndSplineSet
Validated: 1
EndChar

StartChar: u
Encoding: 117 117 88
Width: 723
GlyphClass: 2
Flags: W
LayerCount: 2
Fore
SplineSet
127 486 m 2,0,1
 127 506 127 506 142 521 c 128,-1,2
 157 536 157 536 176 536 c 0,3,4
 196 536 196 536 211.5 521 c 128,-1,5
 227 506 227 506 227 486 c 2,6,-1
 227 257 l 2,7,8
 227 168 227 168 247.5 127 c 128,-1,9
 268 86 268 86 335 84 c 2,10,-1
 340 84 l 2,11,12
 400 84 400 84 439.5 125.5 c 128,-1,13
 479 167 479 167 499 227 c 1,14,-1
 499 486 l 2,15,16
 499 507 499 507 514 521.5 c 128,-1,17
 529 536 529 536 549 536 c 128,-1,18
 569 536 569 536 584 521 c 128,-1,19
 599 506 599 506 599 486 c 2,20,-1
 599 37 l 2,21,22
 599 17 599 17 584 2 c 128,-1,23
 569 -13 569 -13 549 -13 c 128,-1,24
 529 -13 529 -13 514 1.5 c 128,-1,25
 499 16 499 16 499 37 c 2,26,-1
 499 45 l 1,27,28
 430 -16 430 -16 333 -16 c 0,29,30
 256 -13 256 -13 206 25.5 c 128,-1,31
 156 64 156 64 137 130 c 0,32,33
 127 168 127 168 127 257 c 2,34,-1
 127 486 l 2,0,1
EndSplineSet
Validated: 1
EndChar

StartChar: v
Encoding: 118 118 89
Width: 723
GlyphClass: 2
Flags: W
LayerCount: 2
Fore
SplineSet
166 536 m 0,0,1
 200 536 200 536 213 502 c 2,2,-1
 361 87 l 1,3,-1
 365 87 l 1,4,-1
 513 502 l 2,5,6
 517 516 517 516 530.5 526 c 128,-1,7
 544 536 544 536 560 536 c 0,8,9
 580 536 580 536 595 521 c 128,-1,10
 610 506 610 506 610 486 c 0,11,12
 610 476 610 476 607 469 c 2,13,-1
 447 20 l 2,14,15
 443 7 443 7 429 -3 c 128,-1,16
 415 -13 415 -13 400 -13 c 2,17,-1
 326 -13 l 2,18,19
 310 -13 310 -13 297 -3.5 c 128,-1,20
 284 6 284 6 279 20 c 2,21,-1
 119 469 l 2,22,23
 116 476 116 476 116 486 c 0,24,25
 116 507 116 507 131 521.5 c 128,-1,26
 146 536 146 536 166 536 c 0,0,1
EndSplineSet
Validated: 1
EndChar

StartChar: w
Encoding: 119 119 90
Width: 723
GlyphClass: 2
Flags: W
LayerCount: 2
Fore
SplineSet
166 536 m 0,0,1
 185 536 185 536 199 523 c 128,-1,2
 213 510 213 510 215 492 c 2,3,-1
 255 168 l 1,4,-1
 292 294 l 2,5,6
 296 309 296 309 309.5 319.5 c 128,-1,7
 323 330 323 330 340 330 c 2,8,-1
 386 330 l 2,9,10
 423 330 423 330 434 294 c 2,11,-1
 471 168 l 1,12,-1
 510 492 l 2,13,14
 513 510 513 510 527 523 c 128,-1,15
 541 536 541 536 560 536 c 0,16,17
 580 536 580 536 595.5 522 c 128,-1,18
 611 508 611 508 611 490 c 2,19,-1
 611 486 l 1,20,-1
 555 31 l 2,21,22
 553 13 553 13 539 0 c 128,-1,23
 525 -13 525 -13 506 -13 c 2,24,-1
 457 -13 l 2,25,26
 420 -13 420 -13 409 22 c 2,27,-1
 363 181 l 1,28,-1
 317 22 l 2,29,30
 304 -13 304 -13 270 -13 c 2,31,-1
 220 -13 l 2,32,33
 201 -13 201 -13 186.5 0 c 128,-1,34
 172 13 172 13 170 31 c 2,35,-1
 115 486 l 2,36,37
 115 506 115 506 130.5 521 c 128,-1,38
 146 536 146 536 166 536 c 0,0,1
EndSplineSet
Validated: 1
EndChar

StartChar: x
Encoding: 120 120 91
Width: 723
GlyphClass: 2
Flags: W
LayerCount: 2
Fore
SplineSet
156 66 m 2,0,-1
 296 266 l 1,1,-1
 167 458 l 2,2,3
 159 471 159 471 159 486 c 0,4,5
 159 507 159 507 174 521.5 c 128,-1,6
 189 536 189 536 209 536 c 0,7,8
 235 536 235 536 245 522 c 2,9,-1
 363 347 l 1,10,-1
 481 522 l 2,11,12
 495 536 495 536 517 536 c 0,13,14
 537 536 537 536 552 521 c 128,-1,15
 567 506 567 506 567 486 c 0,16,17
 567 471 567 471 559 458 c 2,18,-1
 429 266 l 1,19,-1
 569 66 l 2,20,21
 579 51 579 51 579 37 c 0,22,23
 579 17 579 17 564 2 c 128,-1,24
 549 -13 549 -13 529 -13 c 0,25,26
 503 -13 503 -13 492 1 c 2,27,-1
 363 186 l 1,28,-1
 233 1 l 2,29,30
 220 -13 220 -13 197 -13 c 0,31,32
 177 -13 177 -13 162 2 c 128,-1,33
 147 17 147 17 147 37 c 0,34,35
 147 52 147 52 156 66 c 2,0,-1
EndSplineSet
Validated: 1
EndChar

StartChar: y
Encoding: 121 121 92
Width: 723
GlyphClass: 2
Flags: W
LayerCount: 2
Fore
SplineSet
163 -81 m 0,0,1
 167 -81 167 -81 173.5 -81.5 c 128,-1,2
 180 -82 180 -82 183 -82 c 0,3,4
 197 -82 197 -82 202 -74 c 2,5,-1
 312 129 l 1,6,-1
 120 461 l 2,7,8
 113 471 113 471 113 486 c 0,9,10
 113 507 113 507 128 521.5 c 128,-1,11
 143 536 143 536 163 536 c 128,-1,12
 183 536 183 536 198 521 c 1,13,-1
 368 232 l 1,14,-1
 525 521 l 1,15,16
 542 536 542 536 563 536 c 0,17,18
 583 536 583 536 598 521 c 128,-1,19
 613 506 613 506 613 486 c 0,20,21
 613 472 613 472 607 461 c 2,22,-1
 297 -107 l 1,23,24
 287 -137 287 -137 251 -162 c 0,25,26
 219 -183 219 -183 177 -183 c 0,27,28
 113 -183 113 -183 113 -131 c 0,29,30
 113 -110 113 -110 128 -95.5 c 128,-1,31
 143 -81 143 -81 163 -81 c 0,0,1
EndSplineSet
Validated: 1
EndChar

StartChar: z
Encoding: 122 122 93
Width: 723
GlyphClass: 2
Flags: W
LayerCount: 2
Fore
SplineSet
147 84 m 2,0,1
 147 101 147 101 160 116 c 2,2,-1
 438 424 l 1,3,-1
 206 424 l 2,4,5
 186 424 186 424 171 438.5 c 128,-1,6
 156 453 156 453 156 474 c 128,-1,7
 156 495 156 495 170.5 509.5 c 128,-1,8
 185 524 185 524 206 524 c 2,9,-1
 514 524 l 2,10,11
 535 524 535 524 549.5 509.5 c 128,-1,12
 564 495 564 495 564 474 c 2,13,-1
 564 434 l 2,14,15
 564 415 564 415 550 401 c 2,16,-1
 278 99 l 1,17,-1
 537 99 l 2,18,19
 557 99 557 99 572 84 c 128,-1,20
 587 69 587 69 587 49 c 128,-1,21
 587 29 587 29 572.5 14 c 128,-1,22
 558 -1 558 -1 537 -1 c 2,23,-1
 197 -1 l 2,24,25
 176 -1 176 -1 161.5 14 c 128,-1,26
 147 29 147 29 147 49 c 2,27,-1
 147 84 l 2,0,1
EndSplineSet
Validated: 1
EndChar

StartChar: braceleft
Encoding: 123 123 94
Width: 723
GlyphClass: 2
Flags: W
LayerCount: 2
Fore
SplineSet
384 543 m 0,0,1
 384 417 384 417 333 379 c 1,2,3
 384 328 384 328 384 229 c 0,4,5
 384 175 384 175 391 145.5 c 128,-1,6
 398 116 398 116 423 100 c 0,7,8
 444 87 444 87 563 87 c 0,9,10
 583 87 583 87 598 72 c 128,-1,11
 613 57 613 57 613 37 c 128,-1,12
 613 17 613 17 598 2 c 128,-1,13
 583 -13 583 -13 563 -13 c 0,14,15
 416 -13 416 -13 371 15 c 0,16,17
 284 65 284 65 284 229 c 0,18,19
 284 286 284 286 263 308 c 0,20,21
 241 330 241 330 163 330 c 0,22,23
 142 330 142 330 127.5 344 c 128,-1,24
 113 358 113 358 113 379 c 128,-1,25
 113 400 113 400 128 415 c 128,-1,26
 143 430 143 430 163 430 c 0,27,28
 246 430 246 430 268 455 c 0,29,30
 284 475 284 475 284 543 c 0,31,32
 284 646 284 646 323 698 c 0,33,34
 357 745 357 745 410.5 759 c 128,-1,35
 464 773 464 773 563 773 c 0,36,37
 583 773 583 773 598 758 c 128,-1,38
 613 743 613 743 613 723 c 128,-1,39
 613 703 613 703 598.5 688 c 128,-1,40
 584 673 584 673 563 673 c 2,41,-1
 527 673 l 2,42,43
 477 673 477 673 447.5 666.5 c 128,-1,44
 418 660 418 660 403 639 c 0,45,46
 384 614 384 614 384 543 c 0,0,1
EndSplineSet
Validated: 1
EndChar

StartChar: bar
Encoding: 124 124 95
Width: 723
GlyphClass: 2
Flags: W
LayerCount: 2
Fore
SplineSet
363 773 m 128,-1,1
 383 773 383 773 398 758 c 128,-1,2
 413 743 413 743 413 723 c 2,3,-1
 413 -111 l 2,4,5
 413 -131 413 -131 398.5 -146 c 128,-1,6
 384 -161 384 -161 363 -161 c 128,-1,7
 342 -161 342 -161 327.5 -146.5 c 128,-1,8
 313 -132 313 -132 313 -111 c 2,9,-1
 313 723 l 2,10,11
 313 744 313 744 328 758.5 c 128,-1,0
 343 773 343 773 363 773 c 128,-1,1
EndSplineSet
Validated: 1
Substitution2: "'ss04' Style Set 4 in Latin lookup 4 subtable" bar.alt
AlternateSubs2: "'aalt' Access All Alternates in Latin lookup 0 subtable" bar bar.alt
EndChar

StartChar: braceright
Encoding: 125 125 96
Width: 723
GlyphClass: 2
Flags: W
LayerCount: 2
Fore
SplineSet
342 217 m 0,0,1
 342 343 342 343 393 381 c 1,2,3
 342 432 342 432 342 531 c 0,4,5
 342 585 342 585 335 614.5 c 128,-1,6
 328 644 328 644 303 660 c 0,7,8
 282 673 282 673 163 673 c 0,9,10
 143 673 143 673 128 688 c 128,-1,11
 113 703 113 703 113 723 c 128,-1,12
 113 743 113 743 128 758 c 128,-1,13
 143 773 143 773 163 773 c 0,14,15
 310 773 310 773 355 745 c 0,16,17
 442 695 442 695 442 531 c 0,18,19
 442 474 442 474 463 452 c 0,20,21
 485 430 485 430 563 430 c 0,22,23
 584 430 584 430 598.5 416 c 128,-1,24
 613 402 613 402 613 381 c 128,-1,25
 613 360 613 360 598 345 c 128,-1,26
 583 330 583 330 563 330 c 0,27,28
 480 330 480 330 458 305 c 0,29,30
 442 285 442 285 442 217 c 0,31,32
 442 114 442 114 403 62 c 0,33,34
 369 15 369 15 315.5 1 c 128,-1,35
 262 -13 262 -13 163 -13 c 0,36,37
 143 -13 143 -13 128 2 c 128,-1,38
 113 17 113 17 113 37 c 128,-1,39
 113 57 113 57 127.5 72 c 128,-1,40
 142 87 142 87 163 87 c 2,41,-1
 199 87 l 2,42,43
 249 87 249 87 278.5 93.5 c 128,-1,44
 308 100 308 100 323 121 c 0,45,46
 342 146 342 146 342 217 c 0,0,1
EndSplineSet
Validated: 1
EndChar

StartChar: asciitilde
Encoding: 126 126 97
Width: 723
GlyphClass: 2
Flags: W
LayerCount: 2
Fore
SplineSet
549 710 m 0,0,1
 569 710 569 710 584 695 c 128,-1,2
 599 680 599 680 599 660 c 0,3,4
 599 656 599 656 597 650 c 0,5,6
 587 600 587 600 547.5 567.5 c 128,-1,7
 508 535 508 535 458 535 c 0,8,9
 455 535 455 535 451 535.5 c 128,-1,10
 447 536 447 536 444 536 c 0,11,12
 394 541 394 541 333 589 c 0,13,14
 290 621 290 621 261 621 c 0,15,16
 234 621 234 621 226 587 c 0,17,18
 223 570 223 570 209 558.5 c 128,-1,19
 195 547 195 547 177 547 c 0,20,21
 157 547 157 547 142 562 c 128,-1,22
 127 577 127 577 127 597 c 2,23,-1
 127 607 l 1,24,25
 137 657 137 657 177.5 689.5 c 128,-1,26
 218 722 218 722 268 722 c 0,27,28
 271 722 271 722 275 721.5 c 128,-1,29
 279 721 279 721 282 721 c 0,30,31
 332 716 332 716 393 668 c 0,32,33
 436 636 436 636 465 636 c 0,34,35
 492 636 492 636 500 670 c 0,36,37
 501 687 501 687 516 698.5 c 128,-1,38
 531 710 531 710 549 710 c 0,0,1
EndSplineSet
Validated: 1
EndChar

StartChar: exclamdown
Encoding: 161 161 98
Width: 723
GlyphClass: 2
Flags: W
LayerCount: 2
Fore
SplineSet
358 256 m 128,-1,1
 377 256 377 256 390.5 242 c 128,-1,2
 404 228 404 228 404 210 c 2,3,-1
 404 -154 l 2,4,5
 404 -173 404 -173 390.5 -186.5 c 128,-1,6
 377 -200 377 -200 357.5 -200 c 128,-1,7
 338 -200 338 -200 324.5 -186.5 c 128,-1,8
 311 -173 311 -173 311 -154 c 2,9,-1
 311 210 l 2,10,11
 311 229 311 229 325 242.5 c 128,-1,0
 339 256 339 256 358 256 c 128,-1,1
379 465 m 2,12,13
 398 465 398 465 412 451.5 c 128,-1,14
 426 438 426 438 426 419 c 2,15,-1
 426 377 l 2,16,17
 426 358 426 358 412.5 344 c 128,-1,18
 399 330 399 330 379 330 c 2,19,-1
 336 330 l 2,20,21
 317 330 317 330 303.5 344 c 128,-1,22
 290 358 290 358 290 377 c 2,23,-1
 290 419 l 2,24,25
 290 438 290 438 303.5 451.5 c 128,-1,26
 317 465 317 465 336 465 c 2,27,-1
 379 465 l 2,12,13
EndSplineSet
Validated: 1
EndChar

StartChar: cent
Encoding: 162 162 99
Width: 723
GlyphClass: 2
Flags: W
LayerCount: 2
Fore
SplineSet
516 259 m 0,0,1
 536 259 536 259 551 244 c 128,-1,2
 566 229 566 229 566 208 c 2,3,-1
 566 196 l 1,4,5
 554 146 554 146 512 110.5 c 128,-1,6
 470 75 470 75 415 65 c 1,7,-1
 415 41 l 2,8,9
 415 21 415 21 399.5 5.5 c 128,-1,10
 384 -10 384 -10 363.5 -10 c 128,-1,11
 343 -10 343 -10 328 5 c 128,-1,12
 313 20 313 20 313 41 c 2,13,-1
 313 73 l 1,14,15
 295 79 295 79 278 88 c 0,16,17
 162 154 162 154 162 358 c 0,18,19
 162 459 162 459 199.5 527.5 c 128,-1,20
 237 596 237 596 313 617 c 1,21,-1
 313 679 l 2,22,23
 313 699 313 699 328 714.5 c 128,-1,24
 343 730 343 730 364 730 c 128,-1,25
 385 730 385 730 400 715 c 128,-1,26
 415 700 415 700 415 679 c 2,27,-1
 415 623 l 1,28,29
 420 622 420 622 424 622 c 0,30,31
 474 617 474 617 511.5 588.5 c 128,-1,32
 549 560 549 560 560 515 c 1,33,-1
 560 503 l 2,34,35
 560 482 560 482 545.5 467 c 128,-1,36
 531 452 531 452 510 452 c 0,37,38
 492 452 492 452 479 463.5 c 128,-1,39
 466 475 466 475 462 492 c 0,40,41
 449 524 449 524 388 524 c 0,42,43
 354 524 354 524 324 512 c 0,44,45
 263 483 263 483 263 358 c 0,46,47
 263 164 263 164 374 164 c 0,48,49
 392 164 392 164 408 168 c 0,50,51
 430 173 430 173 446 186 c 128,-1,52
 462 199 462 199 467 219 c 0,53,54
 473 236 473 236 485.5 247.5 c 128,-1,55
 498 259 498 259 516 259 c 0,0,1
EndSplineSet
Validated: 1
EndChar

StartChar: sterling
Encoding: 163 163 100
Width: 723
GlyphClass: 2
Flags: W
LayerCount: 2
Fore
SplineSet
555 112 m 2,0,1
 578 112 578 112 594.5 95.5 c 128,-1,2
 611 79 611 79 611 56 c 128,-1,3
 611 33 611 33 594.5 16.5 c 128,-1,4
 578 0 578 0 555 0 c 2,5,-1
 166 0 l 2,6,7
 145 0 145 0 130.5 14.5 c 128,-1,8
 116 29 116 29 116 50 c 0,9,10
 116 78 116 78 140 93 c 0,11,12
 189 123 189 123 216.5 169 c 128,-1,13
 244 215 244 215 244 267 c 0,14,15
 244 302 244 302 240 330 c 1,16,-1
 173 330 l 2,17,18
 152 330 152 330 137.5 345 c 128,-1,19
 123 360 123 360 123 380.5 c 128,-1,20
 123 401 123 401 137.5 416 c 128,-1,21
 152 431 152 431 173 431 c 2,22,-1
 224 431 l 1,23,24
 215 487 215 487 215 529 c 0,25,26
 215 533 215 533 215 537 c 0,27,28
 215 640 215 640 279 705 c 128,-1,29
 343 770 343 770 444 770 c 0,30,31
 495 770 495 770 535 757 c 0,32,33
 556 750 556 750 567 731 c 0,34,35
 573 719 573 719 573 706 c 0,36,37
 573 698 573 698 571 690 c 0,38,39
 565 669 565 669 545 658 c 0,40,41
 533 651 533 651 519 651 c 0,42,43
 512 651 512 651 504 653 c 0,44,45
 477 660 477 660 444 661 c 0,46,47
 382 661 382 661 355 616 c 0,48,49
 336 585 336 585 336 536 c 0,50,51
 336 490 336 490 347 431 c 1,52,-1
 461 431 l 2,53,54
 482 431 482 431 496.5 416 c 128,-1,55
 511 401 511 401 511 380.5 c 128,-1,56
 511 360 511 360 496 345 c 128,-1,57
 481 330 481 330 461 330 c 2,58,-1
 360 330 l 1,59,60
 361 308 361 308 361 290 c 0,61,62
 361 247 361 247 354 216 c 0,63,64
 339 157 339 157 296 112 c 1,65,-1
 555 112 l 2,0,1
EndSplineSet
Validated: 1
EndChar

StartChar: currency
Encoding: 164 164 101
Width: 723
GlyphClass: 2
Flags: W
LayerCount: 2
Fore
SplineSet
598 215 m 2,0,1
 613 202 613 202 613 180 c 0,2,3
 613 160 613 160 598 145 c 128,-1,4
 583 130 583 130 563 130 c 0,5,6
 542 130 542 130 527 145 c 2,7,-1
 476 196 l 1,8,9
 424 164 424 164 363 164 c 128,-1,10
 302 164 302 164 249 196 c 1,11,-1
 198 145 l 2,12,13
 185 130 185 130 163 130 c 0,14,15
 143 130 143 130 128 144.5 c 128,-1,16
 113 159 113 159 113 180 c 128,-1,17
 113 201 113 201 127 215 c 2,18,-1
 179 267 l 1,19,20
 147 320 147 320 147 380 c 128,-1,21
 147 440 147 440 179 493 c 1,22,-1
 127 545 l 2,23,24
 113 559 113 559 113 580 c 128,-1,25
 113 601 113 601 128 615.5 c 128,-1,26
 143 630 143 630 163 630 c 0,27,28
 185 630 185 630 198 615 c 2,29,-1
 249 564 l 1,30,31
 302 596 302 596 363 596 c 0,32,33
 423 596 423 596 476 564 c 1,34,-1
 527 615 l 2,35,36
 542 630 542 630 563 630 c 0,37,38
 583 630 583 630 598 615 c 128,-1,39
 613 600 613 600 613 580 c 0,40,41
 613 558 613 558 598 545 c 2,42,-1
 546 493 l 1,43,44
 579 439 579 439 579 380 c 0,45,46
 579 319 579 319 546 267 c 1,47,-1
 598 215 l 2,0,1
458 313 m 0,48,49
 479 342 479 342 479 380 c 0,50,51
 479 428 479 428 445 462 c 128,-1,52
 411 496 411 496 363 496 c 128,-1,53
 315 496 315 496 281 462 c 128,-1,54
 247 428 247 428 247 380 c 128,-1,55
 247 332 247 332 281 298 c 128,-1,56
 315 264 315 264 363 264 c 0,57,58
 400 264 400 264 431 286 c 0,59,60
 435 286 435 286 440 291.5 c 128,-1,61
 445 297 445 297 451 304.5 c 128,-1,62
 457 312 457 312 458 313 c 0,48,49
EndSplineSet
Validated: 1
EndChar

StartChar: yen
Encoding: 165 165 102
Width: 723
GlyphClass: 2
Flags: W
LayerCount: 2
Fore
SplineSet
609 716 m 0,0,1
 609 701 609 701 602 690 c 2,2,-1
 449 404 l 1,3,-1
 564 404 l 2,4,5
 576 404 576 404 584.5 395.5 c 128,-1,6
 593 387 593 387 593 375 c 128,-1,7
 593 363 593 363 584.5 354.5 c 128,-1,8
 576 346 576 346 564 346 c 2,9,-1
 418 346 l 1,10,-1
 418 345 l 1,11,-1
 418 265 l 1,12,-1
 564 265 l 2,13,14
 576 265 576 265 584.5 256.5 c 128,-1,15
 593 248 593 248 593 236 c 128,-1,16
 593 224 593 224 584.5 215.5 c 128,-1,17
 576 207 576 207 564 207 c 2,18,-1
 418 207 l 1,19,-1
 418 44 l 2,20,21
 418 22 418 22 402 6 c 128,-1,22
 386 -10 386 -10 364 -10 c 128,-1,23
 342 -10 342 -10 326 5.5 c 128,-1,24
 310 21 310 21 310 44 c 2,25,-1
 310 207 l 1,26,-1
 164 207 l 2,27,28
 152 207 152 207 143.5 215.5 c 128,-1,29
 135 224 135 224 135 236 c 128,-1,30
 135 248 135 248 143.5 256.5 c 128,-1,31
 152 265 152 265 164 265 c 2,32,-1
 310 265 l 1,33,-1
 310 345 l 1,34,-1
 309 346 l 1,35,-1
 164 346 l 2,36,37
 152 346 152 346 143.5 354.5 c 128,-1,38
 135 363 135 363 135 375 c 128,-1,39
 135 387 135 387 143.5 395.5 c 128,-1,40
 152 404 152 404 164 404 c 2,41,-1
 278 404 l 1,42,-1
 125 690 l 2,43,44
 119 701 119 701 119 716 c 0,45,46
 119 738 119 738 135 754 c 128,-1,47
 151 770 151 770 173 770 c 0,48,49
 203 770 203 770 220 741 c 2,50,-1
 364 472 l 1,51,-1
 507 741 l 2,52,53
 512 753 512 753 526 761.5 c 128,-1,54
 540 770 540 770 555 770 c 0,55,56
 577 770 577 770 593 754 c 128,-1,57
 609 738 609 738 609 716 c 0,0,1
EndSplineSet
Validated: 1
EndChar

StartChar: brokenbar
Encoding: 166 166 103
Width: 723
GlyphClass: 2
Flags: W
LayerCount: 2
Fore
SplineSet
313 181 m 2,0,1
 313 219 313 219 319.5 225 c 128,-1,2
 326 231 326 231 363 231 c 128,-1,3
 400 231 400 231 406.5 225 c 128,-1,4
 413 219 413 219 413 181 c 2,5,-1
 413 -69 l 2,6,7
 413 -107 413 -107 406.5 -113 c 128,-1,8
 400 -119 400 -119 363 -119 c 128,-1,9
 326 -119 326 -119 319.5 -112.5 c 128,-1,10
 313 -106 313 -106 313 -69 c 2,11,-1
 313 181 l 2,0,1
313 681 m 2,12,13
 313 719 313 719 319.5 725 c 128,-1,14
 326 731 326 731 363 731 c 128,-1,15
 400 731 400 731 406.5 724.5 c 128,-1,16
 413 718 413 718 413 681 c 2,17,-1
 413 431 l 2,18,19
 413 393 413 393 406.5 387 c 128,-1,20
 400 381 400 381 363 381 c 128,-1,21
 326 381 326 381 319.5 387 c 128,-1,22
 313 393 313 393 313 431 c 2,23,-1
 313 681 l 2,12,13
EndSplineSet
Validated: 1
EndChar

StartChar: section
Encoding: 167 167 104
Width: 723
GlyphClass: 2
Flags: W
LayerCount: 2
Fore
SplineSet
601 371 m 2,0,-1
 601 367 l 2,1,2
 601 312 601 312 562 268 c 1,3,4
 600 229 600 229 601 165 c 2,5,-1
 601 160 l 2,6,7
 601 76 601 76 536 32.5 c 128,-1,8
 471 -11 471 -11 374 -13 c 0,9,10
 186 -13 186 -13 133 119 c 0,11,12
 130 128 130 128 130 136 c 0,13,14
 130 157 130 157 144.5 172 c 128,-1,15
 159 187 159 187 180 187 c 0,16,17
 213 187 213 187 227 155 c 0,18,19
 254 87 254 87 374 87 c 0,20,21
 501 91 501 91 501 165 c 0,22,23
 501 183 501 183 491.5 195.5 c 128,-1,24
 482 208 482 208 469.5 215 c 128,-1,25
 457 222 457 222 435 226.5 c 128,-1,26
 413 231 413 231 398 232 c 128,-1,27
 383 233 383 233 357 234 c 128,-1,28
 331 235 331 235 322 236 c 0,29,30
 267 240 267 240 225 254.5 c 128,-1,31
 183 269 183 269 152 303 c 128,-1,32
 121 337 121 337 121 388 c 0,33,34
 121 450 121 450 173 502 c 1,35,36
 147 539 147 539 147 594 c 0,37,38
 147 681 147 681 211 727 c 128,-1,39
 275 773 275 773 374 773 c 0,40,41
 449 773 449 773 501.5 740.5 c 128,-1,42
 554 708 554 708 573 650 c 0,43,44
 576 642 576 642 576 634 c 0,45,46
 576 614 576 614 560.5 599 c 128,-1,47
 545 584 545 584 526 584 c 0,48,49
 505 584 505 584 493 597 c 128,-1,50
 481 610 481 610 470.5 629 c 128,-1,51
 460 648 460 648 449 655 c 0,52,53
 425 673 425 673 374 673 c 0,54,55
 247 673 247 673 247 594 c 0,56,57
 247 573 247 573 257 559.5 c 128,-1,58
 267 546 267 546 289 539.5 c 128,-1,59
 311 533 311 533 327 530.5 c 128,-1,60
 343 528 343 528 374 526.5 c 128,-1,61
 405 525 405 525 414 524 c 0,62,63
 494 516 494 516 546.5 479 c 128,-1,64
 599 442 599 442 601 371 c 2,0,-1
468 319 m 1,65,66
 501 342 501 342 501 371 c 0,67,68
 501 391 501 391 483 403.5 c 128,-1,69
 465 416 465 416 447.5 419 c 128,-1,70
 430 422 430 422 403 424 c 0,71,72
 305 434 305 434 262 446 c 1,73,74
 221 418 221 418 221 388 c 0,75,76
 221 371 221 371 234 359 c 128,-1,77
 247 347 247 347 272 342 c 128,-1,78
 297 337 297 337 316.5 335 c 128,-1,79
 336 333 336 333 368 332 c 128,-1,80
 400 331 400 331 407 330 c 0,81,82
 437 327 437 327 468 319 c 1,65,66
EndSplineSet
Validated: 1
EndChar

StartChar: dieresis
Encoding: 168 168 105
Width: 723
GlyphClass: 2
Flags: W
LayerCount: 2
Fore
SplineSet
277 430 m 128,-1,1
 297 430 297 430 312 415 c 128,-1,2
 327 400 327 400 327 380 c 2,3,-1
 327 323 l 2,4,5
 327 303 327 303 312.5 288 c 128,-1,6
 298 273 298 273 277 273 c 128,-1,7
 256 273 256 273 241.5 288 c 128,-1,8
 227 303 227 303 227 323 c 2,9,-1
 227 380 l 2,10,11
 227 400 227 400 242 415 c 128,-1,0
 257 430 257 430 277 430 c 128,-1,1
449 430 m 128,-1,13
 469 430 469 430 484 415 c 128,-1,14
 499 400 499 400 499 380 c 2,15,-1
 499 323 l 2,16,17
 499 303 499 303 484 288 c 128,-1,18
 469 273 469 273 449 273 c 0,19,20
 428 273 428 273 413.5 287.5 c 128,-1,21
 399 302 399 302 399 323 c 2,22,-1
 399 380 l 2,23,24
 399 401 399 401 414 415.5 c 128,-1,12
 429 430 429 430 449 430 c 128,-1,13
EndSplineSet
Validated: 1
EndChar

StartChar: copyright
Encoding: 169 169 106
Width: 723
GlyphClass: 2
Flags: W
LayerCount: 2
Fore
SplineSet
375 506 m 0,0,1
 405 506 405 506 426.5 490 c 128,-1,2
 448 474 448 474 454 448 c 1,3,-1
 454 444 l 2,4,5
 454 435 454 435 447.5 428 c 128,-1,6
 441 421 441 421 432 421 c 0,7,8
 419 421 419 421 411.5 436 c 128,-1,9
 404 451 404 451 401 454 c 0,10,11
 391 461 391 461 376 461 c 0,12,13
 317 457 317 457 317 347 c 2,14,-1
 317 339 l 2,15,16
 317 316 317 316 319.5 299 c 128,-1,17
 322 282 322 282 328 263 c 128,-1,18
 334 244 334 244 346.5 234 c 128,-1,19
 359 224 359 224 378 224 c 0,20,21
 406 224 406 224 410 246 c 0,22,23
 411 254 411 254 417.5 259 c 128,-1,24
 424 264 424 264 432 264 c 0,25,26
 441 264 441 264 447.5 257.5 c 128,-1,27
 454 251 454 251 454 242 c 2,28,-1
 454 238 l 1,29,30
 450 212 450 212 429 195.5 c 128,-1,31
 408 179 408 179 378 179 c 0,32,33
 274 179 274 179 273 338 c 2,34,-1
 273 343 l 2,35,36
 273 388 273 388 281.5 422 c 128,-1,37
 290 456 290 456 313.5 480.5 c 128,-1,38
 337 505 337 505 375 506 c 0,0,1
363.5 655 m 128,-1,40
 493 655 493 655 584 563.5 c 128,-1,41
 675 472 675 472 675 342.5 c 128,-1,42
 675 213 675 213 584 121.5 c 128,-1,43
 493 30 493 30 363.5 30 c 128,-1,44
 234 30 234 30 142.5 121.5 c 128,-1,45
 51 213 51 213 51 342.5 c 128,-1,46
 51 472 51 472 142.5 563.5 c 128,-1,39
 234 655 234 655 363.5 655 c 128,-1,40
363.5 75 m 128,-1,48
 474 75 474 75 552 153.5 c 128,-1,49
 630 232 630 232 630 342.5 c 128,-1,50
 630 453 630 453 552 531.5 c 128,-1,51
 474 610 474 610 363.5 610 c 128,-1,52
 253 610 253 610 174.5 531.5 c 128,-1,53
 96 453 96 453 96 342.5 c 128,-1,54
 96 232 96 232 174.5 153.5 c 128,-1,47
 253 75 253 75 363.5 75 c 128,-1,48
EndSplineSet
Validated: 1
EndChar

StartChar: ordfeminine
Encoding: 170 170 107
Width: 723
GlyphClass: 2
Flags: W
LayerCount: 2
Fore
SplineSet
459 568 m 0,0,1
 496 533 496 533 496 480 c 2,2,-1
 496 295 l 2,3,4
 496 283 496 283 487.5 274.5 c 128,-1,5
 479 266 479 266 466.5 266 c 128,-1,6
 454 266 454 266 445.5 274.5 c 128,-1,7
 437 283 437 283 437 295 c 2,8,-1
 437 300 l 1,9,10
 392 264 392 264 342 264 c 2,11,-1
 333 264 l 2,12,13
 292 267 292 267 260.5 295 c 128,-1,14
 229 323 229 323 229 365 c 0,15,16
 229 395 229 395 241.5 416 c 128,-1,17
 254 437 254 437 271.5 448 c 128,-1,18
 289 459 289 459 319.5 465.5 c 128,-1,19
 350 472 350 472 375 473.5 c 128,-1,20
 400 475 400 475 437 475 c 1,21,22
 433 510 433 510 419 523 c 0,23,24
 404 537 404 537 370 538 c 0,25,26
 333 538 333 538 305 515 c 0,27,28
 297 509 297 509 286 509 c 0,29,30
 273 509 273 509 264.5 517.5 c 128,-1,31
 256 526 256 526 256 539 c 0,32,33
 256 557 256 557 268 562 c 0,34,35
 313 597 313 597 370 597 c 0,36,37
 372 597 372 597 374 597 c 0,38,39
 428 597 428 597 459 568 c 0,0,1
437 392 m 1,40,-1
 437 416 l 1,41,42
 411 417 411 417 396 417 c 0,43,44
 289 417 289 417 289 365 c 0,45,46
 289 347 289 347 304.5 335.5 c 128,-1,47
 320 324 320 324 337 323 c 2,48,-1
 342 323 l 2,49,50
 394 323 394 323 437 392 c 1,40,-1
EndSplineSet
Validated: 1
EndChar

StartChar: guillemotleft
Encoding: 171 171 108
Width: 723
GlyphClass: 2
Flags: W
LayerCount: 2
Fore
SplineSet
284 255 m 1,0,-1
 372 134 l 2,1,2
 380 123 380 123 380 110 c 0,3,4
 380 101 380 101 375 91 c 0,5,6
 364 69 364 69 339 69 c 0,7,8
 318 69 318 69 305 86 c 2,9,-1
 218 207 l 1,10,11
 203 212 203 212 193 225 c 128,-1,12
 183 238 183 238 183 255 c 128,-1,13
 183 272 183 272 192.5 285 c 128,-1,14
 202 298 202 298 218 303 c 1,15,-1
 305 424 l 2,16,17
 317 441 317 441 339 441 c 0,18,19
 364 441 364 441 375 418 c 0,20,21
 380 408 380 408 380 399 c 0,22,23
 380 387 380 387 372 376 c 2,24,-1
 284 255 l 1,0,-1
449 255 m 1,25,-1
 537 134 l 2,26,27
 545 123 545 123 545 110 c 0,28,29
 545 101 545 101 540 91 c 0,30,31
 529 69 529 69 503 69 c 0,32,33
 482 69 482 69 470 86 c 2,34,-1
 382 207 l 1,35,36
 367 212 367 212 357.5 225 c 128,-1,37
 348 238 348 238 348 255 c 128,-1,38
 348 272 348 272 357.5 285 c 128,-1,39
 367 298 367 298 383 303 c 1,40,-1
 470 424 l 2,41,42
 482 441 482 441 503 441 c 0,43,44
 528 441 528 441 540 418 c 0,45,46
 545 408 545 408 545 399 c 0,47,48
 545 387 545 387 537 376 c 2,49,-1
 449 255 l 1,25,-1
EndSplineSet
Validated: 1
EndChar

StartChar: logicalnot
Encoding: 172 172 109
Width: 723
GlyphClass: 2
Flags: W
LayerCount: 2
Fore
SplineSet
643 409 m 0,0,1
 658 394 658 394 658 373 c 2,2,-1
 658 122 l 2,3,4
 658 101 658 101 643.5 86.5 c 128,-1,5
 629 72 629 72 607.5 72 c 128,-1,6
 586 72 586 72 571.5 86.5 c 128,-1,7
 557 101 557 101 557 122 c 2,8,-1
 557 322 l 1,9,-1
 119 322 l 2,10,11
 98 322 98 322 83 337 c 128,-1,12
 68 352 68 352 68 373 c 128,-1,13
 68 394 68 394 82.5 408.5 c 128,-1,14
 97 423 97 423 119 423 c 2,15,-1
 607 423 l 2,16,17
 608 423 608 423 610 423 c 0,18,19
 629 423 629 423 643 409 c 0,0,1
EndSplineSet
Validated: 1
EndChar

StartChar: registered
Encoding: 174 174 110
Width: 723
GlyphClass: 2
Flags: W
LayerCount: 2
Fore
SplineSet
383 514 m 1,0,-1
 416 458 l 2,1,2
 417 456 417 456 417 452 c 0,3,4
 417 447 417 447 413.5 443.5 c 128,-1,5
 410 440 410 440 405 440 c 0,6,7
 399 440 399 440 396 444 c 2,8,-1
 357 511 l 1,9,-1
 336 511 l 1,10,-1
 336 452 l 2,11,12
 336 447 336 447 332.5 443.5 c 128,-1,13
 329 440 329 440 324 440 c 128,-1,14
 319 440 319 440 315.5 443.5 c 128,-1,15
 312 447 312 447 312 452 c 2,16,-1
 312 599 l 2,17,18
 312 604 312 604 315.5 607.5 c 128,-1,19
 319 611 319 611 324 611 c 2,20,-1
 364 611 l 2,21,22
 384 609 384 609 400 599 c 128,-1,23
 416 589 416 589 416 573 c 0,24,25
 416 526 416 526 383 514 c 1,0,-1
363 535 m 2,26,27
 376 535 376 535 382 541 c 0,28,29
 391 549 391 549 392 573 c 0,30,31
 392 576 392 576 384 580 c 0,32,33
 374 586 374 586 362 587 c 2,34,-1
 336 587 l 1,35,-1
 336 535 l 1,36,-1
 363 535 l 2,26,27
365 692 m 128,-1,38
 434 692 434 692 482.5 643.5 c 128,-1,39
 531 595 531 595 531 525.5 c 128,-1,40
 531 456 531 456 482.5 407.5 c 128,-1,41
 434 359 434 359 365 359 c 128,-1,42
 296 359 296 359 247 407.5 c 128,-1,43
 198 456 198 456 198 525.5 c 128,-1,44
 198 595 198 595 247 643.5 c 128,-1,37
 296 692 296 692 365 692 c 128,-1,38
364.5 403 m 128,-1,46
 415 403 415 403 451 439 c 128,-1,47
 487 475 487 475 487 525.5 c 128,-1,48
 487 576 487 576 451 612 c 128,-1,49
 415 648 415 648 364.5 648 c 128,-1,50
 314 648 314 648 278.5 612 c 128,-1,51
 243 576 243 576 243 525.5 c 128,-1,52
 243 475 243 475 278.5 439 c 128,-1,45
 314 403 314 403 364.5 403 c 128,-1,46
EndSplineSet
Validated: 1
EndChar

StartChar: macron
Encoding: 175 175 111
Width: 723
GlyphClass: 2
Flags: W
LayerCount: 2
Fore
SplineSet
549 636 m 2,0,1
 569 636 569 636 584 621 c 128,-1,2
 599 606 599 606 599 586 c 128,-1,3
 599 566 599 566 584 551 c 128,-1,4
 569 536 569 536 549 536 c 2,5,-1
 177 536 l 2,6,7
 156 536 156 536 141.5 551 c 128,-1,8
 127 566 127 566 127 586 c 128,-1,9
 127 606 127 606 142 621 c 128,-1,10
 157 636 157 636 177 636 c 2,11,-1
 549 636 l 2,0,1
EndSplineSet
Validated: 1
EndChar

StartChar: degree
Encoding: 176 176 112
Width: 723
GlyphClass: 2
Flags: W
LayerCount: 2
Fore
SplineSet
363 692 m 0,0,1
 423 692 423 692 460 653.5 c 128,-1,2
 497 615 497 615 497 561 c 0,3,4
 497 502 497 502 456.5 464 c 128,-1,5
 416 426 416 426 361 426 c 0,6,7
 303 426 303 426 266 464 c 128,-1,8
 229 502 229 502 229 558 c 128,-1,9
 229 614 229 614 268 653 c 0,10,11
 306 692 306 692 363 692 c 0,0,1
362 473 m 0,12,13
 396 473 396 473 419 498 c 128,-1,14
 442 523 442 523 442 560 c 0,15,16
 442 593 442 593 422 619 c 128,-1,17
 402 645 402 645 362 645 c 0,18,19
 325 645 325 645 304.5 618 c 128,-1,20
 284 591 284 591 284 556 c 128,-1,21
 284 521 284 521 306.5 497 c 128,-1,22
 329 473 329 473 362 473 c 0,12,13
EndSplineSet
Validated: 1
EndChar

StartChar: plusminus
Encoding: 177 177 113
Width: 723
GlyphClass: 2
Flags: W
LayerCount: 2
Fore
SplineSet
161 450 m 2,0,1
 140 450 140 450 125 464.5 c 128,-1,2
 110 479 110 479 110 500 c 128,-1,3
 110 521 110 521 125 536 c 128,-1,4
 140 551 140 551 161 551 c 2,5,-1
 312 551 l 1,6,-1
 312 731 l 2,7,8
 312 752 312 752 326.5 766.5 c 128,-1,9
 341 781 341 781 362.5 781 c 128,-1,10
 384 781 384 781 398.5 766 c 128,-1,11
 413 751 413 751 413 731 c 2,12,-1
 413 551 l 1,13,-1
 565 551 l 2,14,15
 585 551 585 551 600 536 c 128,-1,16
 615 521 615 521 615 500.5 c 128,-1,17
 615 480 615 480 600 465 c 128,-1,18
 585 450 585 450 565 450 c 2,19,-1
 413 450 l 1,20,-1
 413 269 l 2,21,22
 413 249 413 249 398 233.5 c 128,-1,23
 383 218 383 218 362.5 218 c 128,-1,24
 342 218 342 218 327 233 c 128,-1,25
 312 248 312 248 312 269 c 2,26,-1
 312 450 l 1,27,-1
 161 450 l 2,0,1
110 110 m 128,-1,29
 110 148 110 148 116.5 154.5 c 128,-1,30
 123 161 123 161 161 161 c 2,31,-1
 565 161 l 2,32,33
 603 161 603 161 609 154.5 c 128,-1,34
 615 148 615 148 615 110 c 128,-1,35
 615 72 615 72 609 66 c 128,-1,36
 603 60 603 60 565 60 c 2,37,-1
 161 60 l 2,38,39
 123 60 123 60 116.5 66 c 128,-1,28
 110 72 110 72 110 110 c 128,-1,29
EndSplineSet
Validated: 1
EndChar

StartChar: uni00B2
Encoding: 178 178 114
Width: 723
GlyphClass: 2
Flags: W
LayerCount: 2
Fore
SplineSet
457 423 m 2,0,1
 468 423 468 423 475 415 c 128,-1,2
 482 407 482 407 482 396.5 c 128,-1,3
 482 386 482 386 474.5 378.5 c 128,-1,4
 467 371 467 371 457 371 c 2,5,-1
 275 371 l 2,6,7
 265 371 265 371 257 378.5 c 128,-1,8
 249 386 249 386 249 397 c 2,9,-1
 249 408 l 2,10,11
 249 449 249 449 254 466 c 0,12,13
 270 520 270 520 349 571 c 0,14,15
 400 604 400 604 414 622 c 128,-1,16
 428 640 428 640 428 660 c 0,17,18
 428 686 428 686 409.5 702 c 128,-1,19
 391 718 391 718 363 718 c 0,20,21
 313 718 313 718 284 696 c 0,22,23
 276 691 276 691 269 691 c 0,24,25
 259 691 259 691 251 699 c 128,-1,26
 243 707 243 707 243 717 c 0,27,28
 243 733 243 733 254 738 c 0,29,30
 299 770 299 770 363 770 c 0,31,32
 413 770 413 770 446 739.5 c 128,-1,33
 479 709 479 709 479 660 c 0,34,35
 479 636 479 636 470.5 615.5 c 128,-1,36
 462 595 462 595 443.5 578 c 128,-1,37
 425 561 425 561 413 552 c 128,-1,38
 401 543 401 543 377 528 c 0,39,40
 356 515 356 515 347.5 508.5 c 128,-1,41
 339 502 339 502 326 489 c 128,-1,42
 313 476 313 476 307.5 460 c 128,-1,43
 302 444 302 444 301 423 c 1,44,-1
 457 423 l 2,0,1
EndSplineSet
Validated: 1
EndChar

StartChar: uni00B3
Encoding: 179 179 115
Width: 723
GlyphClass: 2
Flags: W
LayerCount: 2
Fore
SplineSet
387 620 m 1,0,1
 434 608 434 608 462.5 577 c 128,-1,2
 491 546 491 546 491 500 c 2,3,-1
 491 491 l 2,4,5
 489 433 489 433 446.5 399.5 c 128,-1,6
 404 366 404 366 341 366 c 0,7,8
 326 366 326 366 310.5 367.5 c 128,-1,9
 295 369 295 369 276 373 c 128,-1,10
 257 377 257 377 245.5 386 c 128,-1,11
 234 395 234 395 234 409 c 0,12,13
 234 420 234 420 242 427.5 c 128,-1,14
 250 435 250 435 260 435 c 0,15,16
 264 435 264 435 270 433 c 0,17,18
 303 418 303 418 341 418 c 0,19,20
 382 418 382 418 409.5 437.5 c 128,-1,21
 437 457 437 457 439 494 c 2,22,-1
 439 498 l 2,23,24
 439 536 439 536 408 555 c 128,-1,25
 377 574 377 574 332 574 c 0,26,27
 321 574 321 574 313.5 582 c 128,-1,28
 306 590 306 590 306 600.5 c 128,-1,29
 306 611 306 611 312 616 c 2,30,-1
 408 718 l 1,31,-1
 262 718 l 2,32,33
 251 718 251 718 243.5 725.5 c 128,-1,34
 236 733 236 733 236 744 c 128,-1,35
 236 755 236 755 243.5 762.5 c 128,-1,36
 251 770 251 770 262 770 c 2,37,-1
 452 770 l 2,38,39
 463 770 463 770 470.5 762 c 128,-1,40
 478 754 478 754 478 744 c 2,41,-1
 478 725 l 2,42,43
 478 716 478 716 470 708 c 2,44,-1
 387 620 l 1,0,1
EndSplineSet
Validated: 1
EndChar

StartChar: acute
Encoding: 180 180 116
Width: 723
GlyphClass: 2
Flags: W
LayerCount: 2
Fore
SplineSet
417 687 m 0,0,1
 437 687 437 687 452 672 c 128,-1,2
 467 657 467 657 467 637 c 0,3,4
 467 623 467 623 459 610 c 2,5,-1
 399 515 l 1,6,7
 385 501 385 501 363 501 c 0,8,9
 343 501 343 501 328 515.5 c 128,-1,10
 313 530 313 530 313 551 c 0,11,12
 313 565 313 565 321 578 c 2,13,-1
 381 673 l 2,14,15
 394 687 394 687 417 687 c 0,0,1
EndSplineSet
Validated: 1
EndChar

StartChar: mu
Encoding: 181 181 117
Width: 723
GlyphClass: 2
Flags: W
LayerCount: 2
Fore
SplineSet
551 534 m 0,0,1
 571 534 571 534 586.5 518.5 c 128,-1,2
 602 503 602 503 602 483 c 2,3,-1
 602 29 l 2,4,5
 602 9 602 9 586.5 -6 c 128,-1,6
 571 -21 571 -21 551 -21 c 0,7,8
 530 -21 530 -21 515.5 -6.5 c 128,-1,9
 501 8 501 8 501 29 c 2,10,-1
 501 37 l 1,11,12
 432 -24 432 -24 336 -24 c 0,13,14
 334 -24 334 -24 333 -24 c 0,15,16
 271 -22 271 -22 226 4 c 1,17,-1
 226 -149 l 2,18,19
 226 -170 226 -170 211 -185 c 128,-1,20
 196 -200 196 -200 175.5 -200 c 128,-1,21
 155 -200 155 -200 140 -185 c 128,-1,22
 125 -170 125 -170 125 -149 c 2,23,-1
 125 483 l 2,24,25
 125 503 125 503 140 518.5 c 128,-1,26
 155 534 155 534 175 534 c 0,27,28
 196 534 196 534 211 518.5 c 128,-1,29
 226 503 226 503 226 483 c 2,30,-1
 226 277 l 1,31,-1
 226 249 l 2,32,33
 226 214 226 214 228 190.5 c 128,-1,34
 230 167 230 167 236.5 144.5 c 128,-1,35
 243 122 243 122 255 108.5 c 128,-1,36
 267 95 267 95 287 86.5 c 128,-1,37
 307 78 307 78 335 77 c 2,38,-1
 340 77 l 2,39,40
 400 77 400 77 440 119 c 128,-1,41
 480 161 480 161 501 221 c 1,42,-1
 501 483 l 2,43,44
 501 504 501 504 515.5 519 c 128,-1,45
 530 534 530 534 551 534 c 0,0,1
EndSplineSet
Validated: 1
EndChar

StartChar: paragraph
Encoding: 182 182 118
Width: 723
GlyphClass: 2
Flags: W
LayerCount: 2
Fore
SplineSet
540 771 m 1,0,1
 557 767 557 767 568 753.5 c 128,-1,2
 579 740 579 740 579 722 c 2,3,-1
 579 98 l 2,4,5
 579 77 579 77 564.5 62.5 c 128,-1,6
 550 48 550 48 529 48 c 128,-1,7
 508 48 508 48 493 62.5 c 128,-1,8
 478 77 478 77 478 98 c 2,9,-1
 478 720 l 1,10,-1
 407 720 l 1,11,-1
 407 86 l 2,12,13
 407 71 407 71 396 60 c 128,-1,14
 385 49 385 49 369 49 c 2,15,-1
 343 49 l 2,16,17
 328 49 328 49 317 60 c 128,-1,18
 306 71 306 71 306 86 c 2,19,-1
 306 368 l 1,20,21
 242 380 242 380 193.5 430 c 128,-1,22
 145 480 145 480 145 559 c 0,23,24
 145 592 145 592 152.5 622 c 128,-1,25
 160 652 160 652 179.5 682 c 128,-1,26
 199 712 199 712 229.5 733 c 128,-1,27
 260 754 260 754 309.5 767.5 c 128,-1,28
 359 781 359 781 423 781 c 0,29,30
 503 781 503 781 541 772 c 1,31,-1
 540 771 l 1,0,1
EndSplineSet
Validated: 1
EndChar

StartChar: periodcentered
Encoding: 183 183 119
Width: 723
GlyphClass: 2
Flags: W
LayerCount: 2
Fore
SplineSet
362 330 m 128,-1,1
 388 330 388 330 404.5 312 c 128,-1,2
 421 294 421 294 422 266 c 0,3,4
 422 238 422 238 405 220 c 128,-1,5
 388 202 388 202 361 202 c 0,6,7
 335 202 335 202 318 220 c 0,8,9
 302 237 302 237 301 264 c 0,10,11
 301 294 301 294 318.5 312 c 128,-1,0
 336 330 336 330 362 330 c 128,-1,1
EndSplineSet
Validated: 1
EndChar

StartChar: cedilla
Encoding: 184 184 120
Width: 723
GlyphClass: 2
Flags: W
LayerCount: 2
Fore
SplineSet
401 94 m 1,0,1
 448 79 448 79 477.5 40 c 128,-1,2
 507 1 507 1 507 -50 c 0,3,4
 507 -113 507 -113 463 -156.5 c 128,-1,5
 419 -200 419 -200 356 -200 c 2,6,-1
 349 -200 l 2,7,8
 329 -198 329 -198 315 -184 c 128,-1,9
 301 -170 301 -170 301 -150 c 128,-1,10
 301 -130 301 -130 315.5 -115 c 128,-1,11
 330 -100 330 -100 351 -100 c 2,12,-1
 356 -100 l 2,13,14
 377 -100 377 -100 392 -85 c 128,-1,15
 407 -70 407 -70 407 -50 c 0,16,17
 407 -29 407 -29 392.5 -14.5 c 128,-1,18
 378 0 378 0 358 0 c 2,19,-1
 351 0 l 2,20,21
 331 0 331 0 316 15 c 128,-1,22
 301 30 301 30 301 50 c 2,23,-1
 301 147 l 2,24,25
 301 167 301 167 315.5 182 c 128,-1,26
 330 197 330 197 351 197 c 128,-1,27
 372 197 372 197 386.5 182.5 c 128,-1,28
 401 168 401 168 401 147 c 2,29,-1
 401 94 l 1,0,1
EndSplineSet
Validated: 1
EndChar

StartChar: uni00B9
Encoding: 185 185 121
Width: 723
GlyphClass: 2
Flags: W
LayerCount: 2
Fore
SplineSet
416 770 m 2,0,1
 426 770 426 770 434 762.5 c 128,-1,2
 442 755 442 755 442 745 c 2,3,-1
 442 401 l 2,4,5
 442 391 442 391 434.5 383.5 c 128,-1,6
 427 376 427 376 416.5 376 c 128,-1,7
 406 376 406 376 398.5 383.5 c 128,-1,8
 391 391 391 391 391 401 c 2,9,-1
 391 703 l 1,10,-1
 326 648 l 2,11,12
 319 642 319 642 309 642 c 0,13,14
 298 642 298 642 291 649.5 c 128,-1,15
 284 657 284 657 284 667 c 0,16,17
 284 679 284 679 292 685 c 2,18,-1
 384 764 l 2,19,20
 391 770 391 770 400 770 c 2,21,-1
 416 770 l 2,0,1
EndSplineSet
Validated: 1
EndChar

StartChar: ordmasculine
Encoding: 186 186 122
Width: 723
GlyphClass: 2
Flags: W
LayerCount: 2
Fore
SplineSet
363 597 m 0,0,1
 432 597 432 597 472 550 c 128,-1,2
 512 503 512 503 512 430 c 0,3,4
 512 358 512 358 472 311 c 128,-1,5
 432 264 432 264 363 264 c 0,6,7
 293 264 293 264 253.5 310.5 c 128,-1,8
 214 357 214 357 214 430 c 128,-1,9
 214 503 214 503 253.5 550 c 128,-1,10
 293 597 293 597 363 597 c 0,0,1
363 323 m 128,-1,12
 407 323 407 323 429.5 353 c 128,-1,13
 452 383 452 383 452 430 c 128,-1,14
 452 477 452 477 429 507.5 c 128,-1,15
 406 538 406 538 363 538 c 0,16,17
 319 538 319 538 296.5 507.5 c 128,-1,18
 274 477 274 477 274 430 c 128,-1,19
 274 383 274 383 296.5 353 c 128,-1,11
 319 323 319 323 363 323 c 128,-1,12
EndSplineSet
Validated: 1
EndChar

StartChar: guillemotright
Encoding: 187 187 123
Width: 723
GlyphClass: 2
Flags: W
LayerCount: 2
Fore
SplineSet
378 255 m 128,-1,1
 378 238 378 238 368 225 c 128,-1,2
 358 212 358 212 343 207 c 1,3,-1
 255 86 l 2,4,5
 243 69 243 69 222 69 c 0,6,7
 197 69 197 69 186 91 c 0,8,9
 181 101 181 101 181 110 c 0,10,11
 181 122 181 122 189 134 c 2,12,-1
 276 255 l 1,13,-1
 189 376 l 2,14,15
 181 387 181 387 181 399 c 0,16,17
 181 408 181 408 186 418 c 0,18,19
 197 440 197 440 222 441 c 0,20,21
 243 441 243 441 255 424 c 2,22,-1
 343 303 l 1,23,24
 358 298 358 298 368 285 c 128,-1,0
 378 272 378 272 378 255 c 128,-1,1
542 255 m 128,-1,26
 542 238 542 238 532.5 225 c 128,-1,27
 523 212 523 212 508 207 c 1,28,-1
 420 86 l 2,29,30
 408 69 408 69 387 69 c 0,31,32
 362 69 362 69 350 91 c 0,33,34
 345 101 345 101 345 110 c 0,35,36
 345 122 345 122 354 134 c 2,37,-1
 441 255 l 1,38,-1
 354 376 l 2,39,40
 346 387 346 387 345 399 c 0,41,42
 345 408 345 408 350 418 c 0,43,44
 361 440 361 440 387 441 c 0,45,46
 408 441 408 441 420 424 c 2,47,-1
 508 303 l 1,48,49
 523 298 523 298 532.5 285 c 128,-1,25
 542 272 542 272 542 255 c 128,-1,26
EndSplineSet
Validated: 1
EndChar

StartChar: onequarter
Encoding: 188 188 124
Width: 723
GlyphClass: 2
Flags: W
LayerCount: 2
Fore
SplineSet
514 668 m 128,-1,1
 528 668 528 668 535.5 656 c 128,-1,2
 543 644 543 644 536 631 c 2,3,-1
 180 2 l 2,4,5
 173 -11 173 -11 158 -11 c 0,6,7
 144 -11 144 -11 137 1 c 128,-1,8
 130 13 130 13 137 26 c 2,9,-1
 493 655 l 2,10,0
 500 668 500 668 514 668 c 128,-1,1
152.5 269 m 128,-1,12
 142 269 142 269 134.5 276.5 c 128,-1,13
 127 284 127 284 127 294 c 2,14,-1
 127 596 l 1,15,-1
 62 541 l 2,16,17
 55 535 55 535 45 535 c 0,18,19
 34 535 34 535 27 542.5 c 128,-1,20
 20 550 20 550 20 560 c 0,21,22
 20 572 20 572 28 578 c 2,23,-1
 120 657 l 2,24,25
 127 663 127 663 136 663 c 2,26,-1
 152 663 l 2,27,28
 162 663 162 663 170 655.5 c 128,-1,29
 178 648 178 648 178 638 c 2,30,-1
 178 294 l 2,31,32
 178 284 178 284 170.5 276.5 c 128,-1,11
 163 269 163 269 152.5 269 c 128,-1,12
678 139 m 2,33,34
 689 139 689 139 696 131.5 c 128,-1,35
 703 124 703 124 703 114 c 128,-1,36
 703 104 703 104 695.5 96 c 128,-1,37
 688 88 688 88 678 88 c 2,38,-1
 651 88 l 1,39,-1
 651 26 l 2,40,41
 651 16 651 16 643.5 8 c 128,-1,42
 636 0 636 0 625.5 0 c 128,-1,43
 615 0 615 0 607.5 7.5 c 128,-1,44
 600 15 600 15 600 26 c 2,45,-1
 600 88 l 1,46,-1
 475 88 l 2,47,48
 465 88 465 88 457 95.5 c 128,-1,49
 449 103 449 103 449 114 c 2,50,-1
 449 136 l 2,51,52
 449 143 449 143 452 146 c 2,53,-1
 562 381 l 2,54,55
 568 396 568 396 585 396 c 0,56,57
 595 396 595 396 602.5 388.5 c 128,-1,58
 610 381 610 381 610 371 c 0,59,60
 610 365 610 365 608 360 c 2,61,-1
 504 139 l 1,62,-1
 600 139 l 1,63,-1
 600 198 l 2,64,65
 600 208 600 208 607.5 216 c 128,-1,66
 615 224 615 224 625.5 224 c 128,-1,67
 636 224 636 224 643.5 216 c 128,-1,68
 651 208 651 208 651 198 c 2,69,-1
 651 139 l 1,70,-1
 678 139 l 2,33,34
EndSplineSet
Validated: 1
EndChar

StartChar: onehalf
Encoding: 189 189 125
Width: 723
GlyphClass: 2
Flags: W
LayerCount: 2
Fore
SplineSet
150 269 m 128,-1,1
 140 269 140 269 132.5 276.5 c 128,-1,2
 125 284 125 284 125 294 c 2,3,-1
 125 596 l 1,4,-1
 59 541 l 2,5,6
 52 535 52 535 43 535 c 0,7,8
 32 535 32 535 24.5 542.5 c 128,-1,9
 17 550 17 550 17 560 c 0,10,11
 17 572 17 572 25 578 c 2,12,-1
 117 657 l 2,13,14
 124 663 124 663 134 663 c 2,15,-1
 150 663 l 2,16,17
 160 663 160 663 167.5 655.5 c 128,-1,18
 175 648 175 648 175 638 c 2,19,-1
 175 294 l 2,20,21
 175 284 175 284 167.5 276.5 c 128,-1,0
 160 269 160 269 150 269 c 128,-1,1
680 52 m 2,22,23
 691 52 691 52 698.5 44.5 c 128,-1,24
 706 37 706 37 706 26.5 c 128,-1,25
 706 16 706 16 698 8 c 128,-1,26
 690 0 690 0 680 0 c 2,27,-1
 498 0 l 2,28,29
 488 0 488 0 480 8 c 128,-1,30
 472 16 472 16 472 26 c 2,31,-1
 472 37 l 2,32,33
 472 78 472 78 477 95 c 0,34,35
 493 149 493 149 573 201 c 0,36,37
 624 234 624 234 637 251 c 0,38,39
 651 269 651 269 651 289 c 0,40,41
 651 315 651 315 632.5 331.5 c 128,-1,42
 614 348 614 348 587 348 c 0,43,44
 537 348 537 348 507 325 c 0,45,46
 499 320 499 320 492 321 c 0,47,48
 482 321 482 321 474 328.5 c 128,-1,49
 466 336 466 336 466 346 c 0,50,51
 466 362 466 362 477 368 c 0,52,53
 521 399 521 399 583 399 c 0,54,55
 585 399 585 399 587 399 c 0,56,57
 637 399 637 399 669.5 368.5 c 128,-1,58
 702 338 702 338 702 289 c 0,59,60
 702 265 702 265 693.5 244.5 c 128,-1,61
 685 224 685 224 666.5 207 c 128,-1,62
 648 190 648 190 636 181 c 128,-1,63
 624 172 624 172 601 157 c 0,64,65
 580 144 580 144 571 137.5 c 128,-1,66
 562 131 562 131 549 118 c 128,-1,67
 536 105 536 105 530.5 89 c 128,-1,68
 525 73 525 73 524 52 c 1,69,-1
 680 52 l 2,22,23
506 668 m 128,-1,71
 520 668 520 668 527.5 656 c 128,-1,72
 535 644 535 644 528 631 c 2,73,-1
 172 2 l 2,74,75
 165 -11 165 -11 150 -11 c 0,76,77
 136 -11 136 -11 129 1 c 128,-1,78
 122 13 122 13 129 26 c 2,79,-1
 485 655 l 2,80,70
 492 668 492 668 506 668 c 128,-1,71
EndSplineSet
Validated: 1
EndChar

StartChar: threequarters
Encoding: 190 190 126
Width: 723
GlyphClass: 2
Flags: W
LayerCount: 2
Fore
SplineSet
265 389 m 2,0,1
 263 331 263 331 220 297.5 c 128,-1,2
 177 264 177 264 115 264 c 0,3,4
 100 264 100 264 84.5 265.5 c 128,-1,5
 69 267 69 267 50 271 c 128,-1,6
 31 275 31 275 19.5 284 c 128,-1,7
 8 293 8 293 8 307 c 0,8,9
 8 318 8 318 15.5 325.5 c 128,-1,10
 23 333 23 333 34 333 c 0,11,12
 38 333 38 333 44 331 c 0,13,14
 77 316 77 316 115 316 c 0,15,16
 156 316 156 316 183.5 335.5 c 128,-1,17
 211 355 211 355 213 392 c 2,18,-1
 213 396 l 2,19,20
 213 434 213 434 182 453 c 128,-1,21
 151 472 151 472 106 472 c 0,22,23
 95 472 95 472 87.5 480 c 128,-1,24
 80 488 80 488 80 498.5 c 128,-1,25
 80 509 80 509 85 514 c 2,26,-1
 182 616 l 1,27,-1
 36 616 l 2,28,29
 25 616 25 616 17 623.5 c 128,-1,30
 9 631 9 631 9 642 c 128,-1,31
 9 653 9 653 17 660.5 c 128,-1,32
 25 668 25 668 36 668 c 2,33,-1
 226 668 l 2,34,35
 237 668 237 668 244.5 660 c 128,-1,36
 252 652 252 652 252 642 c 2,37,-1
 252 623 l 2,38,39
 252 614 252 614 244 606 c 2,40,-1
 160 518 l 1,41,42
 207 506 207 506 236 475 c 128,-1,43
 265 444 265 444 265 398 c 2,44,-1
 265 389 l 2,0,1
690 139 m 2,45,46
 701 139 701 139 708 131.5 c 128,-1,47
 715 124 715 124 715 114 c 128,-1,48
 715 104 715 104 707.5 96 c 128,-1,49
 700 88 700 88 690 88 c 2,50,-1
 663 88 l 1,51,-1
 663 26 l 2,52,53
 663 16 663 16 655.5 8 c 128,-1,54
 648 0 648 0 637.5 0 c 128,-1,55
 627 0 627 0 619.5 7.5 c 128,-1,56
 612 15 612 15 612 26 c 2,57,-1
 612 88 l 1,58,-1
 487 88 l 2,59,60
 477 88 477 88 469 95.5 c 128,-1,61
 461 103 461 103 461 114 c 2,62,-1
 461 136 l 2,63,64
 461 143 461 143 464 146 c 2,65,-1
 574 381 l 2,66,67
 580 396 580 396 597 396 c 0,68,69
 607 396 607 396 614.5 388.5 c 128,-1,70
 622 381 622 381 622 371 c 0,71,72
 622 365 622 365 620 360 c 2,73,-1
 516 139 l 1,74,-1
 612 139 l 1,75,-1
 612 198 l 2,76,77
 612 208 612 208 619.5 216 c 128,-1,78
 627 224 627 224 637.5 224 c 128,-1,79
 648 224 648 224 655.5 216 c 128,-1,80
 663 208 663 208 663 198 c 2,81,-1
 663 139 l 1,82,-1
 690 139 l 2,45,46
553 668 m 128,-1,84
 567 668 567 668 574 656 c 128,-1,85
 581 644 581 644 574 631 c 2,86,-1
 218 2 l 2,87,88
 211 -11 211 -11 197 -11 c 128,-1,89
 183 -11 183 -11 175.5 1 c 128,-1,90
 168 13 168 13 175 26 c 2,91,-1
 531 655 l 2,92,83
 539 668 539 668 553 668 c 128,-1,84
EndSplineSet
Validated: 1
EndChar

StartChar: questiondown
Encoding: 191 191 127
Width: 723
GlyphClass: 2
Flags: W
LayerCount: 2
Fore
SplineSet
340 437 m 2,0,1
 319 437 319 437 304.5 452 c 128,-1,2
 290 467 290 467 290 487 c 2,3,-1
 290 532 l 2,4,5
 290 552 290 552 304.5 567 c 128,-1,6
 319 582 319 582 340 582 c 2,7,-1
 386 582 l 2,8,9
 407 582 407 582 421.5 567 c 128,-1,10
 436 552 436 552 436 532 c 2,11,-1
 436 487 l 2,12,13
 436 467 436 467 421.5 452 c 128,-1,14
 407 437 407 437 386 437 c 2,15,-1
 340 437 l 2,0,1
534 42 m 0,16,17
 554 42 554 42 568 28.5 c 128,-1,18
 582 15 582 15 584 -5 c 2,19,-1
 584 -16 l 2,20,21
 584 -94 584 -94 524.5 -145.5 c 128,-1,22
 465 -197 465 -197 381 -200 c 2,23,-1
 372 -200 l 2,24,25
 287 -200 287 -200 231 -152 c 128,-1,26
 175 -104 175 -104 170 -25 c 1,27,-1
 170 -11 l 2,28,29
 170 84 170 84 250 153 c 0,30,31
 254 156 254 156 269.5 168.5 c 128,-1,32
 285 181 285 181 291.5 187 c 128,-1,33
 298 193 298 193 305.5 204 c 128,-1,34
 313 215 313 215 313 224 c 2,35,-1
 313 307 l 2,36,37
 313 328 313 328 328 342.5 c 128,-1,38
 343 357 343 357 363 357 c 128,-1,39
 383 357 383 357 398 342 c 128,-1,40
 413 327 413 327 413 307 c 2,41,-1
 413 224 l 2,42,43
 413 212 413 212 411.5 201.5 c 128,-1,44
 410 191 410 191 405.5 181 c 128,-1,45
 401 171 401 171 398 163.5 c 128,-1,46
 395 156 395 156 386.5 146 c 128,-1,47
 378 136 378 136 374.5 131 c 128,-1,48
 371 126 371 126 360 116 c 128,-1,49
 349 106 349 106 346 103 c 128,-1,50
 343 100 343 100 330 89 c 128,-1,51
 317 78 317 78 315 77 c 0,52,53
 293 57 293 57 281.5 38 c 128,-1,54
 270 19 270 19 270 -10 c 2,55,-1
 270 -19 l 2,56,57
 270 -58 270 -58 300 -79 c 128,-1,58
 330 -100 330 -100 372 -100 c 0,59,60
 417 -100 417 -100 450.5 -77 c 128,-1,61
 484 -54 484 -54 484 -14 c 2,62,-1
 484 -8 l 2,63,64
 484 12 484 12 498.5 27 c 128,-1,65
 513 42 513 42 534 42 c 0,16,17
EndSplineSet
Validated: 1
EndChar

StartChar: Adieresis
Encoding: 196 196 128
Width: 723
GlyphClass: 2
Flags: W
LayerCount: 2
Fore
SplineSet
442 676 m 2,0,-1
 608 40 l 1,1,2
 608 20 608 20 592 5 c 128,-1,3
 576 -10 576 -10 556 -10 c 0,4,5
 540 -10 540 -10 526 1 c 128,-1,6
 512 12 512 12 508 27 c 2,7,-1
 464 199 l 1,8,-1
 262 199 l 1,9,-1
 218 27 l 2,10,11
 214 12 214 12 200 1 c 128,-1,12
 186 -10 186 -10 170 -10 c 0,13,14
 150 -10 150 -10 134 5 c 128,-1,15
 118 20 118 20 118 40 c 1,16,-1
 284 676 l 2,17,18
 288 689 288 689 300 698 c 0,19,20
 314 707 314 707 330 707 c 2,21,-1
 396 707 l 2,22,23
 412 707 412 707 425 698 c 128,-1,24
 438 689 438 689 442 676 c 2,0,-1
288 299 m 1,25,-1
 438 299 l 1,26,-1
 364 589 l 1,27,-1
 288 299 l 1,25,-1
113 723 m 2,28,29
 113 743 113 743 128 758 c 128,-1,30
 143 773 143 773 163 773 c 128,-1,31
 183 773 183 773 198 758 c 128,-1,32
 213 743 213 743 213 723 c 2,33,-1
 213 666 l 2,34,35
 213 646 213 646 198.5 631 c 128,-1,36
 184 616 184 616 163 616 c 128,-1,37
 142 616 142 616 127.5 631 c 128,-1,38
 113 646 113 646 113 666 c 2,39,-1
 113 723 l 2,28,29
513 723 m 2,40,41
 513 743 513 743 528 758 c 128,-1,42
 543 773 543 773 563 773 c 128,-1,43
 583 773 583 773 598 758 c 128,-1,44
 613 743 613 743 613 723 c 2,45,-1
 613 666 l 2,46,47
 613 646 613 646 598.5 631 c 128,-1,48
 584 616 584 616 563 616 c 128,-1,49
 542 616 542 616 527.5 631 c 128,-1,50
 513 646 513 646 513 666 c 2,51,-1
 513 723 l 2,40,41
EndSplineSet
Validated: 1
EndChar

StartChar: AE
Encoding: 198 198 129
Width: 723
GlyphClass: 2
Flags: W
LayerCount: 2
Fore
SplineSet
-55 39 m 1,0,-1
 108 667 l 2,1,2
 112 683 112 683 125.5 693.5 c 128,-1,3
 139 704 139 704 156 704 c 2,4,-1
 706 704 l 2,5,6
 726 704 726 704 742 689 c 0,7,8
 756 674 756 674 756 654 c 128,-1,9
 756 634 756 634 741 619 c 128,-1,10
 726 604 726 604 706 604 c 2,11,-1
 291 604 l 1,12,-1
 340 416 l 1,13,-1
 706 416 l 2,14,15
 726 416 726 416 741 401 c 128,-1,16
 756 386 756 386 756 366 c 128,-1,17
 756 346 756 346 742 331 c 0,18,19
 727 316 727 316 706 316 c 2,20,-1
 365 316 l 1,21,-1
 421 101 l 1,22,-1
 706 101 l 2,23,24
 726 101 726 101 742 86 c 0,25,26
 756 71 756 71 756 51 c 128,-1,27
 756 31 756 31 741 16 c 128,-1,28
 726 1 726 1 706 1 c 2,29,-1
 383 1 l 2,30,31
 345 1 345 1 334 39 c 2,32,-1
 293 199 l 1,33,-1
 90 199 l 1,34,-1
 46 27 l 1,35,36
 32 -10 32 -10 -3 -10 c 0,37,38
 -23 -10 -23 -10 -39 5 c 128,-1,39
 -55 20 -55 20 -55 39 c 1,0,-1
116 299 m 1,40,-1
 267 299 l 1,41,-1
 191 590 l 1,42,-1
 116 299 l 1,40,-1
EndSplineSet
Validated: 1
EndChar

StartChar: Odieresis
Encoding: 214 214 130
Width: 723
GlyphClass: 2
Flags: W
LayerCount: 2
Fore
SplineSet
113 666 m 2,0,-1
 113 723 l 2,1,2
 113 744 113 744 128 758.5 c 128,-1,3
 143 773 143 773 163 773 c 128,-1,4
 183 773 183 773 198 758 c 128,-1,5
 213 743 213 743 213 723 c 2,6,-1
 213 666 l 2,7,8
 213 646 213 646 198.5 631 c 128,-1,9
 184 616 184 616 163 616 c 128,-1,10
 142 616 142 616 127.5 630.5 c 128,-1,11
 113 645 113 645 113 666 c 2,0,-1
121 303 m 0,12,13
 121 415 121 415 167 496.5 c 128,-1,14
 213 578 213 578 295 607 c 0,15,16
 325 618 325 618 363 618 c 0,17,18
 480 618 480 618 542 527 c 128,-1,19
 604 436 604 436 604 303 c 0,20,21
 604 125 604 125 497 35 c 0,22,23
 436 -13 436 -13 363 -13 c 128,-1,24
 290 -13 290 -13 229 35 c 0,25,26
 121 121 121 121 121 303 c 0,12,13
221 303 m 0,27,28
 221 146 221 146 314 99 c 0,29,30
 319 98 319 98 329 94.5 c 128,-1,31
 339 91 339 91 347 89 c 128,-1,32
 355 87 355 87 363 87 c 0,33,34
 434 87 434 87 469 151 c 128,-1,35
 504 215 504 215 504 303 c 0,36,37
 504 390 504 390 469 454.5 c 128,-1,38
 434 519 434 519 363 519 c 128,-1,39
 292 519 292 519 256.5 454.5 c 128,-1,40
 221 390 221 390 221 303 c 0,27,28
513 666 m 2,41,-1
 513 723 l 2,42,43
 513 744 513 744 528 758.5 c 128,-1,44
 543 773 543 773 563 773 c 128,-1,45
 583 773 583 773 598 758 c 128,-1,46
 613 743 613 743 613 723 c 2,47,-1
 613 666 l 2,48,49
 613 646 613 646 598.5 631 c 128,-1,50
 584 616 584 616 563 616 c 128,-1,51
 542 616 542 616 527.5 630.5 c 128,-1,52
 513 645 513 645 513 666 c 2,41,-1
EndSplineSet
Validated: 1
EndChar

StartChar: Oslash
Encoding: 216 216 131
Width: 723
GlyphClass: 2
Flags: W
LayerCount: 2
Fore
SplineSet
642 740 m 0,0,1
 644 733 644 733 644 727 c 0,2,3
 644 714 644 714 637 702 c 2,4,-1
 560 578 l 1,5,6
 580 536 580 536 592 487 c 0,7,8
 608 422 608 422 608 354 c 128,-1,9
 608 286 608 286 592 221 c 128,-1,10
 576 156 576 156 545.5 103.5 c 128,-1,11
 515 51 515 51 467 19 c 128,-1,12
 419 -13 419 -13 361 -13 c 128,-1,13
 303 -13 303 -13 255 19 c 0,14,15
 240 29 240 29 226 42 c 1,16,-1
 172 -46 l 2,17,18
 162 -63 162 -63 142 -68 c 0,19,20
 135 -70 135 -70 129 -70 c 0,21,22
 116 -70 116 -70 103 -63 c 0,23,24
 85 -52 85 -52 81 -32 c 0,25,26
 79 -26 79 -26 79 -20 c 0,27,28
 79 -7 79 -7 87 6 c 2,29,-1
 164 130 l 1,30,31
 142 176 142 176 131 221 c 0,32,33
 114 290 114 290 114 354 c 0,34,35
 114 356 114 356 114 358 c 0,36,37
 114 424 114 424 131 487 c 0,38,39
 149 554 149 554 178 604 c 0,40,41
 207 657 207 657 255 689 c 128,-1,42
 303 721 303 721 361 721 c 128,-1,43
 419 721 419 721 467 689 c 0,44,45
 483 679 483 679 497 666 c 1,46,-1
 551 754 l 2,47,48
 562 772 562 772 583 777 c 0,49,50
 589 778 589 778 595 778 c 0,51,52
 608 778 608 778 620 771 c 0,53,54
 637 761 637 761 642 740 c 0,0,1
223 265 m 0,55,56
 224 259 224 259 229 236 c 1,57,-1
 443 580 l 1,58,59
 433 592 433 592 428 596 c 0,60,61
 399 622 399 622 362 622 c 2,62,63
 362 622 362 622 361 622 c 0,64,65
 324 621 324 621 294.5 595.5 c 128,-1,66
 265 570 265 570 248 529 c 0,67,68
 230 485 230 485 222 443 c 0,69,70
 214 400 214 400 214 359 c 0,71,72
 214 356 214 356 214 354 c 0,73,74
 215 310 215 310 223 265 c 0,55,56
500 443 m 0,75,76
 497 457 497 457 494 472 c 1,77,-1
 280 128 l 1,78,79
 290 117 290 117 295 112 c 0,80,81
 323 86 323 86 360 86 c 2,82,83
 360 86 360 86 361 86 c 0,84,85
 398 87 398 87 427.5 112.5 c 128,-1,86
 457 138 457 138 474 179 c 128,-1,87
 491 220 491 220 499.5 265 c 128,-1,88
 508 310 508 310 508 354 c 128,-1,89
 508 398 508 398 500 443 c 0,75,76
EndSplineSet
Validated: 1
EndChar

StartChar: Udieresis
Encoding: 220 220 132
Width: 723
GlyphClass: 2
Flags: W
LayerCount: 2
Fore
SplineSet
127.5 687.5 m 128,-1,1
 113 702 113 702 113 723 c 128,-1,2
 113 744 113 744 128 758.5 c 128,-1,3
 143 773 143 773 163 773 c 2,4,-1
 213 773 l 2,5,6
 234 773 234 773 249 758.5 c 128,-1,7
 264 744 264 744 264 723 c 128,-1,8
 264 702 264 702 249.5 687.5 c 128,-1,9
 235 673 235 673 213 673 c 2,10,-1
 163 673 l 2,11,0
 142 673 142 673 127.5 687.5 c 128,-1,1
113 286 m 2,12,-1
 113 537 l 2,13,14
 113 558 113 558 128 572.5 c 128,-1,15
 143 587 143 587 163 587 c 128,-1,16
 183 587 183 587 198 572 c 128,-1,17
 213 557 213 557 213 537 c 2,18,-1
 213 286 l 2,19,20
 213 172 213 172 243 133 c 0,21,22
 279 87 279 87 363 87 c 0,23,24
 481 87 481 87 503 178 c 0,25,26
 513 217 513 217 513 286 c 2,27,-1
 513 537 l 2,28,29
 513 558 513 558 528 572.5 c 128,-1,30
 543 587 543 587 563 587 c 128,-1,31
 583 587 583 587 598 572 c 128,-1,32
 613 557 613 557 613 537 c 2,33,-1
 613 286 l 2,34,35
 613 141 613 141 554 64 c 128,-1,36
 495 -13 495 -13 363 -13 c 128,-1,37
 231 -13 231 -13 172 64 c 128,-1,38
 113 141 113 141 113 286 c 2,12,-1
475.5 688 m 128,-1,40
 461 703 461 703 461 723 c 128,-1,41
 461 743 461 743 476 758 c 128,-1,42
 491 773 491 773 511 773 c 2,43,-1
 563 773 l 2,44,45
 583 773 583 773 598 758 c 128,-1,46
 613 743 613 743 613 723 c 128,-1,47
 613 703 613 703 598.5 688 c 128,-1,48
 584 673 584 673 563 673 c 2,49,-1
 511 673 l 2,50,39
 490 673 490 673 475.5 688 c 128,-1,40
EndSplineSet
Validated: 1
EndChar

StartChar: germandbls
Encoding: 223 223 133
Width: 723
GlyphClass: 2
Flags: W
LayerCount: 2
Fore
SplineSet
136 37 m 2,0,-1
 136 457 l 2,1,2
 136 571 136 571 163 645 c 0,3,4
 192 724 192 724 269 754 c 0,5,6
 309 770 309 770 363 770 c 0,7,8
 462 770 462 770 526 715 c 0,9,10
 572 675 572 675 586 608 c 0,11,12
 591 583 591 583 591 560 c 0,13,14
 591 520 591 520 576 484 c 0,15,16
 559 441 559 441 521 408 c 1,17,18
 610 348 610 348 613 218 c 0,19,20
 613 123 613 123 567 59 c 128,-1,21
 521 -5 521 -5 438 -7 c 0,22,23
 418 -7 418 -7 402.5 8.5 c 128,-1,24
 387 24 387 24 387 43 c 128,-1,25
 387 62 387 62 401.5 76.5 c 128,-1,26
 416 91 416 91 435 93 c 0,27,28
 475 94 475 94 494 130 c 0,29,30
 513 165 513 165 513 210 c 0,31,32
 513 214 513 214 513 219 c 0,33,34
 511 270 511 270 485 305 c 0,35,36
 465 332 465 332 430 339 c 0,37,38
 425 340 425 340 410 341 c 128,-1,39
 395 342 395 342 385.5 345 c 128,-1,40
 376 348 376 348 368 356 c 0,41,42
 353 370 353 370 353 391 c 0,43,44
 353 428 353 428 366 442.5 c 128,-1,45
 379 457 379 457 398 457 c 0,46,47
 436 461 436 461 463 491.5 c 128,-1,48
 490 522 490 522 490 565 c 0,49,50
 490 616 490 616 455 643 c 128,-1,51
 420 670 420 670 363 670 c 0,52,53
 328 670 328 670 304 658.5 c 128,-1,54
 280 647 280 647 266 630 c 0,55,56
 242 599 242 599 238 525 c 0,57,58
 236 499 236 499 236 457 c 2,59,-1
 236 37 l 2,60,61
 236 17 236 17 221 2 c 128,-1,62
 206 -13 206 -13 186 -13 c 128,-1,63
 166 -13 166 -13 151 1.5 c 128,-1,64
 136 16 136 16 136 37 c 2,0,-1
EndSplineSet
Validated: 1
EndChar

StartChar: adieresis
Encoding: 228 228 134
Width: 723
GlyphClass: 2
Flags: W
LayerCount: 2
Fore
SplineSet
514 494 m 0,0,1
 576 435 576 435 576 347 c 2,2,-1
 576 37 l 2,3,4
 576 17 576 17 561 2 c 128,-1,5
 546 -13 546 -13 526 -13 c 128,-1,6
 506 -13 506 -13 491 1.5 c 128,-1,7
 476 16 476 16 476 37 c 2,8,-1
 476 45 l 1,9,10
 401 -16 401 -16 316 -16 c 2,11,-1
 302 -16 l 1,12,13
 234 -10 234 -10 180.5 36.5 c 128,-1,14
 127 83 127 83 127 154 c 0,15,16
 127 190 127 190 137.5 218.5 c 128,-1,17
 148 247 148 247 165 266 c 128,-1,18
 182 285 182 285 210 298.5 c 128,-1,19
 238 312 238 312 265 320 c 128,-1,20
 292 328 292 328 331 332 c 0,21,22
 380 337 380 337 401 338 c 128,-1,23
 422 339 422 339 448 339 c 0,24,25
 457 339 457 339 476 339 c 1,26,27
 470 398 470 398 446 420 c 0,28,29
 421 444 421 444 363 444 c 0,30,31
 301 444 301 444 254 406 c 0,32,33
 241 396 241 396 223 396 c 0,34,35
 202 396 202 396 187.5 410.5 c 128,-1,36
 173 425 173 425 173 446 c 0,37,38
 173 457 173 457 178 469 c 128,-1,39
 183 481 183 481 192 485 c 0,40,41
 268 544 268 544 363 544 c 0,42,43
 460 544 460 544 514 494 c 0,0,1
476 200 m 1,44,-1
 476 240 l 1,45,46
 432 242 432 242 407 242 c 0,47,48
 369 242 369 242 340 238.5 c 128,-1,49
 311 235 311 235 284 226 c 128,-1,50
 257 217 257 217 242 199 c 128,-1,51
 227 181 227 181 227 154 c 0,52,53
 227 124 227 124 253.5 105 c 128,-1,54
 280 86 280 86 309 84 c 2,55,-1
 317 84 l 2,56,57
 405 84 405 84 476 200 c 1,44,-1
266 559 m 128,-1,59
 245 559 245 559 230.5 574 c 128,-1,60
 216 589 216 589 216 609 c 2,61,-1
 216 666 l 2,62,63
 216 686 216 686 231 701 c 128,-1,64
 246 716 246 716 266 716 c 128,-1,65
 286 716 286 716 301 701 c 128,-1,66
 316 686 316 686 316 666 c 2,67,-1
 316 609 l 2,68,69
 316 589 316 589 301.5 574 c 128,-1,58
 287 559 287 559 266 559 c 128,-1,59
437 559 m 128,-1,71
 416 559 416 559 401.5 574 c 128,-1,72
 387 589 387 589 387 609 c 2,73,-1
 387 666 l 2,74,75
 387 686 387 686 402 701 c 128,-1,76
 417 716 417 716 437.5 716 c 128,-1,77
 458 716 458 716 472.5 701 c 128,-1,78
 487 686 487 686 487 666 c 2,79,-1
 487 609 l 2,80,81
 487 589 487 589 472.5 574 c 128,-1,70
 458 559 458 559 437 559 c 128,-1,71
EndSplineSet
Validated: 1
EndChar

StartChar: ae
Encoding: 230 230 135
Width: 723
GlyphClass: 2
Flags: W
LayerCount: 2
Fore
SplineSet
724 472.5 m 128,-1,1
 784 401 784 401 784 286 c 0,2,3
 784 266 784 266 769 251 c 128,-1,4
 754 236 754 236 734 236 c 2,5,-1
 414 236 l 1,6,7
 421 165 421 165 458 124.5 c 128,-1,8
 495 84 495 84 563 84 c 0,9,10
 621 84 621 84 647 110 c 0,11,12
 661 124 661 124 681 124 c 0,13,14
 702 124 702 124 717 109.5 c 128,-1,15
 732 95 732 95 732 74 c 0,16,17
 732 28 732 28 684.5 6.5 c 128,-1,18
 637 -15 637 -15 570 -15 c 0,19,20
 516 -15 516 -15 475 -2 c 0,21,22
 440 10 440 10 413 31 c 1,23,24
 411 15 411 15 398 2 c 0,25,26
 383 -13 383 -13 363 -13 c 128,-1,27
 343 -13 343 -13 328 1.5 c 128,-1,28
 313 16 313 16 313 37 c 2,29,-1
 313 45 l 1,30,31
 238 -16 238 -16 153 -16 c 2,32,-1
 139 -16 l 1,33,34
 71 -10 71 -10 17.5 36.5 c 128,-1,35
 -36 83 -36 83 -36 154 c 0,36,37
 -36 190 -36 190 -25.5 218.5 c 128,-1,38
 -15 247 -15 247 2 266 c 128,-1,39
 19 285 19 285 47 298.5 c 128,-1,40
 75 312 75 312 102 320 c 128,-1,41
 129 328 129 328 168 332 c 0,42,43
 217 337 217 337 238 338 c 128,-1,44
 259 339 259 339 285 339 c 0,45,46
 294 339 294 339 313 339 c 1,47,48
 307 398 307 398 283 420 c 0,49,50
 258 444 258 444 200 444 c 0,51,52
 138 444 138 444 91 406 c 0,53,54
 78 396 78 396 60 396 c 0,55,56
 39 396 39 396 24.5 410.5 c 128,-1,57
 10 425 10 425 10 446 c 0,58,59
 10 457 10 457 15 469 c 128,-1,60
 20 481 20 481 29 485 c 0,61,62
 105 544 105 544 200 544 c 0,63,64
 297 544 297 544 351 494 c 0,65,66
 365 481 365 481 376 466 c 1,67,68
 439 542 439 542 547 544 c 2,69,-1
 553 544 l 2,70,0
 664 544 664 544 724 472.5 c 128,-1,1
313 200 m 1,71,-1
 313 240 l 1,72,73
 269 242 269 242 244 242 c 0,74,75
 206 242 206 242 177 238.5 c 128,-1,76
 148 235 148 235 121 226 c 128,-1,77
 94 217 94 217 79 199 c 128,-1,78
 64 181 64 181 64 154 c 0,79,80
 64 124 64 124 90.5 105 c 128,-1,81
 117 86 117 86 146 84 c 2,82,-1
 154 84 l 2,83,84
 242 84 242 84 313 200 c 1,71,-1
419 336 m 1,85,-1
 676 336 l 1,86,87
 665 392 665 392 637.5 418 c 128,-1,88
 610 444 610 444 549 444 c 0,89,90
 449 444 449 444 419 336 c 1,85,-1
EndSplineSet
Validated: 1
EndChar

StartChar: odieresis
Encoding: 246 246 136
Width: 723
GlyphClass: 2
Flags: W
LayerCount: 2
Fore
SplineSet
363 544 m 0,0,1
 478 544 478 544 545.5 464.5 c 128,-1,2
 613 385 613 385 613 263 c 0,3,4
 613 142 613 142 546 63 c 128,-1,5
 479 -16 479 -16 363 -16 c 0,6,7
 246 -16 246 -16 179.5 62.5 c 128,-1,8
 113 141 113 141 113 263 c 0,9,10
 113 386 113 386 179 465 c 128,-1,11
 245 544 245 544 363 544 c 0,0,1
363 84 m 128,-1,13
 437 84 437 84 475 134 c 128,-1,14
 513 184 513 184 513 263 c 128,-1,15
 513 342 513 342 474.5 393 c 128,-1,16
 436 444 436 444 363 444 c 128,-1,17
 290 444 290 444 251.5 393 c 128,-1,18
 213 342 213 342 213 263 c 128,-1,19
 213 184 213 184 251 134 c 128,-1,12
 289 84 289 84 363 84 c 128,-1,13
277 559 m 128,-1,21
 256 559 256 559 241.5 574 c 128,-1,22
 227 589 227 589 227 609 c 2,23,-1
 227 666 l 2,24,25
 227 686 227 686 242 701 c 128,-1,26
 257 716 257 716 277 716 c 128,-1,27
 297 716 297 716 312 701 c 128,-1,28
 327 686 327 686 327 666 c 2,29,-1
 327 609 l 2,30,31
 327 589 327 589 312.5 574 c 128,-1,20
 298 559 298 559 277 559 c 128,-1,21
448.5 559 m 128,-1,33
 428 559 428 559 413 574 c 128,-1,34
 398 589 398 589 398 609 c 2,35,-1
 398 666 l 2,36,37
 398 686 398 686 413 701 c 128,-1,38
 428 716 428 716 448.5 716 c 128,-1,39
 469 716 469 716 483.5 701 c 128,-1,40
 498 686 498 686 498 666 c 2,41,-1
 498 609 l 2,42,43
 498 589 498 589 483.5 574 c 128,-1,32
 469 559 469 559 448.5 559 c 128,-1,33
EndSplineSet
Validated: 1
EndChar

StartChar: oslash
Encoding: 248 248 137
Width: 722
GlyphClass: 2
Flags: W
LayerCount: 2
Fore
SplineSet
644 578 m 4,0,1
 661 564 661 564 661 540 c 4,2,3
 661 523 661 523 649 508 c 6,4,-1
 576 424 l 5,5,6
 615 356 615 356 615 263 c 4,7,8
 615 142 615 142 548 63 c 132,-1,9
 481 -16 481 -16 365 -16 c 4,10,11
 285 -16 285 -16 228 21 c 5,12,-1
 158 -61 l 6,13,14
 143 -78 143 -78 124 -78 c 4,15,16
 122 -78 122 -78 121 -78 c 132,-1,17
 120 -78 120 -78 119 -78 c 132,-1,18
 118 -78 118 -78 117 -78 c 132,-1,19
 116 -78 116 -78 115 -78 c 4,20,21
 104 -79 104 -79 88 -66 c 4,22,23
 70 -51 70 -51 70 -27 c 4,24,25
 71 -9 71 -9 82 5 c 6,26,-1
 159 94 l 5,27,28
 115 164 115 164 115 263 c 4,29,30
 115 386 115 386 181 465 c 132,-1,31
 247 544 247 544 365 544 c 4,32,33
 450 544 450 544 510 500 c 5,34,-1
 573 573 l 6,35,36
 587 589 587 589 608 590 c 4,37,38
 609 591 609 591 612 591 c 4,39,40
 632 588 632 588 644 578 c 4,0,1
215 263 m 4,41,42
 215 214 215 214 230 176 c 5,43,-1
 444 424 l 5,44,45
 412 444 412 444 365 444 c 4,46,47
 292 444 292 444 253.5 393 c 132,-1,48
 215 342 215 342 215 263 c 4,41,42
515 263 m 4,49,50
 515 306 515 306 504 340 c 5,51,-1
 296 99 l 5,52,53
 326 84 326 84 365 84 c 4,54,55
 439 84 439 84 477 134 c 132,-1,56
 515 184 515 184 515 263 c 4,49,50
EndSplineSet
Validated: 1
EndChar

StartChar: udieresis
Encoding: 252 252 138
Width: 723
GlyphClass: 2
Flags: W
LayerCount: 2
Fore
SplineSet
127 486 m 2,0,1
 127 506 127 506 142 521 c 128,-1,2
 157 536 157 536 176 536 c 0,3,4
 196 536 196 536 211.5 521 c 128,-1,5
 227 506 227 506 227 486 c 2,6,-1
 227 257 l 2,7,8
 227 168 227 168 247.5 127 c 128,-1,9
 268 86 268 86 335 84 c 2,10,-1
 340 84 l 2,11,12
 400 84 400 84 439.5 125.5 c 128,-1,13
 479 167 479 167 499 227 c 1,14,-1
 499 486 l 2,15,16
 499 507 499 507 514 521.5 c 128,-1,17
 529 536 529 536 549 536 c 128,-1,18
 569 536 569 536 584 521 c 128,-1,19
 599 506 599 506 599 486 c 2,20,-1
 599 37 l 2,21,22
 599 17 599 17 584 2 c 128,-1,23
 569 -13 569 -13 549 -13 c 128,-1,24
 529 -13 529 -13 514 1.5 c 128,-1,25
 499 16 499 16 499 37 c 2,26,-1
 499 45 l 1,27,28
 430 -16 430 -16 333 -16 c 0,29,30
 256 -13 256 -13 206 25.5 c 128,-1,31
 156 64 156 64 137 130 c 0,32,33
 127 168 127 168 127 257 c 2,34,-1
 127 486 l 2,0,1
277 559 m 128,-1,36
 256 559 256 559 241.5 574 c 128,-1,37
 227 589 227 589 227 609 c 2,38,-1
 227 666 l 2,39,40
 227 686 227 686 242 701 c 128,-1,41
 257 716 257 716 277.5 716 c 128,-1,42
 298 716 298 716 312.5 701 c 128,-1,43
 327 686 327 686 327 666 c 2,44,-1
 327 609 l 2,45,46
 327 589 327 589 312.5 574 c 128,-1,35
 298 559 298 559 277 559 c 128,-1,36
449 559 m 128,-1,48
 428 559 428 559 413.5 574 c 128,-1,49
 399 589 399 589 399 609 c 2,50,-1
 399 666 l 2,51,52
 399 686 399 686 413.5 701 c 128,-1,53
 428 716 428 716 448.5 716 c 128,-1,54
 469 716 469 716 484 701 c 128,-1,55
 499 686 499 686 499 666 c 2,56,-1
 499 609 l 2,57,58
 499 589 499 589 484.5 574 c 128,-1,47
 470 559 470 559 449 559 c 128,-1,48
EndSplineSet
Validated: 1
EndChar

StartChar: dotlessi
Encoding: 305 305 139
Width: 723
GlyphClass: 2
Flags: W
LayerCount: 2
Fore
SplineSet
196 439 m 128,-1,1
 181 454 181 454 181 474 c 128,-1,2
 181 494 181 494 195.5 509 c 128,-1,3
 210 524 210 524 231 524 c 2,4,-1
 411 524 l 2,5,6
 432 524 432 524 446.5 509.5 c 128,-1,7
 461 495 461 495 461 474 c 2,8,-1
 461 37 l 2,9,10
 461 16 461 16 446 1.5 c 128,-1,11
 431 -13 431 -13 411 -13 c 128,-1,12
 391 -13 391 -13 376 2 c 128,-1,13
 361 17 361 17 361 37 c 2,14,-1
 361 424 l 1,15,-1
 231 424 l 2,16,0
 211 424 211 424 196 439 c 128,-1,1
EndSplineSet
Validated: 1
EndChar

StartChar: OE
Encoding: 338 338 140
Width: 723
GlyphClass: 2
Flags: W
LayerCount: 2
Fore
SplineSet
706 101 m 2,0,1
 727 101 727 101 741.5 86.5 c 128,-1,2
 756 72 756 72 756 51 c 128,-1,3
 756 30 756 30 741 15.5 c 128,-1,4
 726 1 726 1 706 1 c 2,5,-1
 364 1 l 2,6,7
 344 1 344 1 329 15.5 c 128,-1,8
 314 30 314 30 314 51 c 2,9,-1
 314 55 l 1,10,11
 295 35 295 35 272 19 c 0,12,13
 224 -13 224 -13 166 -13 c 128,-1,14
 108 -13 108 -13 60 19 c 128,-1,15
 12 51 12 51 -18 103.5 c 128,-1,16
 -48 156 -48 156 -64.5 221 c 128,-1,17
 -81 286 -81 286 -81 354 c 128,-1,18
 -81 422 -81 422 -64.5 487 c 128,-1,19
 -48 552 -48 552 -18 604.5 c 128,-1,20
 12 657 12 657 60 689 c 128,-1,21
 108 721 108 721 166 721 c 128,-1,22
 224 721 224 721 272 689 c 0,23,24
 295 674 295 674 314 653 c 1,25,26
 314 672 314 672 328 686 c 128,-1,27
 342 700 342 700 364 701 c 2,28,-1
 706 701 l 2,29,30
 727 701 727 701 741.5 686.5 c 128,-1,31
 756 672 756 672 756 651 c 128,-1,32
 756 630 756 630 741 615.5 c 128,-1,33
 726 601 726 601 706 601 c 2,34,-1
 414 601 l 1,35,-1
 414 416 l 1,36,-1
 658 416 l 2,37,38
 678 416 678 416 693 401 c 128,-1,39
 708 386 708 386 708 366 c 128,-1,40
 708 346 708 346 694 331 c 0,41,42
 679 316 679 316 658 316 c 2,43,-1
 414 316 l 1,44,-1
 414 101 l 1,45,-1
 706 101 l 2,0,1
304.5 265 m 128,-1,47
 313 310 313 310 313 354 c 128,-1,48
 313 398 313 398 304.5 443 c 128,-1,49
 296 488 296 488 279 529 c 128,-1,50
 262 570 262 570 232.5 595.5 c 128,-1,51
 203 621 203 621 166 621 c 128,-1,52
 129 621 129 621 99.5 595.5 c 128,-1,53
 70 570 70 570 53 529 c 128,-1,54
 36 488 36 488 27.5 443 c 128,-1,55
 19 398 19 398 19 354 c 128,-1,56
 19 310 19 310 27.5 265 c 128,-1,57
 36 220 36 220 53 179 c 128,-1,58
 70 138 70 138 99.5 112.5 c 128,-1,59
 129 87 129 87 166 87 c 128,-1,60
 203 87 203 87 232.5 112.5 c 128,-1,61
 262 138 262 138 279 179 c 128,-1,46
 296 220 296 220 304.5 265 c 128,-1,47
EndSplineSet
Validated: 1
EndChar

StartChar: oe
Encoding: 339 339 141
Width: 672
GlyphClass: 2
Flags: W
LayerCount: 2
Fore
SplineSet
673 472.5 m 128,-1,1
 733 401 733 401 733 286 c 0,2,3
 733 266 733 266 718 251 c 128,-1,4
 703 236 703 236 683 236 c 2,5,-1
 363 236 l 1,6,7
 370 165 370 165 407 124.5 c 128,-1,8
 444 84 444 84 512 84 c 0,9,10
 570 84 570 84 596 110 c 0,11,12
 610 124 610 124 630 124 c 0,13,14
 651 124 651 124 666 109.5 c 128,-1,15
 681 95 681 95 681 74 c 0,16,17
 681 28 681 28 633.5 6.5 c 128,-1,18
 586 -15 586 -15 519 -15 c 0,19,20
 465 -15 465 -15 424 -2 c 0,21,22
 389 10 389 10 362 31 c 1,23,24
 360 15 360 15 347 2 c 0,25,26
 332 -13 332 -13 312 -13 c 128,-1,27
 292 -13 292 -13 277 1.5 c 128,-1,28
 262 16 262 16 262 37 c 2,29,-1
 262 45 l 1,30,31
 187 -16 187 -16 102 -16 c 2,32,-1
 88 -16 l 1,33,34
 20 -10 20 -10 -33.5 36.5 c 128,-1,35
 -87 83 -87 83 -87 154 c 0,36,37
 -87 190 -87 190 -76.5 218.5 c 128,-1,38
 -66 247 -66 247 -49 266 c 128,-1,39
 -32 285 -32 285 -4 298.5 c 128,-1,40
 24 312 24 312 51 320 c 128,-1,41
 78 328 78 328 117 332 c 0,42,43
 166 337 166 337 187 338 c 128,-1,44
 208 339 208 339 234 339 c 0,45,46
 243 339 243 339 262 339 c 1,47,48
 256 398 256 398 232 420 c 0,49,50
 207 444 207 444 149 444 c 0,51,52
 87 444 87 444 40 406 c 0,53,54
 27 396 27 396 9 396 c 0,55,56
 -12 396 -12 396 -26.5 410.5 c 128,-1,57
 -41 425 -41 425 -41 446 c 0,58,59
 -41 457 -41 457 -36 469 c 128,-1,60
 -31 481 -31 481 -22 485 c 0,61,62
 54 544 54 544 149 544 c 0,63,64
 246 544 246 544 300 494 c 0,65,66
 314 481 314 481 325 466 c 1,67,68
 388 542 388 542 496 544 c 2,69,-1
 502 544 l 2,70,0
 613 544 613 544 673 472.5 c 128,-1,1
262 200 m 1,71,-1
 262 240 l 1,72,73
 218 242 218 242 193 242 c 0,74,75
 155 242 155 242 126 238.5 c 128,-1,76
 97 235 97 235 70 226 c 128,-1,77
 43 217 43 217 28 199 c 128,-1,78
 13 181 13 181 13 154 c 0,79,80
 13 124 13 124 39.5 105 c 128,-1,81
 66 86 66 86 95 84 c 2,82,-1
 103 84 l 2,83,84
 191 84 191 84 262 200 c 1,71,-1
368 336 m 1,85,-1
 625 336 l 1,86,87
 614 392 614 392 586.5 418 c 128,-1,88
 559 444 559 444 498 444 c 0,89,90
 398 444 398 444 368 336 c 1,85,-1
EndSplineSet
Validated: 1
EndChar

StartChar: dotlessj
Encoding: 567 567 142
Width: 723
GlyphClass: 2
Flags: W
LayerCount: 2
Fore
SplineSet
406 524 m 2,0,1
 426 524 426 524 442 509 c 0,2,3
 456 494 456 494 456 474 c 2,4,-1
 456 57 l 2,5,6
 456 -38 456 -38 437 -79 c 0,7,8
 419 -116 419 -116 384.5 -145.5 c 128,-1,9
 350 -175 350 -175 311 -178 c 0,10,11
 259 -183 259 -183 242 -183 c 0,12,13
 153 -183 153 -183 153 -129 c 0,14,15
 153 -108 153 -108 167.5 -93.5 c 128,-1,16
 182 -79 182 -79 203 -79 c 2,17,-1
 208 -79 l 2,18,19
 224 -81 224 -81 254 -81 c 2,20,-1
 301 -79 l 2,21,22
 313 -79 313 -79 326.5 -64 c 128,-1,23
 340 -49 340 -49 346 -36 c 0,24,25
 356 -15 356 -15 356 57 c 2,26,-1
 356 424 l 1,27,-1
 260 424 l 2,28,29
 240 424 240 424 225 439 c 128,-1,30
 210 454 210 454 210 474 c 128,-1,31
 210 494 210 494 224 509 c 128,-1,32
 238 524 238 524 260 524 c 2,33,-1
 406 524 l 2,0,1
EndSplineSet
Validated: 1
EndChar

StartChar: circumflex
Encoding: 710 710 143
Width: 723
GlyphClass: 2
Flags: W
LayerCount: 2
Fore
SplineSet
113 417 m 0,0,1
 113 432 113 432 121 445 c 2,2,-1
 326 753 l 2,3,4
 340 767 340 767 362 767 c 0,5,6
 389 767 389 767 399 753 c 2,7,-1
 604 445 l 2,8,9
 613 433 613 433 613 417 c 0,10,11
 613 397 613 397 598 382 c 128,-1,12
 583 367 583 367 563 367 c 0,13,14
 542 367 542 367 527 382 c 2,15,-1
 362 556 l 1,16,-1
 198 382 l 2,17,18
 184 367 184 367 163 367 c 0,19,20
 143 367 143 367 128 381.5 c 128,-1,21
 113 396 113 396 113 417 c 0,0,1
EndSplineSet
Validated: 1
EndChar

StartChar: caron
Encoding: 711 711 144
Width: 723
GlyphClass: 2
Flags: W
LayerCount: 2
Fore
SplineSet
113 750 m 0,0,1
 113 771 113 771 127.5 785.5 c 128,-1,2
 142 800 142 800 163 800 c 0,3,4
 185 800 185 800 198 786 c 2,5,-1
 363 604 l 1,6,-1
 528 785 l 2,7,8
 545 800 545 800 563 800 c 0,9,10
 584 800 584 800 598.5 785 c 128,-1,11
 613 770 613 770 613 750 c 0,12,13
 613 732 613 732 600 717 c 2,14,-1
 398 414 l 2,15,16
 385 401 385 401 363 401 c 0,17,18
 340 401 340 401 326 414 c 1,19,-1
 121 723 l 2,20,21
 113 736 113 736 113 750 c 0,0,1
EndSplineSet
Validated: 1
EndChar

StartChar: breve
Encoding: 728 728 145
Width: 723
GlyphClass: 2
Flags: W
LayerCount: 2
Fore
SplineSet
113 747 m 1,0,-1
 113 750 l 2,1,2
 113 771 113 771 127.5 785.5 c 128,-1,3
 142 800 142 800 163 800 c 0,4,5
 183 800 183 800 197 786.5 c 128,-1,6
 211 773 211 773 213 754 c 0,7,8
 218 695 218 695 261 655 c 128,-1,9
 304 615 304 615 363 615 c 128,-1,10
 422 615 422 615 465 655 c 128,-1,11
 508 695 508 695 513 754 c 0,12,13
 515 774 515 774 529 787 c 128,-1,14
 543 800 543 800 563 800 c 0,15,16
 584 800 584 800 598.5 785 c 128,-1,17
 613 770 613 770 613 750 c 2,18,-1
 613 747 l 1,19,20
 606 649 606 649 533.5 582 c 128,-1,21
 461 515 461 515 363 515 c 128,-1,22
 265 515 265 515 192.5 582 c 128,-1,23
 120 649 120 649 113 747 c 1,0,-1
EndSplineSet
Validated: 1
EndChar

StartChar: dotaccent
Encoding: 729 729 146
Width: 723
GlyphClass: 2
Flags: W
LayerCount: 2
Fore
SplineSet
385 622 m 2,0,1
 405 622 405 622 420 607 c 128,-1,2
 435 592 435 592 435 572 c 2,3,-1
 435 526 l 2,4,5
 435 505 435 505 420 490.5 c 128,-1,6
 405 476 405 476 385 476 c 2,7,-1
 340 476 l 2,8,9
 320 476 320 476 305 490 c 0,10,11
 290 506 290 506 290 526 c 2,12,-1
 290 572 l 2,13,14
 290 593 290 593 305 607.5 c 128,-1,15
 320 622 320 622 340 622 c 2,16,-1
 385 622 l 2,0,1
EndSplineSet
Validated: 1
EndChar

StartChar: tilde
Encoding: 732 732 147
Width: 723
GlyphClass: 2
Flags: W
LayerCount: 2
Fore
SplineSet
549 710 m 0,0,1
 569 710 569 710 584 695 c 128,-1,2
 599 680 599 680 599 660 c 0,3,4
 599 656 599 656 597 650 c 0,5,6
 587 600 587 600 547.5 567.5 c 128,-1,7
 508 535 508 535 458 535 c 0,8,9
 455 536 455 536 451 536 c 128,-1,10
 447 536 447 536 444 536 c 0,11,12
 394 541 394 541 333 589 c 0,13,14
 290 621 290 621 261 621 c 0,15,16
 234 621 234 621 226 587 c 0,17,18
 223 570 223 570 209 558.5 c 128,-1,19
 195 547 195 547 177 547 c 0,20,21
 157 547 157 547 142 562 c 128,-1,22
 127 577 127 577 127 597 c 2,23,-1
 127 607 l 1,24,25
 137 657 137 657 177.5 689.5 c 128,-1,26
 218 722 218 722 268 722 c 0,27,28
 271 722 271 722 275 722 c 128,-1,29
 279 722 279 722 282 721 c 0,30,31
 332 716 332 716 393 668 c 0,32,33
 436 636 436 636 465 636 c 0,34,35
 492 636 492 636 500 670 c 0,36,37
 501 687 501 687 516 698.5 c 128,-1,38
 531 710 531 710 549 710 c 0,0,1
EndSplineSet
Validated: 1
EndChar

StartChar: Gamma
Encoding: 915 915 148
Width: 723
GlyphClass: 2
Flags: W
LayerCount: 2
Fore
SplineSet
141 51 m 2,0,-1
 141 663 l 2,1,2
 141 683 141 683 156 698 c 128,-1,3
 171 713 171 713 191 713 c 2,4,-1
 563 713 l 2,5,6
 583 713 583 713 598 698 c 128,-1,7
 613 683 613 683 613 663 c 2,8,-1
 613 543 l 2,9,10
 613 523 613 523 598.5 508 c 128,-1,11
 584 493 584 493 563 493 c 128,-1,12
 542 493 542 493 527.5 507.5 c 128,-1,13
 513 522 513 522 513 543 c 2,14,-1
 513 613 l 1,15,-1
 241 613 l 1,16,-1
 241 51 l 2,17,18
 241 30 241 30 226 15.5 c 128,-1,19
 211 1 211 1 191 1 c 128,-1,20
 171 1 171 1 156 16 c 128,-1,21
 141 31 141 31 141 51 c 2,0,-1
EndSplineSet
Validated: 1
EndChar

StartChar: Theta
Encoding: 920 920 149
Width: 723
GlyphClass: 2
Flags: W
LayerCount: 2
Fore
SplineSet
271 318.5 m 128,-1,1
 256 333 256 333 256 354 c 128,-1,2
 256 375 256 375 270.5 389.5 c 128,-1,3
 285 404 285 404 306 404 c 2,4,-1
 420 404 l 2,5,6
 441 404 441 404 455.5 389 c 128,-1,7
 470 374 470 374 470 354 c 128,-1,8
 470 334 470 334 455 319 c 128,-1,9
 440 304 440 304 420 304 c 2,10,-1
 306 304 l 2,11,0
 286 304 286 304 271 318.5 c 128,-1,1
257 689 m 128,-1,13
 305 721 305 721 363 721 c 128,-1,14
 421 721 421 721 469 689 c 128,-1,15
 517 657 517 657 547 604.5 c 128,-1,16
 577 552 577 552 593.5 487 c 128,-1,17
 610 422 610 422 610 354 c 128,-1,18
 610 286 610 286 593.5 221 c 128,-1,19
 577 156 577 156 547 103.5 c 128,-1,20
 517 51 517 51 469 19 c 128,-1,21
 421 -13 421 -13 363 -13 c 128,-1,22
 305 -13 305 -13 257 19 c 128,-1,23
 209 51 209 51 179 103.5 c 128,-1,24
 149 156 149 156 132.5 221 c 128,-1,25
 116 286 116 286 116 354 c 128,-1,26
 116 422 116 422 132.5 487 c 128,-1,27
 149 552 149 552 179 604.5 c 128,-1,12
 209 657 209 657 257 689 c 128,-1,13
296.5 112.5 m 128,-1,29
 326 87 326 87 363 87 c 128,-1,30
 400 87 400 87 429.5 112.5 c 128,-1,31
 459 138 459 138 476 179 c 128,-1,32
 493 220 493 220 501.5 265 c 128,-1,33
 510 310 510 310 510 354 c 128,-1,34
 510 398 510 398 501.5 443 c 128,-1,35
 493 488 493 488 476 529 c 128,-1,36
 459 570 459 570 429.5 595.5 c 128,-1,37
 400 621 400 621 363 621 c 128,-1,38
 326 621 326 621 296.5 595.5 c 128,-1,39
 267 570 267 570 250 529 c 128,-1,40
 233 488 233 488 224.5 443 c 128,-1,41
 216 398 216 398 216 354 c 128,-1,42
 216 310 216 310 224.5 265 c 128,-1,43
 233 220 233 220 250 179 c 128,-1,28
 267 138 267 138 296.5 112.5 c 128,-1,29
EndSplineSet
Validated: 1
EndChar

StartChar: Lambda
Encoding: 923 923 150
Width: 723
GlyphClass: 2
Flags: W
LayerCount: 2
Fore
SplineSet
141 40 m 0,0,1
 141 56 141 56 151.5 69.5 c 128,-1,2
 162 83 162 83 178 88 c 1,3,-1
 314 668 l 2,4,5
 318 685 318 685 332 696 c 128,-1,6
 346 707 346 707 363 707 c 0,7,8
 381 707 381 707 394.5 695.5 c 128,-1,9
 408 684 408 684 412 668 c 2,10,-1
 545 88 l 1,11,12
 584 77 584 77 584 40 c 0,13,14
 584 19 584 19 569 4.5 c 128,-1,15
 554 -10 554 -10 534 -10 c 2,16,-1
 477 -10 l 2,17,18
 457 -10 457 -10 442 5 c 128,-1,19
 427 20 427 20 427 40 c 0,20,21
 427 64 427 64 446 78 c 1,22,-1
 363 435 l 1,23,-1
 280 78 l 1,24,25
 299 64 299 64 299 40 c 0,26,27
 299 20 299 20 284 5 c 128,-1,28
 269 -10 269 -10 249 -10 c 2,29,-1
 191 -10 l 2,30,31
 171 -10 171 -10 156 5 c 128,-1,32
 141 20 141 20 141 40 c 0,0,1
EndSplineSet
Validated: 1
EndChar

StartChar: Xi
Encoding: 926 926 151
Width: 723
GlyphClass: 2
Flags: W
LayerCount: 2
Fore
SplineSet
139 616 m 128,-1,1
 124 631 124 631 124 651 c 128,-1,2
 124 671 124 671 138 686 c 128,-1,3
 152 701 152 701 174 701 c 2,4,-1
 551 701 l 2,5,6
 572 701 572 701 586.5 686.5 c 128,-1,7
 601 672 601 672 601 651 c 128,-1,8
 601 630 601 630 586 615.5 c 128,-1,9
 571 601 571 601 551 601 c 2,10,-1
 174 601 l 2,11,0
 154 601 154 601 139 616 c 128,-1,1
139 16 m 128,-1,13
 124 31 124 31 124 51 c 128,-1,14
 124 71 124 71 138 86 c 128,-1,15
 152 101 152 101 174 101 c 2,16,-1
 551 101 l 2,17,18
 572 101 572 101 586.5 86.5 c 128,-1,19
 601 72 601 72 601 51 c 128,-1,20
 601 30 601 30 586 15.5 c 128,-1,21
 571 1 571 1 551 1 c 2,22,-1
 174 1 l 2,23,12
 154 1 154 1 139 16 c 128,-1,13
198 331 m 128,-1,25
 184 346 184 346 184 366 c 128,-1,26
 184 386 184 386 199 401 c 128,-1,27
 214 416 214 416 234 416 c 2,28,-1
 491 416 l 2,29,30
 511 416 511 416 526 401.5 c 128,-1,31
 541 387 541 387 541 366 c 128,-1,32
 541 345 541 345 526.5 330.5 c 128,-1,33
 512 316 512 316 491 316 c 2,34,-1
 234 316 l 2,35,24
 212 316 212 316 198 331 c 128,-1,25
EndSplineSet
Validated: 1
EndChar

StartChar: Pi
Encoding: 928 928 152
Width: 723
GlyphClass: 2
Flags: W
LayerCount: 2
Fore
SplineSet
128 698.5 m 128,-1,1
 143 713 143 713 163 713 c 2,2,-1
 563 713 l 2,3,4
 583 713 583 713 598 698 c 128,-1,5
 613 683 613 683 613 663 c 0,6,7
 613 632 613 632 584 618 c 1,8,-1
 584 40 l 2,9,10
 584 19 584 19 569 4.5 c 128,-1,11
 554 -10 554 -10 534 -10 c 128,-1,12
 514 -10 514 -10 499 5 c 128,-1,13
 484 20 484 20 484 40 c 2,14,-1
 484 613 l 1,15,-1
 241 613 l 1,16,-1
 241 40 l 2,17,18
 241 19 241 19 226 4.5 c 128,-1,19
 211 -10 211 -10 191 -10 c 128,-1,20
 171 -10 171 -10 156 5 c 128,-1,21
 141 20 141 20 141 40 c 2,22,-1
 141 618 l 1,23,24
 113 631 113 631 113 663 c 0,25,0
 113 684 113 684 128 698.5 c 128,-1,1
EndSplineSet
Validated: 1
EndChar

StartChar: Sigma
Encoding: 931 931 153
Width: 723
GlyphClass: 2
Flags: W
LayerCount: 2
Fore
SplineSet
159 51 m 0,0,1
 159 60 159 60 162 69 c 2,2,-1
 267 351 l 1,3,-1
 162 634 l 2,4,5
 159 642 159 642 159 651 c 0,6,7
 159 672 159 672 173.5 686.5 c 128,-1,8
 188 701 188 701 209 701 c 2,9,-1
 551 701 l 2,10,11
 572 701 572 701 586.5 686.5 c 128,-1,12
 601 672 601 672 601 651 c 2,13,-1
 601 623 l 2,14,15
 601 602 601 602 586.5 587.5 c 128,-1,16
 572 573 572 573 551 573 c 0,17,18
 520 573 520 573 506 601 c 1,19,-1
 280 601 l 1,20,-1
 367 369 l 2,21,22
 370 360 370 360 370 351 c 0,23,24
 370 341 370 341 367 334 c 2,25,-1
 280 101 l 1,26,-1
 506 101 l 1,27,28
 520 130 520 130 551 130 c 0,29,30
 571 130 571 130 586 115.5 c 128,-1,31
 601 101 601 101 601 80 c 2,32,-1
 601 51 l 2,33,34
 601 30 601 30 586 15.5 c 128,-1,35
 571 1 571 1 551 1 c 2,36,-1
 209 1 l 2,37,38
 189 1 189 1 174 15.5 c 128,-1,39
 159 30 159 30 159 51 c 0,0,1
EndSplineSet
Validated: 1
EndChar

StartChar: Upsilon
Encoding: 933 933 154
Width: 723
GlyphClass: 2
Flags: W
LayerCount: 2
Fore
SplineSet
156 571 m 2,0,-1
 156 580 l 1,1,2
 164 625 164 625 198.5 651.5 c 128,-1,3
 233 678 233 678 276 678 c 0,4,5
 326 678 326 678 363 644 c 1,6,7
 400 678 400 678 450 678 c 0,8,9
 493 678 493 678 527 652 c 128,-1,10
 561 626 561 626 569 580 c 1,11,-1
 569 571 l 2,12,13
 569 551 569 551 554.5 536 c 128,-1,14
 540 521 540 521 520 521 c 0,15,16
 502 521 502 521 488 533 c 128,-1,17
 474 545 474 545 471 562 c 0,18,19
 468 580 468 580 449 580 c 2,20,-1
 445 580 l 1,21,22
 413 573 413 573 413 514 c 2,23,-1
 413 37 l 2,24,25
 413 17 413 17 398 2 c 128,-1,26
 383 -13 383 -13 363 -13 c 128,-1,27
 343 -13 343 -13 328 1.5 c 128,-1,28
 313 16 313 16 313 37 c 2,29,-1
 313 514 l 2,30,31
 313 573 313 573 281 580 c 1,32,-1
 277 580 l 2,33,34
 263 580 263 580 253.5 559.5 c 128,-1,35
 244 539 244 539 241 536 c 0,36,37
 226 521 226 521 206 521 c 128,-1,38
 186 521 186 521 171 535.5 c 128,-1,39
 156 550 156 550 156 571 c 2,0,-1
EndSplineSet
Validated: 1
EndChar

StartChar: Phi
Encoding: 934 934 155
Width: 723
GlyphClass: 2
Flags: W
LayerCount: 2
Fore
SplineSet
113 263 m 0,0,1
 113 374 113 374 165.5 447 c 128,-1,2
 218 520 218 520 313 540 c 1,3,-1
 313 569 l 1,4,5
 284 583 284 583 284 614 c 0,6,7
 284 634 284 634 298.5 649 c 128,-1,8
 313 664 313 664 334 664 c 2,9,-1
 391 664 l 2,10,11
 412 664 412 664 426.5 649.5 c 128,-1,12
 441 635 441 635 441 614 c 0,13,14
 441 583 441 583 413 569 c 1,15,-1
 413 540 l 1,16,17
 506 522 506 522 559.5 446 c 128,-1,18
 613 370 613 370 613 263 c 128,-1,19
 613 156 613 156 560 80.5 c 128,-1,20
 507 5 507 5 413 -12 c 1,21,-1
 413 -41 l 1,22,23
 441 -54 441 -54 441 -86 c 0,24,25
 441 -107 441 -107 426 -121.5 c 128,-1,26
 411 -136 411 -136 391 -136 c 2,27,-1
 334 -136 l 2,28,29
 314 -136 314 -136 299 -121 c 128,-1,30
 284 -106 284 -106 284 -86 c 0,31,32
 284 -55 284 -55 313 -41 c 1,33,-1
 313 -12 l 1,34,35
 218 5 218 5 165.5 80 c 128,-1,36
 113 155 113 155 113 263 c 0,0,1
238.5 153.5 m 128,-1,38
 264 107 264 107 313 91 c 1,39,-1
 313 434 l 1,40,41
 284 423 284 423 277 418 c 0,42,43
 213 372 213 372 213 263 c 0,44,37
 213 200 213 200 238.5 153.5 c 128,-1,38
413 91 m 1,45,46
 462 107 462 107 487.5 153.5 c 128,-1,47
 513 200 513 200 513 263 c 0,48,49
 513 327 513 327 487.5 373.5 c 128,-1,50
 462 420 462 420 413 436 c 1,51,-1
 413 91 l 1,45,46
EndSplineSet
Validated: 1
EndChar

StartChar: Psi
Encoding: 936 936 156
Width: 723
GlyphClass: 2
Flags: W
LayerCount: 2
Fore
SplineSet
156 571 m 2,0,1
 156 592 156 592 170.5 606.5 c 128,-1,2
 185 621 185 621 206 621 c 0,3,4
 226 621 226 621 240 607.5 c 128,-1,5
 254 594 254 594 256 574 c 0,6,7
 263 445 263 445 276 290 c 0,8,9
 287 159 287 159 313 116 c 1,10,-1
 313 586 l 2,11,12
 313 607 313 607 328 621.5 c 128,-1,13
 343 636 343 636 363 636 c 128,-1,14
 383 636 383 636 398 621 c 128,-1,15
 413 606 413 606 413 586 c 2,16,-1
 413 116 l 1,17,18
 439 160 439 160 450 290 c 0,19,20
 461 409 461 409 470 574 c 0,21,22
 472 594 472 594 486 607.5 c 128,-1,23
 500 621 500 621 520 621 c 128,-1,24
 540 621 540 621 555 607 c 128,-1,25
 570 593 570 593 570 574 c 2,26,-1
 570 571 l 1,27,-1
 552 281 l 1,28,29
 527 34 527 34 413 -8 c 1,30,-1
 413 -57 l 2,31,32
 413 -77 413 -77 398 -92 c 128,-1,33
 383 -107 383 -107 363 -107 c 128,-1,34
 343 -107 343 -107 328 -92.5 c 128,-1,35
 313 -78 313 -78 313 -57 c 2,36,-1
 313 -8 l 1,37,38
 291 -1 291 -1 273 12.5 c 128,-1,39
 255 26 255 26 242 47 c 128,-1,40
 229 68 229 68 218.5 87.5 c 128,-1,41
 208 107 208 107 200 139 c 0,42,43
 192 174 192 174 188 192 c 0,44,45
 183 212 183 212 179 252 c 0,46,47
 175 290 175 290 173 310 c 0,48,49
 171 328 171 328 168 370 c 0,50,51
 165 415 165 415 164 425 c 2,52,-1
 156 571 l 2,0,1
EndSplineSet
Validated: 1
EndChar

StartChar: quoteleft
Encoding: 8216 8216 157
Width: 723
GlyphClass: 2
Flags: W
LayerCount: 2
Fore
SplineSet
276 720 m 2,0,1
 276 741 276 741 291 755.5 c 128,-1,2
 306 770 306 770 326 770 c 2,3,-1
 407 770 l 2,4,5
 425 768 425 768 438 754 c 128,-1,6
 451 740 451 740 451 723 c 0,7,8
 451 722 451 722 450 720 c 2,9,-1
 429 428 l 1,10,11
 420 387 420 387 380 387 c 2,12,-1
 346 387 l 2,13,14
 326 387 326 387 311.5 399 c 128,-1,15
 297 411 297 411 296 430 c 2,16,-1
 276 720 l 2,0,1
EndSplineSet
Validated: 1
EndChar

StartChar: quoteright
Encoding: 8217 8217 158
Width: 723
GlyphClass: 2
Flags: W
LayerCount: 2
Fore
SplineSet
276 720 m 2,0,1
 276 741 276 741 291 755.5 c 128,-1,2
 306 770 306 770 326 770 c 2,3,-1
 407 770 l 2,4,5
 425 768 425 768 438 754 c 128,-1,6
 451 740 451 740 451 723 c 0,7,8
 451 722 451 722 450 720 c 2,9,-1
 429 428 l 1,10,11
 420 387 420 387 380 387 c 2,12,-1
 346 387 l 2,13,14
 326 387 326 387 311.5 399 c 128,-1,15
 297 411 297 411 296 430 c 2,16,-1
 276 720 l 2,0,1
EndSplineSet
Validated: 1
EndChar

StartChar: quotedblleft
Encoding: 8220 8220 159
Width: 723
GlyphClass: 2
Flags: W
LayerCount: 2
Fore
SplineSet
161 500 m 2,0,-1
 161 720 l 2,1,2
 161 740 161 740 176 755 c 128,-1,3
 191 770 191 770 211 770 c 2,4,-1
 240 770 l 2,5,6
 260 770 260 770 276 756 c 0,7,8
 291 743 291 743 291 727 c 0,9,10
 291 726 291 726 291 725 c 128,-1,11
 291 724 291 724 290.5 722.5 c 128,-1,12
 290 721 290 721 290 720 c 2,13,-1
 261 493 l 2,14,15
 259 476 259 476 245 463 c 128,-1,16
 231 450 231 450 211 450 c 0,17,18
 192 450 192 450 176.5 465 c 128,-1,19
 161 480 161 480 161 500 c 2,0,-1
453 500 m 2,20,-1
 453 720 l 2,21,22
 453 741 453 741 468 755.5 c 128,-1,23
 483 770 483 770 503 770 c 2,24,-1
 526 770 l 2,25,26
 544 770 544 770 560 756 c 128,-1,27
 576 742 576 742 576 724 c 2,28,-1
 576 720 l 1,29,-1
 551 490 l 2,30,31
 547 473 547 473 534.5 461.5 c 128,-1,32
 522 450 522 450 503 450 c 0,33,34
 483 450 483 450 468 465 c 128,-1,35
 453 480 453 480 453 500 c 2,20,-1
EndSplineSet
Validated: 1
EndChar

StartChar: quotedblright
Encoding: 8221 8221 160
Width: 723
GlyphClass: 2
Flags: W
LayerCount: 2
Fore
SplineSet
161 500 m 2,0,-1
 161 720 l 2,1,2
 161 740 161 740 176 755 c 128,-1,3
 191 770 191 770 211 770 c 2,4,-1
 240 770 l 2,5,6
 260 770 260 770 276 756 c 0,7,8
 291 743 291 743 291 727 c 0,9,10
 291 726 291 726 291 725 c 128,-1,11
 291 724 291 724 290.5 722.5 c 128,-1,12
 290 721 290 721 290 720 c 2,13,-1
 261 493 l 2,14,15
 259 476 259 476 245 463 c 128,-1,16
 231 450 231 450 211 450 c 0,17,18
 192 450 192 450 176.5 465 c 128,-1,19
 161 480 161 480 161 500 c 2,0,-1
453 500 m 2,20,-1
 453 720 l 2,21,22
 453 741 453 741 468 755.5 c 128,-1,23
 483 770 483 770 503 770 c 2,24,-1
 526 770 l 2,25,26
 544 770 544 770 560 756 c 128,-1,27
 576 742 576 742 576 724 c 2,28,-1
 576 720 l 1,29,-1
 551 490 l 2,30,31
 547 473 547 473 534.5 461.5 c 128,-1,32
 522 450 522 450 503 450 c 0,33,34
 483 450 483 450 468 465 c 128,-1,35
 453 480 453 480 453 500 c 2,20,-1
EndSplineSet
Validated: 1
EndChar

StartChar: Euro
Encoding: 8364 8364 161
Width: 723
GlyphClass: 2
Flags: W
LayerCount: 2
Fore
SplineSet
606 15 m 0,0,1
 547 -10 547 -10 479 -10 c 0,2,3
 332 -10 332 -10 244 93 c 0,4,5
 176 168 176 168 160 292 c 1,6,-1
 117 292 l 2,7,8
 113 292 113 292 109 293 c 0,9,10
 102 295 102 295 97 300 c 0,11,12
 88 309 88 309 88 321 c 128,-1,13
 88 333 88 333 96.5 341.5 c 128,-1,14
 105 350 105 350 117 350 c 2,15,-1
 154 350 l 1,16,-1
 154 367 l 2,17,18
 154 387 154 387 156 419 c 1,19,-1
 115 419 l 2,20,21
 104 420 104 420 97 428 c 0,22,23
 88 437 88 437 88 448.5 c 128,-1,24
 88 460 88 460 96.5 469 c 128,-1,25
 105 478 105 478 117 478 c 2,26,-1
 165 478 l 1,27,28
 186 598 186 598 260 674 c 0,29,30
 353 770 353 770 490 770 c 0,31,32
 550 770 550 770 604 750 c 0,33,34
 621 744 621 744 629 728 c 0,35,36
 634 718 634 718 634 708 c 0,37,38
 634 701 634 701 632 694 c 0,39,40
 629 683 629 683 619.5 676.5 c 128,-1,41
 610 670 610 670 599 670 c 0,42,43
 593 670 593 670 587 672 c 0,44,45
 541 689 541 689 491 689 c 0,46,47
 398 689 398 689 338 625 c 0,48,49
 287 576 287 576 268 478 c 1,50,-1
 563 478 l 2,51,52
 575 478 575 478 583.5 469 c 128,-1,53
 592 460 592 460 592 448 c 0,54,55
 592 437 592 437 584 428.5 c 128,-1,56
 576 420 576 420 565 419 c 2,57,-1
 257 419 l 1,58,59
 255 389 255 389 255 371 c 2,60,-1
 255 350 l 1,61,-1
 563 350 l 2,62,63
 575 350 575 350 583.5 341.5 c 128,-1,64
 592 333 592 333 592 321 c 0,65,66
 592 299 592 299 571 293 c 0,67,68
 567 292 567 292 563 292 c 2,69,-1
 263 292 l 1,70,71
 276 197 276 197 327 141 c 0,72,73
 391 74 391 74 491 74 c 0,74,75
 549 74 549 74 607 99 c 0,76,77
 617 104 617 104 627 99 c 128,-1,78
 637 94 637 94 640 83 c 0,79,80
 642 75 642 75 642 68 c 0,81,82
 642 55 642 55 636 42 c 0,83,84
 626 23 626 23 606 15 c 0,0,1
EndSplineSet
Validated: 1
EndChar

StartChar: Bitcoin
Encoding: 8383 8383 162
Width: 723
GlyphClass: 2
Flags: W
LayerCount: 2
Fore
SplineSet
537 396 m 1,0,1
 600 344 600 344 602 260 c 0,2,3
 602 217 602 217 583 178.5 c 128,-1,4
 564 140 564 140 531 115 c 0,5,6
 489 83 489 83 439 75 c 1,7,-1
 439 40 l 2,8,9
 439 20 439 20 424 5 c 128,-1,10
 409 -10 409 -10 389 -10 c 128,-1,11
 369 -10 369 -10 354 4.5 c 128,-1,12
 339 19 339 19 339 40 c 2,13,-1
 339 70 l 1,14,-1
 302 70 l 1,15,-1
 302 40 l 2,16,17
 302 20 302 20 287 5 c 128,-1,18
 272 -10 272 -10 252 -10 c 128,-1,19
 232 -10 232 -10 217 4.5 c 128,-1,20
 202 19 202 19 202 40 c 2,21,-1
 202 70 l 1,22,-1
 175 70 l 2,23,24
 154 70 154 70 139.5 84.5 c 128,-1,25
 125 99 125 99 125 119 c 2,26,-1
 125 645 l 2,27,28
 125 665 125 665 139.5 679.5 c 128,-1,29
 154 694 154 694 175 694 c 2,30,-1
 202 694 l 1,31,-1
 202 720 l 2,32,33
 202 740 202 740 217 755 c 128,-1,34
 232 770 232 770 252 770 c 128,-1,35
 272 770 272 770 287 755.5 c 128,-1,36
 302 741 302 741 302 720 c 2,37,-1
 302 694 l 1,38,-1
 339 694 l 1,39,-1
 339 720 l 2,40,41
 339 740 339 740 354 755 c 128,-1,42
 369 770 369 770 389.5 770 c 128,-1,43
 410 770 410 770 424.5 755.5 c 128,-1,44
 439 741 439 741 439 720 c 2,45,-1
 439 688 l 1,46,47
 474 682 474 682 500 668 c 0,48,49
 541 645 541 645 565 604 c 128,-1,50
 589 563 589 563 589 515 c 0,51,52
 588 443 588 443 537 396 c 1,0,1
490 522 m 1,53,54
 485 566 485 566 450.5 581.5 c 128,-1,55
 416 597 416 597 347 597 c 2,56,-1
 224 597 l 1,57,-1
 224 444 l 1,58,-1
 373 444 l 2,59,60
 425 444 425 444 455 459 c 0,61,62
 490 477 490 477 490 516 c 2,63,-1
 490 522 l 1,53,54
347 168 m 2,64,65
 503 168 503 168 503 259 c 0,66,67
 502 286 502 286 489 304.5 c 128,-1,68
 476 323 476 323 454.5 331.5 c 128,-1,69
 433 340 433 340 413.5 343.5 c 128,-1,70
 394 347 394 347 373 347 c 2,71,-1
 224 347 l 1,72,-1
 224 168 l 1,73,-1
 347 168 l 2,64,65
EndSplineSet
Validated: 1
EndChar

StartChar: Omega
Encoding: 8486 8486 163
Width: 723
GlyphClass: 2
Flags: W
LayerCount: 2
Fore
SplineSet
114 565 m 0,0,1
 114 679 114 679 184 749 c 0,2,3
 254 821 254 821 363 821 c 0,4,5
 474 821 474 821 542 743 c 128,-1,6
 610 665 610 665 610 549 c 0,7,8
 610 505 610 505 600 462 c 2,9,-1
 509 72 l 1,10,11
 527 56 527 56 527 34 c 0,12,13
 527 14 527 14 512 -1 c 128,-1,14
 497 -16 497 -16 477 -16 c 2,15,-1
 449 -16 l 2,16,17
 429 -16 429 -16 414 -1.5 c 128,-1,18
 399 13 399 13 399 34 c 2,19,-1
 399 46 l 1,20,-1
 503 488 l 2,21,22
 512 517 512 517 512 569 c 0,23,24
 509 635 509 635 468.5 678 c 128,-1,25
 428 721 428 721 363 721 c 128,-1,26
 298 721 298 721 256.5 677.5 c 128,-1,27
 215 634 215 634 213 569 c 2,28,-1
 213 563 l 2,29,30
 213 536 213 536 223 484 c 0,31,32
 266 265 266 265 325 48 c 0,33,34
 327 40 327 40 327 34 c 0,35,36
 327 14 327 14 312 -1 c 128,-1,37
 297 -16 297 -16 277 -16 c 2,38,-1
 249 -16 l 2,39,40
 229 -16 229 -16 214 -1.5 c 128,-1,41
 199 13 199 13 199 34 c 0,42,43
 199 58 199 58 215 72 c 1,44,45
 164 267 164 267 125 465 c 0,46,47
 114 520 114 520 114 565 c 0,0,1
EndSplineSet
Validated: 1
EndChar

StartChar: arrowup
Encoding: 8593 8593 164
Width: 723
GlyphClass: 2
Flags: W
LayerCount: 2
Fore
SplineSet
184.5 474 m 128,-1,1
 170 489 170 489 170 509 c 128,-1,2
 170 529 170 529 185 544 c 2,3,-1
 327 687 l 2,4,5
 341 701 341 701 363 701 c 0,6,7
 384 701 384 701 398 687 c 2,8,-1
 541 544 l 2,9,10
 556 527 556 527 556 509 c 0,11,12
 556 489 556 489 541.5 474 c 128,-1,13
 527 459 527 459 506 459 c 0,14,15
 486 459 486 459 470 473 c 2,16,-1
 413 530 l 1,17,-1
 413 40 l 2,18,19
 413 20 413 20 398 5 c 128,-1,20
 383 -10 383 -10 363 -10 c 128,-1,21
 343 -10 343 -10 328 4.5 c 128,-1,22
 313 19 313 19 313 40 c 2,23,-1
 313 530 l 1,24,-1
 255 473 l 2,25,26
 241 459 241 459 220 459 c 128,-1,0
 199 459 199 459 184.5 474 c 128,-1,1
EndSplineSet
Validated: 1
EndChar

StartChar: arrowright
Encoding: 8594 8594 165
Width: 723
GlyphClass: 2
Flags: W
LayerCount: 2
Fore
SplineSet
490 524 m 128,-1,1
 505 538 505 538 525 538 c 128,-1,2
 545 538 545 538 560 524 c 2,3,-1
 703 382 l 2,4,5
 717 368 717 368 717 346 c 128,-1,6
 717 324 717 324 703 310 c 2,7,-1
 560 168 l 2,8,9
 543 152 543 152 525 152 c 0,10,11
 505 152 505 152 490 167 c 128,-1,12
 475 182 475 182 475 202 c 128,-1,13
 475 222 475 222 489 238 c 2,14,-1
 546 296 l 1,15,-1
 56 296 l 2,16,17
 36 296 36 296 21 311 c 128,-1,18
 6 326 6 326 6 345.5 c 128,-1,19
 6 365 6 365 20.5 380.5 c 128,-1,20
 35 396 35 396 56 396 c 2,21,-1
 546 396 l 1,22,-1
 489 454 l 2,23,24
 475 468 475 468 475 489 c 128,-1,0
 475 510 475 510 490 524 c 128,-1,1
EndSplineSet
Validated: 1
EndChar

StartChar: arrowdown
Encoding: 8595 8595 166
Width: 723
GlyphClass: 2
Flags: W
LayerCount: 2
Fore
SplineSet
170 183 m 0,0,1
 170 203 170 203 185 218 c 128,-1,2
 200 233 200 233 220 233 c 0,3,4
 242 233 242 233 255 218 c 2,5,-1
 313 161 l 1,6,-1
 313 651 l 2,7,8
 313 672 313 672 327.5 686.5 c 128,-1,9
 342 701 342 701 363 701 c 128,-1,10
 384 701 384 701 398.5 686 c 128,-1,11
 413 671 413 671 413 651 c 2,12,-1
 413 161 l 1,13,-1
 470 218 l 2,14,15
 485 233 485 233 506 233 c 0,16,17
 526 233 526 233 541 218 c 128,-1,18
 556 203 556 203 556 183 c 0,19,20
 556 164 556 164 541 147 c 2,21,-1
 398 5 l 2,22,23
 384 -10 384 -10 363 -10 c 128,-1,24
 342 -10 342 -10 327 5 c 2,25,-1
 185 147 l 2,26,27
 170 162 170 162 170 183 c 0,0,1
EndSplineSet
Validated: 1
EndChar

StartChar: Delta
Encoding: 8710 8710 167
Width: 723
GlyphClass: 2
Flags: W
LayerCount: 2
Fore
SplineSet
140 40 m 1,0,-1
 314 670 l 2,1,2
 318 686 318 686 332 696.5 c 128,-1,3
 346 707 346 707 363 707 c 0,4,5
 378 707 378 707 392 696 c 0,6,7
 405 685 405 685 411 670 c 2,8,-1
 585 40 l 2,9,10
 585 39 585 39 585 38 c 0,11,12
 585 19 585 19 570 5 c 0,13,14
 554 -10 554 -10 534 -10 c 2,15,-1
 191 -10 l 2,16,17
 170 -10 170 -10 155 5.5 c 128,-1,18
 140 21 140 21 140 40 c 1,0,-1
258 90 m 1,19,-1
 468 90 l 1,20,-1
 363 470 l 1,21,-1
 258 90 l 1,19,-1
EndSplineSet
Validated: 1
EndChar

StartChar: Satoshi
Encoding: 57535 57535 168
Width: 723
GlyphClass: 2
Flags: W
LayerCount: 2
Fore
SplineSet
413 40 m 2,0,1
 413 20 413 20 398 5 c 128,-1,2
 383 -10 383 -10 363 -10 c 128,-1,3
 343 -10 343 -10 328 5 c 128,-1,4
 313 20 313 20 313 40 c 2,5,-1
 313 74 l 2,6,7
 313 94 313 94 327.5 109 c 128,-1,8
 342 124 342 124 363 124 c 128,-1,9
 384 124 384 124 398.5 109.5 c 128,-1,10
 413 95 413 95 413 74 c 2,11,-1
 413 40 l 2,0,1
413 686 m 2,12,13
 413 666 413 666 398 651 c 128,-1,14
 383 636 383 636 363 636 c 128,-1,15
 343 636 343 636 328 650.5 c 128,-1,16
 313 665 313 665 313 686 c 2,17,-1
 313 720 l 2,18,19
 313 740 313 740 327.5 755 c 128,-1,20
 342 770 342 770 363 770 c 128,-1,21
 384 770 384 770 398.5 755 c 128,-1,22
 413 740 413 740 413 720 c 2,23,-1
 413 686 l 2,12,13
126 227.5 m 128,-1,25
 126 265 126 265 132 271 c 128,-1,26
 138 277 138 277 176 277 c 2,27,-1
 550 277 l 2,28,29
 588 277 588 277 594 271 c 128,-1,30
 600 265 600 265 600 227.5 c 128,-1,31
 600 190 600 190 594 183.5 c 128,-1,32
 588 177 588 177 550 177 c 2,33,-1
 176 177 l 2,34,35
 138 177 138 177 132 183.5 c 128,-1,24
 126 190 126 190 126 227.5 c 128,-1,25
126 380 m 128,-1,37
 126 418 126 418 132 424 c 128,-1,38
 138 430 138 430 176 430 c 2,39,-1
 550 430 l 2,40,41
 588 430 588 430 594 424 c 128,-1,42
 600 418 600 418 600 380 c 128,-1,43
 600 342 600 342 594 336 c 128,-1,44
 588 330 588 330 550 330 c 2,45,-1
 176 330 l 2,46,47
 138 330 138 330 132 336 c 128,-1,36
 126 342 126 342 126 380 c 128,-1,37
126 532.5 m 128,-1,49
 126 570 126 570 132 576.5 c 128,-1,50
 138 583 138 583 176 583 c 2,51,-1
 550 583 l 2,52,53
 588 583 588 583 594 576.5 c 128,-1,54
 600 570 600 570 600 532.5 c 128,-1,55
 600 495 600 495 594 489 c 128,-1,56
 588 483 588 483 550 483 c 2,57,-1
 176 483 l 2,58,59
 138 483 138 483 132 489 c 128,-1,48
 126 495 126 495 126 532.5 c 128,-1,49
EndSplineSet
Validated: 1
EndChar

StartChar: Knots
Encoding: 57536 57536 169
AltUni2: 01faa2.ffffffff.0 01faa2.ffffffff.0
Width: 723
GlyphClass: 2
Flags: W
LayerCount: 2
Fore
SplineSet
366 88 m 1,0,-1
 415 88 l 1,1,2
 403 58 403 58 382.5 33.5 c 128,-1,3
 362 9 362 9 347 -1 c 2,4,-1
 333 -10 l 1,5,6
 261 35 261 35 249 122 c 0,7,8
 247 138 247 138 247 153 c 0,9,10
 247 225 247 225 291 298 c 1,11,12
 304 284 304 284 310 277 c 0,13,14
 315 272 315 272 320 266 c 1,15,16
 300 235 300 235 296 195 c 0,17,18
 292 169 292 169 292 147 c 0,19,20
 292 79 292 79 333 42 c 1,21,22
 356 63 356 63 366 88 c 1,0,-1
299 676 m 1,23,-1
 254 676 l 1,24,25
 265 703 265 703 284.5 726.5 c 128,-1,26
 304 750 304 750 318 760 c 2,27,-1
 333 770 l 1,28,29
 363 751 363 751 385 723 c 128,-1,30
 407 695 407 695 418 662 c 0,31,32
 424 644 424 644 424 625 c 0,33,34
 424 608 424 608 419 589 c 0,35,36
 409 550 409 550 377 514 c 1,37,38
 369 520 369 520 362 527 c 0,39,40
 353 536 353 536 345 547 c 1,41,42
 373 579 373 579 373 624 c 0,43,44
 373 632 373 632 372 640 c 0,45,46
 366 696 366 696 333 723 c 1,47,48
 309 702 309 702 299 676 c 1,23,-1
552 404 m 1,49,50
 596 378 596 378 619 344 c 128,-1,51
 642 310 642 310 644 278 c 0,52,53
 644 274 644 274 645 270 c 0,54,55
 645 241 645 241 631 214 c 0,56,57
 616 182 616 182 587.5 158.5 c 128,-1,58
 559 135 559 135 516 121 c 0,59,60
 476 108 476 108 430 108 c 0,61,62
 427 108 427 108 423 108 c 2,63,-1
 318 108 l 1,64,65
 314 121 314 121 314 143 c 0,66,67
 314 146 314 146 314 149 c 0,68,69
 314 169 314 169 317 180 c 1,70,71
 325 180 325 180 332 180 c 0,72,73
 430 180 430 180 461 189 c 0,74,75
 503 198 503 198 525.5 222 c 128,-1,76
 548 246 548 246 548 275 c 0,77,78
 548 303 548 303 532 331 c 128,-1,79
 516 359 516 359 488 375 c 1,80,81
 498 380 498 380 510 385 c 0,82,83
 539 397 539 397 552 404 c 1,49,50
85 107 m 1,84,85
 92 111 92 111 102 117 c 128,-1,86
 112 123 112 123 129 139 c 128,-1,87
 146 155 146 155 146 167 c 2,88,-1
 146 600 l 2,89,90
 146 615 146 615 130 629.5 c 128,-1,91
 114 644 114 644 98 650 c 2,92,-1
 82 657 l 1,93,-1
 330 657 l 1,94,-1
 348 657 l 1,95,96
 351 643 351 643 352 628 c 0,97,98
 352 613 352 613 349 599 c 1,99,100
 342 599 342 599 329 599.5 c 128,-1,101
 316 600 316 600 298 600 c 0,102,103
 289 600 289 600 273 600 c 0,104,105
 269 600 269 600 265 600 c 0,106,107
 236 600 236 600 226 597 c 0,108,109
 215 594 215 594 214 577 c 2,110,-1
 214 203 l 2,111,112
 214 186 214 186 228 182 c 1,113,114
 225 166 225 166 225 149 c 0,115,116
 225 127 225 127 229 108 c 1,117,-1
 85 107 l 1,84,85
412 203 m 0,118,119
 398 201 398 201 370 201 c 1,120,121
 364 235 364 235 354 253.5 c 128,-1,122
 344 272 344 272 323 294 c 128,-1,123
 302 316 302 316 295 324 c 0,124,125
 270 357 270 357 267 400 c 0,126,127
 267 405 267 405 267 410 c 0,128,129
 267 448 267 448 290 484 c 1,130,131
 297 476 297 476 305 469 c 0,132,133
 312 462 312 462 321 453 c 1,134,135
 313 434 313 434 313 414 c 0,136,137
 313 385 313 385 330 354 c 0,138,139
 340 341 340 341 357 320.5 c 128,-1,140
 374 300 374 300 383 288 c 128,-1,141
 392 276 392 276 402 253.5 c 128,-1,142
 412 231 412 231 417 204 c 0,143,144
 415 203 415 203 412 203 c 0,118,119
444 623 m 0,145,146
 444 641 444 641 440 658 c 1,147,148
 444 658 444 658 448 658 c 0,149,150
 480 658 480 658 510 647 c 0,151,152
 543 635 543 635 566 614.5 c 128,-1,153
 589 594 589 594 600 566 c 0,154,155
 609 544 609 544 610 522 c 0,156,157
 610 517 610 517 609 512 c 0,158,159
 606 485 606 485 583.5 458 c 128,-1,160
 561 431 561 431 520 412 c 0,161,162
 515 410 515 410 497.5 402.5 c 128,-1,163
 480 395 480 395 473 391.5 c 128,-1,164
 466 388 466 388 451.5 381 c 128,-1,165
 437 374 437 374 428.5 369 c 128,-1,166
 420 364 420 364 409.5 357.5 c 128,-1,167
 399 351 399 351 391 344 c 128,-1,168
 383 337 383 337 377 330 c 1,169,170
 364 346 364 346 358 352 c 0,171,172
 351 359 351 359 346 368 c 1,173,174
 357 379 357 379 370 388 c 128,-1,175
 383 397 383 397 391 401.5 c 128,-1,176
 399 406 399 406 421 416.5 c 128,-1,177
 443 427 443 427 457 434 c 0,178,179
 504 458 504 458 519 491 c 0,180,181
 525 505 525 505 525 517 c 0,182,183
 525 535 525 535 513 551 c 0,184,185
 492 579 492 579 441 592 c 1,186,187
 444 607 444 607 444 623 c 0,145,146
303 500 m 0,188,189
 266 541 266 541 254 580 c 1,190,-1
 299 580 l 1,191,192
 316 542 316 542 355 506 c 128,-1,193
 394 470 394 470 437 449 c 1,194,195
 424 440 424 440 410 434 c 0,196,197
 398 428 398 428 393 425 c 1,198,199
 353 447 353 447 303 500 c 0,188,189
EndSplineSet
Validated: 1
EndChar

StartChar: TONAL_NINE
Encoding: 59625 59625 170
AltUni2: 00e9d9.ffffffff.0 00e9d9.ffffffff.0
Width: 723
GlyphClass: 2
Flags: W
LayerCount: 2
Fore
SplineSet
363 -10 m 0,0,1
 259 -10 259 -10 186 66.5 c 128,-1,2
 113 143 113 143 113 249 c 0,3,4
 113 352 113 352 182 421 c 128,-1,5
 251 490 251 490 363 490 c 0,6,7
 397 490 397 490 424 486 c 1,8,9
 354 596 354 596 255 686 c 0,10,11
 239 702 239 702 239 723 c 128,-1,12
 239 744 239 744 254 758.5 c 128,-1,13
 269 773 269 773 289 773 c 0,14,15
 307 773 307 773 322 760 c 0,16,17
 444 651 444 651 532 503 c 0,18,19
 571 435 571 435 592 377.5 c 128,-1,20
 613 320 613 320 613 249 c 0,21,22
 613 133 613 133 541.5 61.5 c 128,-1,23
 470 -10 470 -10 363 -10 c 0,0,1
503 321 m 0,24,25
 482 390 482 390 363 390 c 0,26,27
 294 390 294 390 253.5 351 c 128,-1,28
 213 312 213 312 213 249 c 0,29,30
 213 184 213 184 256.5 137 c 128,-1,31
 300 90 300 90 363 90 c 0,32,33
 431 90 431 90 472 133 c 128,-1,34
 513 176 513 176 513 249 c 0,35,36
 513 283 513 283 503 321 c 0,24,25
EndSplineSet
Validated: 1
EndChar

StartChar: TONAL_ELEVEN
Encoding: 59627 59627 171
AltUni2: 00e9db.ffffffff.0 00e9db.ffffffff.0
Width: 723
GlyphClass: 2
Flags: W
LayerCount: 2
Fore
SplineSet
649 207 m 0,0,1
 653 189 653 189 653 171 c 0,2,3
 653 118 653 118 625.5 75.5 c 128,-1,4
 598 33 598 33 556 9 c 0,5,6
 512 -14 512 -14 466 -14 c 0,7,8
 397 -14 397 -14 345 34 c 128,-1,9
 293 82 293 82 286 148 c 1,10,-1
 286 261 l 2,11,12
 286 262 286 262 287 262 c 1,13,14
 286 262 286 262 286 263 c 2,15,-1
 286 297 l 1,16,17
 192 313 192 313 133.5 374.5 c 128,-1,18
 75 436 75 436 73 531 c 2,19,-1
 73 538 l 2,20,21
 73 651 73 651 146 712 c 128,-1,22
 219 773 219 773 336 773 c 0,23,24
 357 773 357 773 372 758 c 128,-1,25
 387 743 387 743 387 722 c 2,26,-1
 387 688 l 2,27,28
 388 683 388 683 388 678 c 2,29,-1
 388 396 l 1,30,31
 460 403 460 403 501 440.5 c 128,-1,32
 542 478 542 478 542 548 c 0,33,34
 542 570 542 570 540 582 c 0,35,36
 532 617 532 617 515 633 c 0,37,38
 501 647 501 647 501 668 c 0,39,40
 501 690 501 690 516 705 c 128,-1,41
 531 720 531 720 552 720 c 0,42,43
 584 720 584 720 605 694.5 c 128,-1,44
 626 669 626 669 634.5 633.5 c 128,-1,45
 643 598 643 598 643 555 c 0,46,47
 643 500 643 500 630 458 c 0,48,49
 606 385 606 385 542.5 343 c 128,-1,50
 479 301 479 301 388 293 c 1,51,-1
 388 263 l 2,52,53
 388 262 388 262 387 262 c 1,54,55
 388 262 388 262 388 261 c 2,56,-1
 388 172 l 2,57,58
 388 132 388 132 409.5 111 c 128,-1,59
 431 90 431 90 462 90 c 0,60,61
 496 90 496 90 523.5 112.5 c 128,-1,62
 551 135 551 135 551 172 c 0,63,64
 551 176 551 176 549 188 c 2,65,-1
 549 196 l 2,66,67
 549 221 549 221 568 236 c 0,68,69
 582 248 582 248 599 248 c 0,70,71
 605 248 605 248 612 247 c 0,72,73
 642 239 642 239 649 207 c 0,0,1
285 401 m 1,74,-1
 285 663 l 1,75,76
 228 651 228 651 201.5 623.5 c 128,-1,77
 175 596 175 596 175 533 c 0,78,79
 175 481 175 481 205 448 c 128,-1,80
 235 415 235 415 285 401 c 1,74,-1
EndSplineSet
Validated: 1
EndChar

StartChar: TONAL_TWELVE
Encoding: 59628 59628 172
AltUni2: 00e9dc.ffffffff.0 00e9dc.ffffffff.0
Width: 723
GlyphClass: 2
Flags: W
LayerCount: 2
Fore
SplineSet
599 634 m 2,0,-1
 599 211 l 2,1,2
 599 154 599 154 574.5 104 c 128,-1,3
 550 54 550 54 505 23 c 0,4,5
 449 -14 449 -14 362 -14 c 128,-1,6
 275 -14 275 -14 219 23 c 0,7,8
 173 53 173 53 149 103.5 c 128,-1,9
 125 154 125 154 125 211 c 2,10,-1
 125 665 l 2,11,12
 125 685 125 685 140 700.5 c 128,-1,13
 155 716 155 716 175.5 716 c 128,-1,14
 196 716 196 716 211 701 c 128,-1,15
 226 686 226 686 226 665 c 2,16,-1
 226 211 l 2,17,18
 226 140 226 140 275 107 c 0,19,20
 306 87 306 87 362 87 c 0,21,22
 425 87 425 87 462 120 c 128,-1,23
 499 153 499 153 499 211 c 2,24,-1
 499 635 l 2,25,26
 499 651 499 651 487.5 662 c 128,-1,27
 476 673 476 673 460 673 c 128,-1,28
 444 673 444 673 433 662 c 128,-1,29
 422 651 422 651 422 635 c 2,30,-1
 422 384 l 2,31,32
 422 363 422 363 407 348.5 c 128,-1,33
 392 334 392 334 371 334 c 128,-1,34
 350 334 350 334 335.5 348.5 c 128,-1,35
 321 363 321 363 321 384 c 2,36,-1
 321 421 l 1,37,-1
 321 526 l 2,38,39
 321 530 321 530 321 538 c 2,40,-1
 321 634 l 2,41,42
 321 701 321 701 374 743 c 0,43,44
 412 773 412 773 460 773 c 0,45,46
 498 773 498 773 530 754.5 c 128,-1,47
 562 736 562 736 580 704 c 0,48,49
 599 672 599 672 599 634 c 2,0,-1
EndSplineSet
Validated: 1
EndChar

StartChar: TONAL_THIRTEEN
Encoding: 59629 59629 173
AltUni2: 00e9dd.ffffffff.0 00e9dd.ffffffff.0
Width: 723
GlyphClass: 2
Flags: W
LayerCount: 2
Fore
SplineSet
313 272 m 1,0,1
 223 295 223 295 168 354 c 128,-1,2
 113 413 113 413 113 502 c 2,3,-1
 113 518 l 1,4,5
 117 628 117 628 199 692.5 c 128,-1,6
 281 757 281 757 400 757 c 0,7,8
 429 757 429 757 458.5 754 c 128,-1,9
 488 751 488 751 523.5 743.5 c 128,-1,10
 559 736 559 736 581.5 718.5 c 128,-1,11
 604 701 604 701 604 675 c 0,12,13
 604 654 604 654 589 639.5 c 128,-1,14
 574 625 574 625 554 625 c 0,15,16
 547 625 547 625 535 629 c 0,17,18
 472 657 472 657 400 657 c 0,19,20
 322 657 322 657 269.5 620.5 c 128,-1,21
 217 584 217 584 213 513 c 1,22,-1
 213 504 l 2,23,24
 213 455 213 455 243.5 421 c 128,-1,25
 274 387 274 387 318.5 373.5 c 128,-1,26
 363 360 363 360 417 360 c 0,27,28
 437 360 437 360 452 345 c 128,-1,29
 467 330 467 330 467 310 c 128,-1,30
 467 290 467 290 456 279 c 2,31,-1
 272 86 l 1,32,-1
 551 86 l 2,33,34
 571 86 571 86 586 71 c 128,-1,35
 601 56 601 56 601 36 c 0,36,37
 601 15 601 15 586.5 0.5 c 128,-1,38
 572 -14 572 -14 551 -14 c 2,39,-1
 188 -14 l 2,40,41
 168 -14 168 -14 153 1 c 128,-1,42
 138 16 138 16 138 36 c 2,43,-1
 138 71 l 2,44,45
 138 89 138 89 153 104 c 2,46,-1
 313 272 l 1,0,1
EndSplineSet
Validated: 1
EndChar

StartChar: TONAL_FOURTEEN
Encoding: 59630 59630 174
AltUni2: 00e9de.ffffffff.0 00e9de.ffffffff.0
Width: 723
GlyphClass: 2
Flags: W
LayerCount: 2
Fore
SplineSet
572 47 m 0,0,1
 526 14 526 14 477 0 c 128,-1,2
 428 -14 428 -14 360 -14 c 0,3,4
 263 -14 263 -14 199.5 45 c 128,-1,5
 136 104 136 104 136 199 c 0,6,7
 136 226 136 226 143 252 c 128,-1,8
 150 278 150 278 159.5 297.5 c 128,-1,9
 169 317 169 317 187.5 338 c 128,-1,10
 206 359 206 359 219 372 c 128,-1,11
 232 385 232 385 257.5 403.5 c 128,-1,12
 283 422 283 422 294.5 429.5 c 128,-1,13
 306 437 306 437 333 454 c 0,14,15
 365 474 365 474 379 483.5 c 128,-1,16
 393 493 393 493 416.5 513.5 c 128,-1,17
 440 534 440 534 450 551.5 c 128,-1,18
 460 569 460 569 469.5 596.5 c 128,-1,19
 479 624 479 624 481 658 c 1,20,-1
 180 658 l 2,21,22
 159 658 159 658 144.5 673 c 128,-1,23
 130 688 130 688 130 708 c 128,-1,24
 130 728 130 728 145 743 c 128,-1,25
 160 758 160 758 180 758 c 2,26,-1
 532 758 l 2,27,28
 552 758 552 758 567 743 c 128,-1,29
 582 728 582 728 582 708 c 2,30,-1
 582 687 l 2,31,32
 582 608 582 608 572 574 c 0,33,34
 554 512 554 512 506.5 464 c 128,-1,35
 459 416 459 416 387 370 c 0,36,37
 355 349 355 349 339 338.5 c 128,-1,38
 323 328 323 328 299.5 308.5 c 128,-1,39
 276 289 276 289 263 272 c 0,40,41
 236 237 236 237 236 199 c 0,42,43
 236 148 236 148 271.5 117 c 128,-1,44
 307 86 307 86 360 86 c 0,45,46
 456 86 456 86 514 129 c 0,47,48
 530 138 530 138 543 138 c 0,49,50
 563 138 563 138 578 123 c 128,-1,51
 593 108 593 108 593 89 c 0,52,53
 593 77 593 77 587 64.5 c 128,-1,54
 581 52 581 52 572 47 c 0,0,1
EndSplineSet
Validated: 1
EndChar

StartChar: TONAL_FIFTEEN
Encoding: 59631 59631 175
AltUni2: 00e9df.ffffffff.0 00e9df.ffffffff.0
Width: 723
GlyphClass: 2
Flags: W
LayerCount: 2
Fore
SplineSet
387 773 m 0,0,1
 504 773 504 773 577 711.5 c 128,-1,2
 650 650 650 650 650 538 c 2,3,-1
 650 531 l 2,4,5
 648 436 648 436 590 374.5 c 128,-1,6
 532 313 532 313 438 297 c 1,7,-1
 438 37 l 2,8,9
 438 16 438 16 423 1 c 128,-1,10
 408 -14 408 -14 386.5 -14 c 128,-1,11
 365 -14 365 -14 350.5 1 c 128,-1,12
 336 16 336 16 336 37 c 2,13,-1
 336 293 l 1,14,15
 244 300 244 300 181 342.5 c 128,-1,16
 118 385 118 385 93 458 c 0,17,18
 80 499 80 499 80 555 c 0,19,20
 80 598 80 598 88 633.5 c 128,-1,21
 96 669 96 669 117.5 694.5 c 128,-1,22
 139 720 139 720 171 720 c 0,23,24
 192 720 192 720 207 705 c 128,-1,25
 222 690 222 690 222 668 c 0,26,27
 222 648 222 648 207 633 c 0,28,29
 191 617 191 617 183 582 c 0,30,31
 181 570 181 570 181 548 c 0,32,33
 181 478 181 478 222.5 440.5 c 128,-1,34
 264 403 264 403 336 396 c 1,35,-1
 336 641 l 1,36,-1
 336 722 l 2,37,38
 336 743 336 743 351 758 c 128,-1,39
 366 773 366 773 387 773 c 0,0,1
438 401 m 1,40,41
 488 415 488 415 518 448.5 c 128,-1,42
 548 482 548 482 548 533 c 0,43,44
 548 596 548 596 521.5 623.5 c 128,-1,45
 495 651 495 651 438 663 c 1,46,-1
 438 641 l 1,47,-1
 438 401 l 1,40,41
EndSplineSet
Validated: 1
EndChar

StartChar: quotesingle.alt
Encoding: 1114115 -1 176
Width: 723
GlyphClass: 2
Flags: W
LayerCount: 2
Fore
SplineSet
313 551 m 2,0,-1
 313 637 l 2,1,2
 313 658 313 658 328 672.5 c 128,-1,3
 343 687 343 687 363 687 c 128,-1,4
 383 687 383 687 398 672 c 128,-1,5
 413 657 413 657 413 637 c 2,6,-1
 413 551 l 2,7,8
 413 531 413 531 398 516 c 128,-1,9
 383 501 383 501 363 501 c 128,-1,10
 343 501 343 501 328 515.5 c 128,-1,11
 313 530 313 530 313 551 c 2,0,-1
EndSplineSet
Validated: 1
EndChar

